%
M48
M72
T01C0.03200
T02C0.04000
T03C0.04724
%
T01
X95937Y20100
X115937Y20100
X123937Y20100
X123937Y28100
X138537Y34100
X138537Y44100
X123937Y48100
X108937Y43500
X108937Y33500
X143937Y20100
X153537Y20100
X173537Y20100
X187737Y20500
X187737Y30500
X207537Y28100
X217537Y28100
X212537Y20600
X230737Y21300
X239937Y21300
X259937Y21300
X271137Y21300
X291137Y21300
X284337Y33900
X274337Y33900
X259537Y32500
X239537Y32500
X230737Y41300
X218737Y40100
X207537Y44700
X187537Y44700
X186737Y56500
X168537Y62800
X163537Y70300
X173537Y70300
X185937Y66500
X205937Y66500
X218537Y71100
X230537Y74100
X243337Y74300
X243737Y83300
X230937Y83700
X207337Y86100
X195537Y92300
X185537Y92300
X164737Y89000
X146337Y91300
X135137Y96900
X134137Y87700
X123537Y85700
X113937Y85300
X103937Y85300
X92537Y90500
X92337Y98500
X103937Y105300
X113937Y105300
X123537Y105700
X123537Y113700
X135137Y116900
X146337Y111300
X164737Y104000
X194537Y105900
X207337Y106100
X218537Y111100
X206937Y115300
X218937Y120900
X231737Y122900
X246137Y122700
X260737Y116700
X270737Y116700
X283737Y113500
X283737Y123500
X265737Y124200
X265137Y133500
X257937Y133500
X265137Y143100
X285137Y143100
X285137Y133500
X246137Y112700
X231737Y112900
X230937Y103700
X243737Y103300
X256337Y102700
X265537Y93300
X276337Y102700
X283937Y102700
X303937Y102700
X317737Y91700
X317737Y81700
X317737Y71700
X317737Y61700
X287737Y61700
X287737Y71700
X287737Y81700
X265537Y73300
X264337Y63900
X243337Y54300
X230537Y54100
X218737Y60100
X206737Y56500
X206337Y76100
X186337Y76100
X147737Y78300
X134137Y77700
X123537Y76500
X109137Y75500
X92537Y70500
X123537Y56500
X134137Y55500
X134137Y65500
X147737Y68300
X109137Y55500
X162337Y48400
X162337Y33400
X264337Y43900
X287737Y91700
X237937Y133500
X218937Y140900
X206937Y135300
X193737Y137500
X194537Y125900
X155537Y124700
X135537Y124700
X153737Y137500
X103537Y113700
X92337Y118500
T02
X69137Y19900
X82737Y19900
X87937Y47900
X67937Y47900
X147337Y54100
X317937Y42900
X317937Y22900
T03
X55337Y86615
X55337Y106300
X55337Y125985
M30
