G75*
%MOIN*%
%OFA0B0*%
%FSLAX25Y25*%
%IPPOS*%
%LPD*%
%AMOC8*
5,1,8,0,0,1.08239X$1,22.5*
%
%ADD10OC8,0.05200*%
%ADD11C,0.07500*%
%ADD12OC8,0.07500*%
%ADD13C,0.10000*%
%ADD14OC8,0.10000*%
%ADD15C,0.05200*%
%ADD16OC8,0.06000*%
%ADD17C,0.08600*%
%ADD18C,0.00800*%
%ADD19C,0.01000*%
D10*
X0095937Y0020100D03*
X0115937Y0020100D03*
X0123937Y0020100D03*
X0123937Y0028100D03*
X0138537Y0034100D03*
X0138537Y0044100D03*
X0123937Y0048100D03*
X0108937Y0043500D03*
X0108937Y0033500D03*
X0143937Y0020100D03*
X0153537Y0020100D03*
X0173537Y0020100D03*
X0187737Y0020500D03*
X0187737Y0030500D03*
X0207537Y0028100D03*
X0217537Y0028100D03*
X0212537Y0020600D03*
X0230737Y0021300D03*
X0239937Y0021300D03*
X0259937Y0021300D03*
X0271137Y0021300D03*
X0291137Y0021300D03*
X0284337Y0033900D03*
X0274337Y0033900D03*
X0259537Y0032500D03*
X0239537Y0032500D03*
X0230737Y0041300D03*
X0218737Y0040100D03*
X0207537Y0044700D03*
X0187537Y0044700D03*
X0186737Y0056500D03*
X0168537Y0062800D03*
X0163537Y0070300D03*
X0173537Y0070300D03*
X0185937Y0066500D03*
X0205937Y0066500D03*
X0218737Y0060100D03*
X0206737Y0056500D03*
X0230537Y0054100D03*
X0243337Y0054300D03*
X0243337Y0074300D03*
X0230537Y0074100D03*
X0230937Y0083700D03*
X0243737Y0083300D03*
X0207337Y0086100D03*
X0195537Y0092300D03*
X0185537Y0092300D03*
X0194537Y0105900D03*
X0207337Y0106100D03*
X0206937Y0115300D03*
X0218937Y0120900D03*
X0231737Y0122900D03*
X0246137Y0122700D03*
X0260737Y0116700D03*
X0270737Y0116700D03*
X0283737Y0113500D03*
X0283737Y0123500D03*
X0265737Y0124200D03*
X0265137Y0133500D03*
X0257937Y0133500D03*
X0265137Y0143100D03*
X0285137Y0143100D03*
X0285137Y0133500D03*
X0246137Y0112700D03*
X0231737Y0112900D03*
X0230937Y0103700D03*
X0243737Y0103300D03*
X0256337Y0102700D03*
X0276337Y0102700D03*
X0283937Y0102700D03*
X0303937Y0102700D03*
X0237937Y0133500D03*
X0218937Y0140900D03*
X0206937Y0135300D03*
X0194537Y0125900D03*
X0155537Y0124700D03*
X0135537Y0124700D03*
X0135137Y0116900D03*
X0123537Y0113700D03*
X0123537Y0105700D03*
X0113937Y0105300D03*
X0103937Y0105300D03*
X0092337Y0098500D03*
X0092537Y0090500D03*
X0103937Y0085300D03*
X0113937Y0085300D03*
X0123537Y0085700D03*
X0134137Y0087700D03*
X0146337Y0091300D03*
X0135137Y0096900D03*
X0146337Y0111300D03*
X0103537Y0113700D03*
X0092337Y0118500D03*
X0134137Y0077700D03*
X0123537Y0076500D03*
X0109137Y0075500D03*
X0092537Y0070500D03*
X0123537Y0056500D03*
X0134137Y0055500D03*
X0134137Y0065500D03*
X0147737Y0068300D03*
X0147737Y0078300D03*
X0186337Y0076100D03*
X0206337Y0076100D03*
X0109137Y0055500D03*
D11*
X0264337Y0063900D03*
X0265537Y0073300D03*
D12*
X0265537Y0093300D03*
X0264337Y0043900D03*
D13*
X0317937Y0042900D03*
X0087937Y0047900D03*
D14*
X0067937Y0047900D03*
X0317937Y0022900D03*
D15*
X0320337Y0061700D02*
X0315137Y0061700D01*
X0315137Y0071700D02*
X0320337Y0071700D01*
X0320337Y0081700D02*
X0315137Y0081700D01*
X0315137Y0091700D02*
X0320337Y0091700D01*
X0290337Y0091700D02*
X0285137Y0091700D01*
X0285137Y0081700D02*
X0290337Y0081700D01*
X0290337Y0071700D02*
X0285137Y0071700D01*
X0285137Y0061700D02*
X0290337Y0061700D01*
X0218537Y0068500D02*
X0218537Y0073700D01*
X0167337Y0089000D02*
X0162137Y0089000D01*
X0162137Y0104000D02*
X0167337Y0104000D01*
X0218537Y0108500D02*
X0218537Y0113700D01*
X0196337Y0137500D02*
X0191137Y0137500D01*
X0156337Y0137500D02*
X0151137Y0137500D01*
X0159737Y0048400D02*
X0164937Y0048400D01*
X0164937Y0033400D02*
X0159737Y0033400D01*
D16*
X0147337Y0054100D03*
X0082737Y0019900D03*
X0069137Y0019900D03*
D17*
X0055337Y0086615D03*
X0055337Y0106300D03*
X0055337Y0125985D03*
D18*
X0064937Y0106300D02*
X0089737Y0131100D01*
X0218537Y0131100D01*
X0225737Y0123900D01*
X0225737Y0108900D01*
X0230937Y0103700D01*
X0230937Y0083700D02*
X0226137Y0080900D01*
X0196737Y0080900D01*
X0194537Y0078300D01*
X0194637Y0071600D01*
X0182637Y0071600D01*
X0175337Y0079100D01*
X0175337Y0080700D01*
X0172137Y0083900D01*
X0136937Y0083900D01*
X0134537Y0081500D01*
X0060452Y0081500D01*
X0055337Y0086615D01*
X0092537Y0070500D02*
X0102337Y0060700D01*
X0128137Y0060700D01*
X0133337Y0055500D01*
X0134137Y0055500D01*
X0138937Y0060700D02*
X0160137Y0060700D01*
X0183937Y0036800D01*
X0214537Y0037400D01*
X0218737Y0040100D01*
X0207537Y0028100D02*
X0204937Y0025500D01*
X0185237Y0025500D01*
X0162337Y0048400D01*
X0168537Y0062800D02*
X0179437Y0051900D01*
X0202137Y0051900D01*
X0206737Y0056500D01*
X0186737Y0056500D02*
X0180337Y0054100D01*
X0172937Y0061500D01*
X0172937Y0064700D01*
X0168637Y0068500D01*
X0168637Y0073300D01*
X0168837Y0078200D01*
X0147737Y0078300D01*
X0134137Y0065500D02*
X0138937Y0060700D01*
X0176937Y0089500D02*
X0186337Y0080100D01*
X0186337Y0076100D01*
X0176937Y0089500D02*
X0176937Y0108300D01*
X0194537Y0125900D01*
X0064937Y0106300D02*
X0055337Y0106300D01*
D19*
X0040937Y0153500D02*
X0040937Y0001500D01*
X0338537Y0001500D01*
X0338537Y0153500D01*
X0040937Y0153500D01*
X0040937Y0152883D02*
X0338537Y0152883D01*
X0338537Y0151884D02*
X0040937Y0151884D01*
X0040937Y0150886D02*
X0338537Y0150886D01*
X0338537Y0149887D02*
X0040937Y0149887D01*
X0040937Y0148889D02*
X0338537Y0148889D01*
X0338537Y0147890D02*
X0040937Y0147890D01*
X0040937Y0146892D02*
X0262282Y0146892D01*
X0263190Y0147800D02*
X0260437Y0145047D01*
X0260437Y0141153D01*
X0263190Y0138400D01*
X0267084Y0138400D01*
X0269837Y0141153D01*
X0269837Y0145047D01*
X0267084Y0147800D01*
X0263190Y0147800D01*
X0261283Y0145893D02*
X0040937Y0145893D01*
X0040937Y0144895D02*
X0216285Y0144895D01*
X0216990Y0145600D02*
X0214237Y0142847D01*
X0214237Y0138953D01*
X0216990Y0136200D01*
X0220884Y0136200D01*
X0223637Y0138953D01*
X0223637Y0142847D01*
X0220884Y0145600D01*
X0216990Y0145600D01*
X0215286Y0143896D02*
X0040937Y0143896D01*
X0040937Y0142898D02*
X0214288Y0142898D01*
X0214237Y0141899D02*
X0197998Y0141899D01*
X0197272Y0142200D02*
X0190202Y0142200D01*
X0188475Y0141484D01*
X0187153Y0140162D01*
X0186437Y0138435D01*
X0186437Y0136565D01*
X0187153Y0134838D01*
X0188390Y0133600D01*
X0159084Y0133600D01*
X0160321Y0134838D01*
X0161037Y0136565D01*
X0161037Y0138435D01*
X0160321Y0140162D01*
X0158999Y0141484D01*
X0157272Y0142200D01*
X0150202Y0142200D01*
X0148475Y0141484D01*
X0147153Y0140162D01*
X0146437Y0138435D01*
X0146437Y0136565D01*
X0147153Y0134838D01*
X0148390Y0133600D01*
X0089240Y0133600D01*
X0088321Y0133219D01*
X0063901Y0108800D01*
X0061229Y0108800D01*
X0060763Y0109925D01*
X0058962Y0111726D01*
X0056610Y0112700D01*
X0054064Y0112700D01*
X0051712Y0111726D01*
X0049911Y0109925D01*
X0048937Y0107573D01*
X0048937Y0105027D01*
X0049911Y0102675D01*
X0051712Y0100874D01*
X0054064Y0099900D01*
X0056610Y0099900D01*
X0058962Y0100874D01*
X0060763Y0102675D01*
X0061229Y0103800D01*
X0065434Y0103800D01*
X0066353Y0104181D01*
X0090773Y0128600D01*
X0132790Y0128600D01*
X0130837Y0126647D01*
X0130837Y0122753D01*
X0132590Y0121000D01*
X0130437Y0118847D01*
X0130437Y0114953D01*
X0133190Y0112200D01*
X0137084Y0112200D01*
X0139837Y0114953D01*
X0139837Y0118847D01*
X0138084Y0120600D01*
X0140237Y0122753D01*
X0140237Y0126647D01*
X0138284Y0128600D01*
X0152790Y0128600D01*
X0150837Y0126647D01*
X0150837Y0122753D01*
X0153590Y0120000D01*
X0157484Y0120000D01*
X0160237Y0122753D01*
X0160237Y0126647D01*
X0158284Y0128600D01*
X0190590Y0128600D01*
X0189837Y0127847D01*
X0189837Y0124736D01*
X0174818Y0109716D01*
X0174437Y0108797D01*
X0174437Y0089003D01*
X0174818Y0088084D01*
X0175521Y0087381D01*
X0183246Y0079656D01*
X0181637Y0078047D01*
X0181637Y0076212D01*
X0177837Y0080116D01*
X0177837Y0081197D01*
X0177456Y0082116D01*
X0174256Y0085316D01*
X0173553Y0086019D01*
X0172634Y0086400D01*
X0171347Y0086400D01*
X0172037Y0088065D01*
X0172037Y0089935D01*
X0171321Y0091662D01*
X0169999Y0092984D01*
X0168272Y0093700D01*
X0161202Y0093700D01*
X0159475Y0092984D01*
X0158153Y0091662D01*
X0157437Y0089935D01*
X0157437Y0088065D01*
X0158127Y0086400D01*
X0138837Y0086400D01*
X0138837Y0089647D01*
X0136284Y0092200D01*
X0137084Y0092200D01*
X0139837Y0094953D01*
X0139837Y0098847D01*
X0137084Y0101600D01*
X0133190Y0101600D01*
X0130437Y0098847D01*
X0130437Y0094953D01*
X0132990Y0092400D01*
X0132190Y0092400D01*
X0129437Y0089647D01*
X0129437Y0085753D01*
X0131190Y0084000D01*
X0128237Y0084000D01*
X0128237Y0087647D01*
X0125484Y0090400D01*
X0121590Y0090400D01*
X0118837Y0087647D01*
X0118837Y0084000D01*
X0118637Y0084000D01*
X0118637Y0087247D01*
X0115884Y0090000D01*
X0111990Y0090000D01*
X0109237Y0087247D01*
X0109237Y0084000D01*
X0108637Y0084000D01*
X0108637Y0087247D01*
X0105884Y0090000D01*
X0101990Y0090000D01*
X0099237Y0087247D01*
X0099237Y0084000D01*
X0061487Y0084000D01*
X0061271Y0084217D01*
X0061737Y0085342D01*
X0061737Y0087888D01*
X0060763Y0090240D01*
X0058962Y0092041D01*
X0056610Y0093015D01*
X0054064Y0093015D01*
X0051712Y0092041D01*
X0049911Y0090240D01*
X0048937Y0087888D01*
X0048937Y0085342D01*
X0049911Y0082990D01*
X0051712Y0081189D01*
X0054064Y0080215D01*
X0056610Y0080215D01*
X0057735Y0080681D01*
X0058333Y0080084D01*
X0059036Y0079381D01*
X0059955Y0079000D01*
X0105990Y0079000D01*
X0104437Y0077447D01*
X0104437Y0073553D01*
X0107190Y0070800D01*
X0111084Y0070800D01*
X0113837Y0073553D01*
X0113837Y0077447D01*
X0112284Y0079000D01*
X0119390Y0079000D01*
X0118837Y0078447D01*
X0118837Y0074553D01*
X0121590Y0071800D01*
X0125484Y0071800D01*
X0128237Y0074553D01*
X0128237Y0078447D01*
X0127684Y0079000D01*
X0129437Y0079000D01*
X0129437Y0075753D01*
X0132190Y0073000D01*
X0136084Y0073000D01*
X0138837Y0075753D01*
X0138837Y0079647D01*
X0137528Y0080956D01*
X0137973Y0081400D01*
X0144190Y0081400D01*
X0143037Y0080247D01*
X0143037Y0076353D01*
X0145790Y0073600D01*
X0149684Y0073600D01*
X0151864Y0075780D01*
X0166233Y0075712D01*
X0166176Y0074308D01*
X0165484Y0075000D01*
X0161590Y0075000D01*
X0158837Y0072247D01*
X0158837Y0068353D01*
X0161590Y0065600D01*
X0164690Y0065600D01*
X0163837Y0064747D01*
X0163837Y0060853D01*
X0166590Y0058100D01*
X0169701Y0058100D01*
X0177318Y0050484D01*
X0178021Y0049781D01*
X0178940Y0049400D01*
X0202634Y0049400D01*
X0203553Y0049781D01*
X0204256Y0050484D01*
X0205573Y0051800D01*
X0208684Y0051800D01*
X0211437Y0054553D01*
X0211437Y0058447D01*
X0208684Y0061200D01*
X0204790Y0061200D01*
X0202037Y0058447D01*
X0202037Y0055336D01*
X0201101Y0054400D01*
X0191284Y0054400D01*
X0191437Y0054553D01*
X0191437Y0058447D01*
X0188684Y0061200D01*
X0184790Y0061200D01*
X0182037Y0058447D01*
X0182037Y0057407D01*
X0180966Y0057006D01*
X0175437Y0062536D01*
X0175437Y0064282D01*
X0175463Y0064358D01*
X0175437Y0064777D01*
X0175437Y0065197D01*
X0175407Y0065271D01*
X0175402Y0065350D01*
X0175280Y0065600D01*
X0175484Y0065600D01*
X0178237Y0068353D01*
X0178237Y0072247D01*
X0175484Y0075000D01*
X0171590Y0075000D01*
X0171192Y0074602D01*
X0171317Y0077648D01*
X0171335Y0077691D01*
X0171337Y0078143D01*
X0171355Y0078595D01*
X0171339Y0078639D01*
X0171339Y0078685D01*
X0171168Y0079104D01*
X0171012Y0079529D01*
X0170981Y0079563D01*
X0170963Y0079606D01*
X0170645Y0079927D01*
X0170338Y0080260D01*
X0170296Y0080279D01*
X0170263Y0080313D01*
X0169846Y0080488D01*
X0169436Y0080678D01*
X0169389Y0080680D01*
X0169346Y0080698D01*
X0168894Y0080700D01*
X0168442Y0080718D01*
X0168398Y0080702D01*
X0151904Y0080780D01*
X0151284Y0081400D01*
X0171101Y0081400D01*
X0172837Y0079664D01*
X0172837Y0079117D01*
X0172831Y0078637D01*
X0172837Y0078620D01*
X0172837Y0078603D01*
X0173021Y0078159D01*
X0173199Y0077713D01*
X0173211Y0077700D01*
X0173218Y0077684D01*
X0173557Y0077344D01*
X0180511Y0070200D01*
X0180518Y0070184D01*
X0180857Y0069844D01*
X0181192Y0069500D01*
X0181208Y0069493D01*
X0181221Y0069481D01*
X0181665Y0069297D01*
X0181960Y0069170D01*
X0181237Y0068447D01*
X0181237Y0064553D01*
X0183990Y0061800D01*
X0187884Y0061800D01*
X0190637Y0064553D01*
X0190637Y0068447D01*
X0189984Y0069100D01*
X0194159Y0069100D01*
X0194177Y0069093D01*
X0194656Y0069100D01*
X0195134Y0069100D01*
X0195152Y0069107D01*
X0195172Y0069108D01*
X0195611Y0069297D01*
X0196053Y0069481D01*
X0196067Y0069494D01*
X0196085Y0069502D01*
X0196418Y0069845D01*
X0196756Y0070184D01*
X0196764Y0070202D01*
X0196777Y0070216D01*
X0196954Y0070660D01*
X0197137Y0071103D01*
X0197137Y0071122D01*
X0197144Y0071140D01*
X0197137Y0071619D01*
X0197137Y0072097D01*
X0197130Y0072115D01*
X0197051Y0077400D01*
X0197896Y0078400D01*
X0201990Y0078400D01*
X0201637Y0078047D01*
X0201637Y0074153D01*
X0204390Y0071400D01*
X0208284Y0071400D01*
X0211037Y0074153D01*
X0211037Y0078047D01*
X0210684Y0078400D01*
X0225814Y0078400D01*
X0225982Y0078356D01*
X0226306Y0078400D01*
X0226634Y0078400D01*
X0226795Y0078467D01*
X0226967Y0078490D01*
X0227250Y0078655D01*
X0227553Y0078781D01*
X0227676Y0078904D01*
X0228567Y0079423D01*
X0228990Y0079000D01*
X0232884Y0079000D01*
X0235637Y0081753D01*
X0235637Y0085647D01*
X0232884Y0088400D01*
X0228990Y0088400D01*
X0226237Y0085647D01*
X0226237Y0083853D01*
X0225461Y0083400D01*
X0211284Y0083400D01*
X0212037Y0084153D01*
X0212037Y0088047D01*
X0209284Y0090800D01*
X0205390Y0090800D01*
X0202637Y0088047D01*
X0202637Y0084153D01*
X0203390Y0083400D01*
X0197127Y0083400D01*
X0197025Y0083433D01*
X0196633Y0083400D01*
X0196240Y0083400D01*
X0196141Y0083359D01*
X0196034Y0083350D01*
X0195684Y0083170D01*
X0195321Y0083019D01*
X0195245Y0082944D01*
X0195150Y0082894D01*
X0194896Y0082594D01*
X0194618Y0082316D01*
X0194577Y0082217D01*
X0192684Y0079980D01*
X0192397Y0079684D01*
X0192364Y0079602D01*
X0192307Y0079535D01*
X0192182Y0079143D01*
X0192030Y0078760D01*
X0192031Y0078672D01*
X0192004Y0078588D01*
X0192039Y0078177D01*
X0192099Y0074100D01*
X0190984Y0074100D01*
X0191037Y0074153D01*
X0191037Y0078047D01*
X0188837Y0080247D01*
X0188837Y0080597D01*
X0188456Y0081516D01*
X0179437Y0090536D01*
X0179437Y0107264D01*
X0193373Y0121200D01*
X0196484Y0121200D01*
X0199237Y0123953D01*
X0199237Y0127847D01*
X0198484Y0128600D01*
X0217501Y0128600D01*
X0220501Y0125600D01*
X0216990Y0125600D01*
X0214237Y0122847D01*
X0214237Y0118953D01*
X0215690Y0117500D01*
X0214553Y0116362D01*
X0213837Y0114635D01*
X0213837Y0107565D01*
X0214553Y0105838D01*
X0215875Y0104516D01*
X0217602Y0103800D01*
X0219472Y0103800D01*
X0221199Y0104516D01*
X0222521Y0105838D01*
X0223237Y0107565D01*
X0223237Y0114635D01*
X0222521Y0116362D01*
X0221784Y0117100D01*
X0223237Y0118553D01*
X0223237Y0108403D01*
X0223618Y0107484D01*
X0224321Y0106781D01*
X0226237Y0104864D01*
X0226237Y0101753D01*
X0228990Y0099000D01*
X0232884Y0099000D01*
X0235637Y0101753D01*
X0235637Y0105647D01*
X0233084Y0108200D01*
X0233684Y0108200D01*
X0236437Y0110953D01*
X0236437Y0114847D01*
X0233684Y0117600D01*
X0229790Y0117600D01*
X0228237Y0116047D01*
X0228237Y0119753D01*
X0229790Y0118200D01*
X0233684Y0118200D01*
X0236437Y0120953D01*
X0236437Y0124847D01*
X0233684Y0127600D01*
X0229790Y0127600D01*
X0227681Y0125491D01*
X0227153Y0126019D01*
X0219953Y0133219D01*
X0219034Y0133600D01*
X0211637Y0133600D01*
X0211637Y0137247D01*
X0208884Y0140000D01*
X0204990Y0140000D01*
X0202237Y0137247D01*
X0202237Y0133600D01*
X0199084Y0133600D01*
X0200321Y0134838D01*
X0201037Y0136565D01*
X0201037Y0138435D01*
X0200321Y0140162D01*
X0198999Y0141484D01*
X0197272Y0142200D01*
X0199583Y0140901D02*
X0214237Y0140901D01*
X0214237Y0139902D02*
X0208982Y0139902D01*
X0209980Y0138903D02*
X0214287Y0138903D01*
X0215285Y0137905D02*
X0210979Y0137905D01*
X0211637Y0136906D02*
X0216284Y0136906D01*
X0211637Y0135908D02*
X0233698Y0135908D01*
X0233237Y0135447D02*
X0233237Y0131553D01*
X0235990Y0128800D01*
X0239884Y0128800D01*
X0242637Y0131553D01*
X0242637Y0135447D01*
X0239884Y0138200D01*
X0235990Y0138200D01*
X0233237Y0135447D01*
X0233237Y0134909D02*
X0211637Y0134909D01*
X0211637Y0133911D02*
X0233237Y0133911D01*
X0233237Y0132912D02*
X0220260Y0132912D01*
X0221259Y0131914D02*
X0233237Y0131914D01*
X0233875Y0130915D02*
X0222257Y0130915D01*
X0223256Y0129917D02*
X0234873Y0129917D01*
X0235872Y0128918D02*
X0224254Y0128918D01*
X0225253Y0127920D02*
X0262810Y0127920D01*
X0263190Y0128800D02*
X0263690Y0128800D01*
X0261037Y0126147D01*
X0261037Y0122253D01*
X0261890Y0121400D01*
X0258790Y0121400D01*
X0256037Y0118647D01*
X0256037Y0114753D01*
X0258790Y0112000D01*
X0262684Y0112000D01*
X0265437Y0114753D01*
X0265437Y0118647D01*
X0264584Y0119500D01*
X0266890Y0119500D01*
X0266037Y0118647D01*
X0266037Y0114753D01*
X0268790Y0112000D01*
X0272684Y0112000D01*
X0275437Y0114753D01*
X0275437Y0118647D01*
X0272684Y0121400D01*
X0269584Y0121400D01*
X0270437Y0122253D01*
X0270437Y0126147D01*
X0267684Y0128900D01*
X0267184Y0128900D01*
X0269837Y0131553D01*
X0269837Y0135447D01*
X0267084Y0138200D01*
X0263190Y0138200D01*
X0261537Y0136547D01*
X0259884Y0138200D01*
X0255990Y0138200D01*
X0253237Y0135447D01*
X0253237Y0131553D01*
X0255990Y0128800D01*
X0259884Y0128800D01*
X0261537Y0130453D01*
X0263190Y0128800D01*
X0263072Y0128918D02*
X0260002Y0128918D01*
X0261001Y0129917D02*
X0262073Y0129917D01*
X0267202Y0128918D02*
X0283072Y0128918D01*
X0283190Y0128800D02*
X0280437Y0131553D01*
X0280437Y0135447D01*
X0283190Y0138200D01*
X0287084Y0138200D01*
X0289837Y0135447D01*
X0289837Y0131553D01*
X0287084Y0128800D01*
X0283190Y0128800D01*
X0281790Y0128200D02*
X0279037Y0125447D01*
X0279037Y0121553D01*
X0281790Y0118800D01*
X0285684Y0118800D01*
X0288437Y0121553D01*
X0288437Y0125447D01*
X0285684Y0128200D01*
X0281790Y0128200D01*
X0281510Y0127920D02*
X0268664Y0127920D01*
X0269662Y0126921D02*
X0280512Y0126921D01*
X0279513Y0125923D02*
X0270437Y0125923D01*
X0270437Y0124924D02*
X0279037Y0124924D01*
X0279037Y0123926D02*
X0270437Y0123926D01*
X0270437Y0122927D02*
X0279037Y0122927D01*
X0279037Y0121929D02*
X0270113Y0121929D01*
X0273153Y0120930D02*
X0279660Y0120930D01*
X0280658Y0119932D02*
X0274152Y0119932D01*
X0275151Y0118933D02*
X0281657Y0118933D01*
X0281790Y0118200D02*
X0279037Y0115447D01*
X0279037Y0111553D01*
X0281790Y0108800D01*
X0285684Y0108800D01*
X0288437Y0111553D01*
X0288437Y0115447D01*
X0285684Y0118200D01*
X0281790Y0118200D01*
X0281525Y0117935D02*
X0275437Y0117935D01*
X0275437Y0116936D02*
X0280526Y0116936D01*
X0279528Y0115938D02*
X0275437Y0115938D01*
X0275437Y0114939D02*
X0279037Y0114939D01*
X0279037Y0113941D02*
X0274625Y0113941D01*
X0273626Y0112942D02*
X0279037Y0112942D01*
X0279037Y0111944D02*
X0250837Y0111944D01*
X0250837Y0112942D02*
X0257848Y0112942D01*
X0256849Y0113941D02*
X0250837Y0113941D01*
X0250837Y0114647D02*
X0248084Y0117400D01*
X0244190Y0117400D01*
X0241437Y0114647D01*
X0241437Y0110753D01*
X0244190Y0108000D01*
X0248084Y0108000D01*
X0250837Y0110753D01*
X0250837Y0114647D01*
X0250545Y0114939D02*
X0256037Y0114939D01*
X0256037Y0115938D02*
X0249546Y0115938D01*
X0248548Y0116936D02*
X0256037Y0116936D01*
X0256037Y0117935D02*
X0228237Y0117935D01*
X0228237Y0118933D02*
X0229057Y0118933D01*
X0229126Y0116936D02*
X0228237Y0116936D01*
X0234348Y0116936D02*
X0243726Y0116936D01*
X0244190Y0118000D02*
X0248084Y0118000D01*
X0250837Y0120753D01*
X0250837Y0124647D01*
X0248084Y0127400D01*
X0244190Y0127400D01*
X0241437Y0124647D01*
X0241437Y0120753D01*
X0244190Y0118000D01*
X0243257Y0118933D02*
X0234417Y0118933D01*
X0235416Y0119932D02*
X0242258Y0119932D01*
X0241437Y0120930D02*
X0236414Y0120930D01*
X0236437Y0121929D02*
X0241437Y0121929D01*
X0241437Y0122927D02*
X0236437Y0122927D01*
X0236437Y0123926D02*
X0241437Y0123926D01*
X0241715Y0124924D02*
X0236359Y0124924D01*
X0235361Y0125923D02*
X0242713Y0125923D01*
X0243712Y0126921D02*
X0234362Y0126921D01*
X0229112Y0126921D02*
X0226251Y0126921D01*
X0227250Y0125923D02*
X0228113Y0125923D01*
X0220179Y0125923D02*
X0199237Y0125923D01*
X0199237Y0126921D02*
X0219180Y0126921D01*
X0218182Y0127920D02*
X0199164Y0127920D01*
X0199237Y0124924D02*
X0216315Y0124924D01*
X0215316Y0123926D02*
X0199210Y0123926D01*
X0198211Y0122927D02*
X0214318Y0122927D01*
X0214237Y0121929D02*
X0197213Y0121929D01*
X0193103Y0120930D02*
X0214237Y0120930D01*
X0214237Y0119932D02*
X0208952Y0119932D01*
X0208884Y0120000D02*
X0204990Y0120000D01*
X0202237Y0117247D01*
X0202237Y0113353D01*
X0204990Y0110600D01*
X0205190Y0110600D01*
X0202637Y0108047D01*
X0202637Y0104153D01*
X0205390Y0101400D01*
X0209284Y0101400D01*
X0212037Y0104153D01*
X0212037Y0108047D01*
X0209284Y0110800D01*
X0209084Y0110800D01*
X0211637Y0113353D01*
X0211637Y0117247D01*
X0208884Y0120000D01*
X0209951Y0118933D02*
X0214257Y0118933D01*
X0215255Y0117935D02*
X0210949Y0117935D01*
X0211637Y0116936D02*
X0215126Y0116936D01*
X0214377Y0115938D02*
X0211637Y0115938D01*
X0211637Y0114939D02*
X0213963Y0114939D01*
X0213837Y0113941D02*
X0211637Y0113941D01*
X0211226Y0112942D02*
X0213837Y0112942D01*
X0213837Y0111944D02*
X0210227Y0111944D01*
X0209229Y0110945D02*
X0213837Y0110945D01*
X0213837Y0109947D02*
X0210137Y0109947D01*
X0211136Y0108948D02*
X0213837Y0108948D01*
X0213837Y0107950D02*
X0212037Y0107950D01*
X0212037Y0106951D02*
X0214091Y0106951D01*
X0214505Y0105953D02*
X0212037Y0105953D01*
X0212037Y0104954D02*
X0215436Y0104954D01*
X0217226Y0103956D02*
X0211839Y0103956D01*
X0210841Y0102957D02*
X0226237Y0102957D01*
X0226237Y0101959D02*
X0209842Y0101959D01*
X0204832Y0101959D02*
X0197242Y0101959D01*
X0196484Y0101200D02*
X0199237Y0103953D01*
X0199237Y0107847D01*
X0196484Y0110600D01*
X0192590Y0110600D01*
X0189837Y0107847D01*
X0189837Y0103953D01*
X0192590Y0101200D01*
X0196484Y0101200D01*
X0198241Y0102957D02*
X0203833Y0102957D01*
X0202835Y0103956D02*
X0199237Y0103956D01*
X0199237Y0104954D02*
X0202637Y0104954D01*
X0202637Y0105953D02*
X0199237Y0105953D01*
X0199237Y0106951D02*
X0202637Y0106951D01*
X0202637Y0107950D02*
X0199134Y0107950D01*
X0198136Y0108948D02*
X0203538Y0108948D01*
X0204537Y0109947D02*
X0197137Y0109947D01*
X0191937Y0109947D02*
X0182119Y0109947D01*
X0183118Y0110945D02*
X0204645Y0110945D01*
X0203647Y0111944D02*
X0184116Y0111944D01*
X0185115Y0112942D02*
X0202648Y0112942D01*
X0202237Y0113941D02*
X0186113Y0113941D01*
X0187112Y0114939D02*
X0202237Y0114939D01*
X0202237Y0115938D02*
X0188110Y0115938D01*
X0189109Y0116936D02*
X0202237Y0116936D01*
X0202925Y0117935D02*
X0190107Y0117935D01*
X0191106Y0118933D02*
X0203923Y0118933D01*
X0204922Y0119932D02*
X0192104Y0119932D01*
X0187030Y0121929D02*
X0159413Y0121929D01*
X0160237Y0122927D02*
X0188029Y0122927D01*
X0189027Y0123926D02*
X0160237Y0123926D01*
X0160237Y0124924D02*
X0189837Y0124924D01*
X0189837Y0125923D02*
X0160237Y0125923D01*
X0159962Y0126921D02*
X0189837Y0126921D01*
X0189910Y0127920D02*
X0158964Y0127920D01*
X0152110Y0127920D02*
X0138964Y0127920D01*
X0139962Y0126921D02*
X0151112Y0126921D01*
X0150837Y0125923D02*
X0140237Y0125923D01*
X0140237Y0124924D02*
X0150837Y0124924D01*
X0150837Y0123926D02*
X0140237Y0123926D01*
X0140237Y0122927D02*
X0150837Y0122927D01*
X0151661Y0121929D02*
X0139413Y0121929D01*
X0138414Y0120930D02*
X0152660Y0120930D01*
X0158414Y0120930D02*
X0186032Y0120930D01*
X0185033Y0119932D02*
X0138752Y0119932D01*
X0139751Y0118933D02*
X0184035Y0118933D01*
X0183036Y0117935D02*
X0139837Y0117935D01*
X0139837Y0116936D02*
X0182038Y0116936D01*
X0181039Y0115938D02*
X0148346Y0115938D01*
X0148284Y0116000D02*
X0144390Y0116000D01*
X0141637Y0113247D01*
X0141637Y0109353D01*
X0144390Y0106600D01*
X0148284Y0106600D01*
X0151037Y0109353D01*
X0151037Y0113247D01*
X0148284Y0116000D01*
X0149345Y0114939D02*
X0180041Y0114939D01*
X0179042Y0113941D02*
X0150343Y0113941D01*
X0151037Y0112942D02*
X0178044Y0112942D01*
X0177045Y0111944D02*
X0151037Y0111944D01*
X0151037Y0110945D02*
X0176047Y0110945D01*
X0175048Y0109947D02*
X0151037Y0109947D01*
X0150632Y0108948D02*
X0174500Y0108948D01*
X0174437Y0107950D02*
X0170034Y0107950D01*
X0169999Y0107984D02*
X0168272Y0108700D01*
X0161202Y0108700D01*
X0159475Y0107984D01*
X0158153Y0106662D01*
X0157437Y0104935D01*
X0157437Y0103065D01*
X0158153Y0101338D01*
X0159475Y0100016D01*
X0161202Y0099300D01*
X0168272Y0099300D01*
X0169999Y0100016D01*
X0171321Y0101338D01*
X0172037Y0103065D01*
X0172037Y0104935D01*
X0171321Y0106662D01*
X0169999Y0107984D01*
X0171033Y0106951D02*
X0174437Y0106951D01*
X0174437Y0105953D02*
X0171615Y0105953D01*
X0172029Y0104954D02*
X0174437Y0104954D01*
X0174437Y0103956D02*
X0172037Y0103956D01*
X0171992Y0102957D02*
X0174437Y0102957D01*
X0174437Y0101959D02*
X0171579Y0101959D01*
X0170944Y0100960D02*
X0174437Y0100960D01*
X0174437Y0099962D02*
X0169869Y0099962D01*
X0174437Y0098963D02*
X0139721Y0098963D01*
X0139837Y0097965D02*
X0174437Y0097965D01*
X0174437Y0096966D02*
X0139837Y0096966D01*
X0139837Y0095968D02*
X0144358Y0095968D01*
X0144390Y0096000D02*
X0141637Y0093247D01*
X0141637Y0089353D01*
X0144390Y0086600D01*
X0148284Y0086600D01*
X0151037Y0089353D01*
X0151037Y0093247D01*
X0148284Y0096000D01*
X0144390Y0096000D01*
X0143359Y0094969D02*
X0139837Y0094969D01*
X0138854Y0093970D02*
X0142361Y0093970D01*
X0141637Y0092972D02*
X0137856Y0092972D01*
X0136510Y0091973D02*
X0141637Y0091973D01*
X0141637Y0090975D02*
X0137509Y0090975D01*
X0138507Y0089976D02*
X0141637Y0089976D01*
X0142012Y0088978D02*
X0138837Y0088978D01*
X0138837Y0087979D02*
X0143011Y0087979D01*
X0144009Y0086981D02*
X0138837Y0086981D01*
X0130206Y0084984D02*
X0128237Y0084984D01*
X0128237Y0085982D02*
X0129437Y0085982D01*
X0129437Y0086981D02*
X0128237Y0086981D01*
X0127904Y0087979D02*
X0129437Y0087979D01*
X0129437Y0088978D02*
X0126906Y0088978D01*
X0125907Y0089976D02*
X0129767Y0089976D01*
X0130765Y0090975D02*
X0097237Y0090975D01*
X0097237Y0091973D02*
X0131764Y0091973D01*
X0132418Y0092972D02*
X0096712Y0092972D01*
X0097237Y0092447D02*
X0095084Y0094600D01*
X0097037Y0096553D01*
X0097037Y0100447D01*
X0094284Y0103200D01*
X0090390Y0103200D01*
X0087637Y0100447D01*
X0087637Y0096553D01*
X0089790Y0094400D01*
X0087837Y0092447D01*
X0087837Y0088553D01*
X0090590Y0085800D01*
X0094484Y0085800D01*
X0097237Y0088553D01*
X0097237Y0092447D01*
X0095713Y0093970D02*
X0131420Y0093970D01*
X0130437Y0094969D02*
X0095453Y0094969D01*
X0096451Y0095968D02*
X0130437Y0095968D01*
X0130437Y0096966D02*
X0097037Y0096966D01*
X0097037Y0097965D02*
X0130437Y0097965D01*
X0130553Y0098963D02*
X0097037Y0098963D01*
X0097037Y0099962D02*
X0131552Y0099962D01*
X0132550Y0100960D02*
X0116244Y0100960D01*
X0115884Y0100600D02*
X0118637Y0103353D01*
X0118637Y0107247D01*
X0115884Y0110000D01*
X0111990Y0110000D01*
X0109237Y0107247D01*
X0109237Y0103353D01*
X0111990Y0100600D01*
X0115884Y0100600D01*
X0117242Y0101959D02*
X0120632Y0101959D01*
X0121590Y0101000D02*
X0125484Y0101000D01*
X0128237Y0103753D01*
X0128237Y0107647D01*
X0126184Y0109700D01*
X0128237Y0111753D01*
X0128237Y0115647D01*
X0125484Y0118400D01*
X0121590Y0118400D01*
X0118837Y0115647D01*
X0118837Y0111753D01*
X0120890Y0109700D01*
X0118837Y0107647D01*
X0118837Y0103753D01*
X0121590Y0101000D01*
X0119633Y0102957D02*
X0118241Y0102957D01*
X0118637Y0103956D02*
X0118837Y0103956D01*
X0118837Y0104954D02*
X0118637Y0104954D01*
X0118637Y0105953D02*
X0118837Y0105953D01*
X0118837Y0106951D02*
X0118637Y0106951D01*
X0119140Y0107950D02*
X0117934Y0107950D01*
X0116936Y0108948D02*
X0120138Y0108948D01*
X0120644Y0109947D02*
X0115937Y0109947D01*
X0119645Y0110945D02*
X0107429Y0110945D01*
X0108237Y0111753D02*
X0106184Y0109700D01*
X0108637Y0107247D01*
X0108637Y0103353D01*
X0105884Y0100600D01*
X0101990Y0100600D01*
X0099237Y0103353D01*
X0099237Y0107247D01*
X0101290Y0109300D01*
X0098837Y0111753D01*
X0098837Y0115647D01*
X0101590Y0118400D01*
X0105484Y0118400D01*
X0108237Y0115647D01*
X0108237Y0111753D01*
X0108237Y0111944D02*
X0118837Y0111944D01*
X0118837Y0112942D02*
X0108237Y0112942D01*
X0108237Y0113941D02*
X0118837Y0113941D01*
X0118837Y0114939D02*
X0108237Y0114939D01*
X0107946Y0115938D02*
X0119128Y0115938D01*
X0120126Y0116936D02*
X0106948Y0116936D01*
X0105949Y0117935D02*
X0121125Y0117935D01*
X0125949Y0117935D02*
X0130437Y0117935D01*
X0130437Y0116936D02*
X0126948Y0116936D01*
X0127946Y0115938D02*
X0130437Y0115938D01*
X0130451Y0114939D02*
X0128237Y0114939D01*
X0128237Y0113941D02*
X0131449Y0113941D01*
X0132448Y0112942D02*
X0128237Y0112942D01*
X0128237Y0111944D02*
X0141637Y0111944D01*
X0141637Y0112942D02*
X0137826Y0112942D01*
X0138825Y0113941D02*
X0142331Y0113941D01*
X0143329Y0114939D02*
X0139823Y0114939D01*
X0139837Y0115938D02*
X0144328Y0115938D01*
X0141637Y0110945D02*
X0127429Y0110945D01*
X0126430Y0109947D02*
X0141637Y0109947D01*
X0142042Y0108948D02*
X0126936Y0108948D01*
X0127934Y0107950D02*
X0143041Y0107950D01*
X0144039Y0106951D02*
X0128237Y0106951D01*
X0128237Y0105953D02*
X0157859Y0105953D01*
X0157445Y0104954D02*
X0128237Y0104954D01*
X0128237Y0103956D02*
X0157437Y0103956D01*
X0157482Y0102957D02*
X0127441Y0102957D01*
X0126442Y0101959D02*
X0157895Y0101959D01*
X0158530Y0100960D02*
X0137724Y0100960D01*
X0138722Y0099962D02*
X0159605Y0099962D01*
X0149315Y0094969D02*
X0174437Y0094969D01*
X0174437Y0095968D02*
X0148316Y0095968D01*
X0150313Y0093970D02*
X0174437Y0093970D01*
X0174437Y0092972D02*
X0170012Y0092972D01*
X0171010Y0091973D02*
X0174437Y0091973D01*
X0174437Y0090975D02*
X0171606Y0090975D01*
X0172020Y0089976D02*
X0174437Y0089976D01*
X0174447Y0088978D02*
X0172037Y0088978D01*
X0172002Y0087979D02*
X0174922Y0087979D01*
X0175921Y0086981D02*
X0171588Y0086981D01*
X0173590Y0085982D02*
X0176919Y0085982D01*
X0177918Y0084984D02*
X0174589Y0084984D01*
X0175587Y0083985D02*
X0178916Y0083985D01*
X0179915Y0082987D02*
X0176586Y0082987D01*
X0177509Y0081988D02*
X0180913Y0081988D01*
X0181912Y0080990D02*
X0177837Y0080990D01*
X0177958Y0079991D02*
X0182910Y0079991D01*
X0182583Y0078993D02*
X0178930Y0078993D01*
X0179902Y0077994D02*
X0181637Y0077994D01*
X0181637Y0076996D02*
X0180874Y0076996D01*
X0176812Y0074000D02*
X0176484Y0074000D01*
X0175840Y0074999D02*
X0175485Y0074999D01*
X0174868Y0075997D02*
X0171249Y0075997D01*
X0171208Y0074999D02*
X0171589Y0074999D01*
X0171290Y0076996D02*
X0173896Y0076996D01*
X0173086Y0077994D02*
X0171336Y0077994D01*
X0171214Y0078993D02*
X0172835Y0078993D01*
X0172510Y0079991D02*
X0170586Y0079991D01*
X0171512Y0080990D02*
X0151694Y0080990D01*
X0143780Y0080990D02*
X0137562Y0080990D01*
X0138492Y0079991D02*
X0143037Y0079991D01*
X0143037Y0078993D02*
X0138837Y0078993D01*
X0138837Y0077994D02*
X0143037Y0077994D01*
X0143037Y0076996D02*
X0138837Y0076996D01*
X0138837Y0075997D02*
X0143393Y0075997D01*
X0144391Y0074999D02*
X0138083Y0074999D01*
X0137084Y0074000D02*
X0145390Y0074000D01*
X0145790Y0073000D02*
X0143037Y0070247D01*
X0143037Y0066353D01*
X0145790Y0063600D01*
X0149684Y0063600D01*
X0152437Y0066353D01*
X0152437Y0070247D01*
X0149684Y0073000D01*
X0145790Y0073000D01*
X0144793Y0072003D02*
X0125687Y0072003D01*
X0126686Y0073002D02*
X0132188Y0073002D01*
X0131190Y0074000D02*
X0127684Y0074000D01*
X0128237Y0074999D02*
X0130191Y0074999D01*
X0129437Y0075997D02*
X0128237Y0075997D01*
X0128237Y0076996D02*
X0129437Y0076996D01*
X0129437Y0077994D02*
X0128237Y0077994D01*
X0127691Y0078993D02*
X0129437Y0078993D01*
X0136086Y0073002D02*
X0159592Y0073002D01*
X0158837Y0072003D02*
X0150681Y0072003D01*
X0151679Y0071005D02*
X0158837Y0071005D01*
X0158837Y0070006D02*
X0152437Y0070006D01*
X0152437Y0069008D02*
X0158837Y0069008D01*
X0159181Y0068009D02*
X0152437Y0068009D01*
X0152437Y0067011D02*
X0160180Y0067011D01*
X0161178Y0066012D02*
X0152096Y0066012D01*
X0151097Y0065014D02*
X0164104Y0065014D01*
X0163837Y0064015D02*
X0150099Y0064015D01*
X0145375Y0064015D02*
X0139157Y0064015D01*
X0138837Y0064336D02*
X0138837Y0067447D01*
X0136084Y0070200D01*
X0132190Y0070200D01*
X0129437Y0067447D01*
X0129437Y0063553D01*
X0132190Y0060800D01*
X0135301Y0060800D01*
X0135901Y0060200D01*
X0132190Y0060200D01*
X0132181Y0060191D01*
X0129553Y0062819D01*
X0128634Y0063200D01*
X0103373Y0063200D01*
X0097237Y0069336D01*
X0097237Y0072447D01*
X0094484Y0075200D01*
X0090590Y0075200D01*
X0087837Y0072447D01*
X0087837Y0068553D01*
X0090590Y0065800D01*
X0093701Y0065800D01*
X0100218Y0059284D01*
X0100921Y0058581D01*
X0101840Y0058200D01*
X0105190Y0058200D01*
X0104437Y0057447D01*
X0104437Y0053553D01*
X0107190Y0050800D01*
X0111084Y0050800D01*
X0113837Y0053553D01*
X0113837Y0057447D01*
X0113084Y0058200D01*
X0118837Y0058200D01*
X0118837Y0054553D01*
X0121290Y0052100D01*
X0119237Y0050047D01*
X0119237Y0046153D01*
X0121990Y0043400D01*
X0125884Y0043400D01*
X0128637Y0046153D01*
X0128637Y0050047D01*
X0126184Y0052500D01*
X0128237Y0054553D01*
X0128237Y0057064D01*
X0129437Y0055864D01*
X0129437Y0053553D01*
X0132190Y0050800D01*
X0136084Y0050800D01*
X0138837Y0053553D01*
X0138837Y0057447D01*
X0137832Y0058452D01*
X0138440Y0058200D01*
X0144225Y0058200D01*
X0142237Y0056212D01*
X0142237Y0051988D01*
X0145225Y0049000D01*
X0149449Y0049000D01*
X0152437Y0051988D01*
X0152437Y0056212D01*
X0150449Y0058200D01*
X0159098Y0058200D01*
X0164177Y0053100D01*
X0158802Y0053100D01*
X0157075Y0052384D01*
X0155753Y0051062D01*
X0155037Y0049335D01*
X0155037Y0047465D01*
X0155753Y0045738D01*
X0157075Y0044416D01*
X0158802Y0043700D01*
X0163501Y0043700D01*
X0183118Y0024084D01*
X0183821Y0023381D01*
X0183927Y0023337D01*
X0183037Y0022447D01*
X0183037Y0018553D01*
X0185790Y0015800D01*
X0189684Y0015800D01*
X0192437Y0018553D01*
X0192437Y0022447D01*
X0191884Y0023000D01*
X0205434Y0023000D01*
X0206353Y0023381D01*
X0206373Y0023400D01*
X0208690Y0023400D01*
X0207837Y0022547D01*
X0207837Y0018653D01*
X0210590Y0015900D01*
X0214484Y0015900D01*
X0217237Y0018653D01*
X0217237Y0022547D01*
X0216384Y0023400D01*
X0219484Y0023400D01*
X0222237Y0026153D01*
X0222237Y0030047D01*
X0219484Y0032800D01*
X0215590Y0032800D01*
X0212837Y0030047D01*
X0212837Y0026153D01*
X0213690Y0025300D01*
X0211384Y0025300D01*
X0212237Y0026153D01*
X0212237Y0030047D01*
X0209484Y0032800D01*
X0205590Y0032800D01*
X0202837Y0030047D01*
X0202837Y0028000D01*
X0191884Y0028000D01*
X0192437Y0028553D01*
X0192437Y0032447D01*
X0190456Y0034427D01*
X0214293Y0034895D01*
X0214492Y0034851D01*
X0214785Y0034904D01*
X0215083Y0034910D01*
X0215270Y0034992D01*
X0215471Y0035028D01*
X0215721Y0035189D01*
X0215994Y0035309D01*
X0216136Y0035456D01*
X0216500Y0035690D01*
X0216790Y0035400D01*
X0220684Y0035400D01*
X0223437Y0038153D01*
X0223437Y0042047D01*
X0220684Y0044800D01*
X0216790Y0044800D01*
X0214037Y0042047D01*
X0214037Y0040051D01*
X0209535Y0040051D01*
X0209484Y0040000D02*
X0212237Y0042753D01*
X0212237Y0046647D01*
X0209484Y0049400D01*
X0205590Y0049400D01*
X0202837Y0046647D01*
X0202837Y0042753D01*
X0205590Y0040000D01*
X0209484Y0040000D01*
X0210533Y0041049D02*
X0214037Y0041049D01*
X0214037Y0040051D02*
X0213780Y0039886D01*
X0184955Y0039320D01*
X0162257Y0062114D01*
X0162256Y0062116D01*
X0161906Y0062467D01*
X0161558Y0062816D01*
X0161555Y0062817D01*
X0161553Y0062819D01*
X0161096Y0063009D01*
X0160640Y0063199D01*
X0160637Y0063199D01*
X0160634Y0063200D01*
X0160139Y0063200D01*
X0159645Y0063201D01*
X0159642Y0063200D01*
X0139973Y0063200D01*
X0138837Y0064336D01*
X0138837Y0065014D02*
X0144377Y0065014D01*
X0143378Y0066012D02*
X0138837Y0066012D01*
X0138837Y0067011D02*
X0143037Y0067011D01*
X0143037Y0068009D02*
X0138275Y0068009D01*
X0137276Y0069008D02*
X0143037Y0069008D01*
X0143037Y0070006D02*
X0136278Y0070006D01*
X0131996Y0070006D02*
X0097237Y0070006D01*
X0097237Y0071005D02*
X0106985Y0071005D01*
X0105987Y0072003D02*
X0097237Y0072003D01*
X0096682Y0073002D02*
X0104988Y0073002D01*
X0104437Y0074000D02*
X0095684Y0074000D01*
X0094685Y0074999D02*
X0104437Y0074999D01*
X0104437Y0075997D02*
X0040937Y0075997D01*
X0040937Y0074999D02*
X0090389Y0074999D01*
X0089390Y0074000D02*
X0040937Y0074000D01*
X0040937Y0073002D02*
X0088392Y0073002D01*
X0087837Y0072003D02*
X0040937Y0072003D01*
X0040937Y0071005D02*
X0087837Y0071005D01*
X0087837Y0070006D02*
X0040937Y0070006D01*
X0040937Y0069008D02*
X0087837Y0069008D01*
X0088381Y0068009D02*
X0040937Y0068009D01*
X0040937Y0067011D02*
X0089380Y0067011D01*
X0090378Y0066012D02*
X0040937Y0066012D01*
X0040937Y0065014D02*
X0094488Y0065014D01*
X0095486Y0064015D02*
X0040937Y0064015D01*
X0040937Y0063017D02*
X0096485Y0063017D01*
X0097483Y0062018D02*
X0040937Y0062018D01*
X0040937Y0061020D02*
X0098482Y0061020D01*
X0099480Y0060021D02*
X0040937Y0060021D01*
X0040937Y0059023D02*
X0100479Y0059023D01*
X0105014Y0058024D02*
X0040937Y0058024D01*
X0040937Y0057026D02*
X0104437Y0057026D01*
X0104437Y0056027D02*
X0040937Y0056027D01*
X0040937Y0055029D02*
X0104437Y0055029D01*
X0104437Y0054030D02*
X0091691Y0054030D01*
X0091959Y0053919D02*
X0089349Y0055000D01*
X0086525Y0055000D01*
X0083915Y0053919D01*
X0081918Y0051922D01*
X0080837Y0049312D01*
X0080837Y0046488D01*
X0081918Y0043878D01*
X0083915Y0041881D01*
X0086525Y0040800D01*
X0089349Y0040800D01*
X0091959Y0041881D01*
X0093956Y0043878D01*
X0095037Y0046488D01*
X0095037Y0049312D01*
X0093956Y0051922D01*
X0091959Y0053919D01*
X0092846Y0053032D02*
X0104959Y0053032D01*
X0105957Y0052033D02*
X0093845Y0052033D01*
X0094324Y0051034D02*
X0106956Y0051034D01*
X0106990Y0048200D02*
X0104237Y0045447D01*
X0104237Y0041553D01*
X0106990Y0038800D01*
X0110884Y0038800D01*
X0113637Y0041553D01*
X0113637Y0045447D01*
X0110884Y0048200D01*
X0106990Y0048200D01*
X0106829Y0048039D02*
X0095037Y0048039D01*
X0095037Y0049037D02*
X0119237Y0049037D01*
X0119237Y0048039D02*
X0111045Y0048039D01*
X0112043Y0047040D02*
X0119237Y0047040D01*
X0119348Y0046042D02*
X0113042Y0046042D01*
X0113637Y0045043D02*
X0120347Y0045043D01*
X0121345Y0044045D02*
X0113637Y0044045D01*
X0113637Y0043046D02*
X0133837Y0043046D01*
X0133837Y0042153D02*
X0136590Y0039400D01*
X0140484Y0039400D01*
X0143237Y0042153D01*
X0143237Y0046047D01*
X0140484Y0048800D01*
X0136590Y0048800D01*
X0133837Y0046047D01*
X0133837Y0042153D01*
X0133942Y0042048D02*
X0113637Y0042048D01*
X0113133Y0041049D02*
X0134941Y0041049D01*
X0135939Y0040051D02*
X0112135Y0040051D01*
X0111136Y0039052D02*
X0168149Y0039052D01*
X0169148Y0038054D02*
X0165983Y0038054D01*
X0165872Y0038100D02*
X0167599Y0037384D01*
X0168921Y0036062D01*
X0169637Y0034335D01*
X0169637Y0032465D01*
X0168921Y0030738D01*
X0167599Y0029416D01*
X0165872Y0028700D01*
X0158802Y0028700D01*
X0157075Y0029416D01*
X0155753Y0030738D01*
X0155037Y0032465D01*
X0155037Y0034335D01*
X0155753Y0036062D01*
X0157075Y0037384D01*
X0158802Y0038100D01*
X0165872Y0038100D01*
X0167928Y0037055D02*
X0170146Y0037055D01*
X0171145Y0036057D02*
X0168924Y0036057D01*
X0169337Y0035058D02*
X0172143Y0035058D01*
X0173142Y0034060D02*
X0169637Y0034060D01*
X0169637Y0033061D02*
X0174140Y0033061D01*
X0175139Y0032063D02*
X0169470Y0032063D01*
X0169057Y0031064D02*
X0176137Y0031064D01*
X0177136Y0030066D02*
X0168250Y0030066D01*
X0166759Y0029067D02*
X0178134Y0029067D01*
X0179133Y0028069D02*
X0128637Y0028069D01*
X0128637Y0029067D02*
X0157915Y0029067D01*
X0156424Y0030066D02*
X0141150Y0030066D01*
X0140484Y0029400D02*
X0136590Y0029400D01*
X0133837Y0032153D01*
X0133837Y0036047D01*
X0136590Y0038800D01*
X0140484Y0038800D01*
X0143237Y0036047D01*
X0143237Y0032153D01*
X0140484Y0029400D01*
X0142148Y0031064D02*
X0155617Y0031064D01*
X0155204Y0032063D02*
X0143147Y0032063D01*
X0143237Y0033061D02*
X0155037Y0033061D01*
X0155037Y0034060D02*
X0143237Y0034060D01*
X0143237Y0035058D02*
X0155337Y0035058D01*
X0155750Y0036057D02*
X0143227Y0036057D01*
X0142228Y0037055D02*
X0156746Y0037055D01*
X0158691Y0038054D02*
X0141230Y0038054D01*
X0141135Y0040051D02*
X0167151Y0040051D01*
X0166152Y0041049D02*
X0142133Y0041049D01*
X0143132Y0042048D02*
X0165154Y0042048D01*
X0164155Y0043046D02*
X0143237Y0043046D01*
X0143237Y0044045D02*
X0157969Y0044045D01*
X0156447Y0045043D02*
X0143237Y0045043D01*
X0143237Y0046042D02*
X0155626Y0046042D01*
X0155213Y0047040D02*
X0142243Y0047040D01*
X0141245Y0048039D02*
X0155037Y0048039D01*
X0155037Y0049037D02*
X0149487Y0049037D01*
X0150485Y0050036D02*
X0155327Y0050036D01*
X0155741Y0051034D02*
X0151484Y0051034D01*
X0152437Y0052033D02*
X0156723Y0052033D01*
X0158637Y0053032D02*
X0152437Y0053032D01*
X0152437Y0054030D02*
X0163251Y0054030D01*
X0162257Y0055029D02*
X0152437Y0055029D01*
X0152437Y0056027D02*
X0161262Y0056027D01*
X0160268Y0057026D02*
X0151624Y0057026D01*
X0150625Y0058024D02*
X0159274Y0058024D01*
X0162353Y0062018D02*
X0163837Y0062018D01*
X0163837Y0061020D02*
X0163347Y0061020D01*
X0164341Y0060021D02*
X0164669Y0060021D01*
X0165336Y0059023D02*
X0165668Y0059023D01*
X0166330Y0058024D02*
X0169777Y0058024D01*
X0170776Y0057026D02*
X0167324Y0057026D01*
X0168319Y0056027D02*
X0171774Y0056027D01*
X0172773Y0055029D02*
X0169313Y0055029D01*
X0170307Y0054030D02*
X0173771Y0054030D01*
X0174770Y0053032D02*
X0171302Y0053032D01*
X0172296Y0052033D02*
X0175768Y0052033D01*
X0176767Y0051034D02*
X0173290Y0051034D01*
X0174285Y0050036D02*
X0177765Y0050036D01*
X0175279Y0049037D02*
X0185228Y0049037D01*
X0185590Y0049400D02*
X0182837Y0046647D01*
X0182837Y0042753D01*
X0185590Y0040000D01*
X0189484Y0040000D01*
X0192237Y0042753D01*
X0192237Y0046647D01*
X0189484Y0049400D01*
X0185590Y0049400D01*
X0184229Y0048039D02*
X0176273Y0048039D01*
X0177268Y0047040D02*
X0183231Y0047040D01*
X0182837Y0046042D02*
X0178262Y0046042D01*
X0179256Y0045043D02*
X0182837Y0045043D01*
X0182837Y0044045D02*
X0180251Y0044045D01*
X0181245Y0043046D02*
X0182837Y0043046D01*
X0182239Y0042048D02*
X0183542Y0042048D01*
X0183234Y0041049D02*
X0184541Y0041049D01*
X0184228Y0040051D02*
X0185539Y0040051D01*
X0189535Y0040051D02*
X0205539Y0040051D01*
X0204541Y0041049D02*
X0190533Y0041049D01*
X0191532Y0042048D02*
X0203542Y0042048D01*
X0202837Y0043046D02*
X0192237Y0043046D01*
X0192237Y0044045D02*
X0202837Y0044045D01*
X0202837Y0045043D02*
X0192237Y0045043D01*
X0192237Y0046042D02*
X0202837Y0046042D01*
X0203231Y0047040D02*
X0191843Y0047040D01*
X0190845Y0048039D02*
X0204229Y0048039D01*
X0205228Y0049037D02*
X0189846Y0049037D01*
X0191437Y0055029D02*
X0201730Y0055029D01*
X0202037Y0056027D02*
X0191437Y0056027D01*
X0191437Y0057026D02*
X0202037Y0057026D01*
X0202037Y0058024D02*
X0191437Y0058024D01*
X0190861Y0059023D02*
X0202613Y0059023D01*
X0203611Y0060021D02*
X0189863Y0060021D01*
X0188864Y0061020D02*
X0204610Y0061020D01*
X0203990Y0061800D02*
X0207884Y0061800D01*
X0210637Y0064553D01*
X0210637Y0068447D01*
X0207884Y0071200D01*
X0203990Y0071200D01*
X0201237Y0068447D01*
X0201237Y0064553D01*
X0203990Y0061800D01*
X0203772Y0062018D02*
X0188102Y0062018D01*
X0189100Y0063017D02*
X0202774Y0063017D01*
X0201775Y0064015D02*
X0190099Y0064015D01*
X0190637Y0065014D02*
X0201237Y0065014D01*
X0201237Y0066012D02*
X0190637Y0066012D01*
X0190637Y0067011D02*
X0201237Y0067011D01*
X0201237Y0068009D02*
X0190637Y0068009D01*
X0190076Y0069008D02*
X0201798Y0069008D01*
X0202796Y0070006D02*
X0196579Y0070006D01*
X0197096Y0071005D02*
X0203795Y0071005D01*
X0203787Y0072003D02*
X0197137Y0072003D01*
X0197116Y0073002D02*
X0202788Y0073002D01*
X0201790Y0074000D02*
X0197101Y0074000D01*
X0197087Y0074999D02*
X0201637Y0074999D01*
X0201637Y0075997D02*
X0197072Y0075997D01*
X0197057Y0076996D02*
X0201637Y0076996D01*
X0201637Y0077994D02*
X0197553Y0077994D01*
X0193538Y0080990D02*
X0188674Y0080990D01*
X0189092Y0079991D02*
X0192693Y0079991D01*
X0192122Y0078993D02*
X0190091Y0078993D01*
X0191037Y0077994D02*
X0192041Y0077994D01*
X0192056Y0076996D02*
X0191037Y0076996D01*
X0191037Y0075997D02*
X0192071Y0075997D01*
X0192086Y0074999D02*
X0191037Y0074999D01*
X0180695Y0070006D02*
X0178237Y0070006D01*
X0178237Y0069008D02*
X0181798Y0069008D01*
X0181237Y0068009D02*
X0177893Y0068009D01*
X0176894Y0067011D02*
X0181237Y0067011D01*
X0181237Y0066012D02*
X0175896Y0066012D01*
X0175437Y0065014D02*
X0181237Y0065014D01*
X0181775Y0064015D02*
X0175437Y0064015D01*
X0175437Y0063017D02*
X0182774Y0063017D01*
X0183772Y0062018D02*
X0175954Y0062018D01*
X0176953Y0061020D02*
X0184610Y0061020D01*
X0183611Y0060021D02*
X0177951Y0060021D01*
X0178950Y0059023D02*
X0182613Y0059023D01*
X0182037Y0058024D02*
X0179948Y0058024D01*
X0180947Y0057026D02*
X0181019Y0057026D01*
X0163837Y0063017D02*
X0161077Y0063017D01*
X0144049Y0058024D02*
X0138260Y0058024D01*
X0138837Y0057026D02*
X0143050Y0057026D01*
X0142237Y0056027D02*
X0138837Y0056027D01*
X0138837Y0055029D02*
X0142237Y0055029D01*
X0142237Y0054030D02*
X0138837Y0054030D01*
X0138315Y0053032D02*
X0142237Y0053032D01*
X0142237Y0052033D02*
X0137317Y0052033D01*
X0136318Y0051034D02*
X0143190Y0051034D01*
X0144189Y0050036D02*
X0128637Y0050036D01*
X0128637Y0049037D02*
X0145187Y0049037D01*
X0135829Y0048039D02*
X0128637Y0048039D01*
X0128637Y0047040D02*
X0134831Y0047040D01*
X0133837Y0046042D02*
X0128526Y0046042D01*
X0127527Y0045043D02*
X0133837Y0045043D01*
X0133837Y0044045D02*
X0126529Y0044045D01*
X0127649Y0051034D02*
X0131956Y0051034D01*
X0130957Y0052033D02*
X0126651Y0052033D01*
X0126715Y0053032D02*
X0129959Y0053032D01*
X0129437Y0054030D02*
X0127714Y0054030D01*
X0128237Y0055029D02*
X0129437Y0055029D01*
X0129274Y0056027D02*
X0128237Y0056027D01*
X0128237Y0057026D02*
X0128276Y0057026D01*
X0120359Y0053032D02*
X0113315Y0053032D01*
X0113837Y0054030D02*
X0119360Y0054030D01*
X0118837Y0055029D02*
X0113837Y0055029D01*
X0113837Y0056027D02*
X0118837Y0056027D01*
X0118837Y0057026D02*
X0113837Y0057026D01*
X0113260Y0058024D02*
X0118837Y0058024D01*
X0129077Y0063017D02*
X0129974Y0063017D01*
X0130354Y0062018D02*
X0130972Y0062018D01*
X0131353Y0061020D02*
X0131971Y0061020D01*
X0129437Y0064015D02*
X0102557Y0064015D01*
X0101559Y0065014D02*
X0129437Y0065014D01*
X0129437Y0066012D02*
X0100560Y0066012D01*
X0099562Y0067011D02*
X0129437Y0067011D01*
X0129999Y0068009D02*
X0098563Y0068009D01*
X0097565Y0069008D02*
X0130998Y0069008D01*
X0121387Y0072003D02*
X0112287Y0072003D01*
X0111289Y0071005D02*
X0143795Y0071005D01*
X0150084Y0074000D02*
X0160590Y0074000D01*
X0161589Y0074999D02*
X0151083Y0074999D01*
X0165485Y0074999D02*
X0166204Y0074999D01*
X0177482Y0073002D02*
X0177784Y0073002D01*
X0178237Y0072003D02*
X0178756Y0072003D01*
X0178237Y0071005D02*
X0179728Y0071005D01*
X0187984Y0081988D02*
X0194383Y0081988D01*
X0195288Y0082987D02*
X0186986Y0082987D01*
X0185987Y0083985D02*
X0202805Y0083985D01*
X0202637Y0084984D02*
X0184989Y0084984D01*
X0183990Y0085982D02*
X0202637Y0085982D01*
X0202637Y0086981D02*
X0182992Y0086981D01*
X0183590Y0087600D02*
X0187484Y0087600D01*
X0190237Y0090353D01*
X0190237Y0094247D01*
X0187484Y0097000D01*
X0183590Y0097000D01*
X0180837Y0094247D01*
X0180837Y0090353D01*
X0183590Y0087600D01*
X0183211Y0087979D02*
X0181993Y0087979D01*
X0182212Y0088978D02*
X0180995Y0088978D01*
X0181214Y0089976D02*
X0179996Y0089976D01*
X0179437Y0090975D02*
X0180837Y0090975D01*
X0180837Y0091973D02*
X0179437Y0091973D01*
X0179437Y0092972D02*
X0180837Y0092972D01*
X0180837Y0093970D02*
X0179437Y0093970D01*
X0179437Y0094969D02*
X0181559Y0094969D01*
X0182558Y0095968D02*
X0179437Y0095968D01*
X0179437Y0096966D02*
X0183556Y0096966D01*
X0179437Y0097965D02*
X0261928Y0097965D01*
X0262927Y0098963D02*
X0259247Y0098963D01*
X0258284Y0098000D02*
X0261037Y0100753D01*
X0261037Y0104647D01*
X0258284Y0107400D01*
X0254390Y0107400D01*
X0251637Y0104647D01*
X0251637Y0100753D01*
X0254390Y0098000D01*
X0258284Y0098000D01*
X0260245Y0099962D02*
X0272429Y0099962D01*
X0271637Y0100753D02*
X0274390Y0098000D01*
X0278284Y0098000D01*
X0280137Y0099853D01*
X0281990Y0098000D01*
X0285884Y0098000D01*
X0288637Y0100753D01*
X0288637Y0104647D01*
X0285884Y0107400D01*
X0281990Y0107400D01*
X0280137Y0105547D01*
X0278284Y0107400D01*
X0274390Y0107400D01*
X0271637Y0104647D01*
X0271637Y0100753D01*
X0271637Y0100960D02*
X0261037Y0100960D01*
X0261037Y0101959D02*
X0271637Y0101959D01*
X0271637Y0102957D02*
X0261037Y0102957D01*
X0261037Y0103956D02*
X0271637Y0103956D01*
X0271944Y0104954D02*
X0260730Y0104954D01*
X0259731Y0105953D02*
X0272943Y0105953D01*
X0273941Y0106951D02*
X0258733Y0106951D01*
X0253941Y0106951D02*
X0246733Y0106951D01*
X0247731Y0105953D02*
X0252943Y0105953D01*
X0251944Y0104954D02*
X0248437Y0104954D01*
X0248437Y0105247D02*
X0245684Y0108000D01*
X0241790Y0108000D01*
X0239037Y0105247D01*
X0239037Y0101353D01*
X0241790Y0098600D01*
X0245684Y0098600D01*
X0248437Y0101353D01*
X0248437Y0105247D01*
X0248437Y0103956D02*
X0251637Y0103956D01*
X0251637Y0102957D02*
X0248437Y0102957D01*
X0248437Y0101959D02*
X0251637Y0101959D01*
X0251637Y0100960D02*
X0248044Y0100960D01*
X0247045Y0099962D02*
X0252429Y0099962D01*
X0253427Y0098963D02*
X0246047Y0098963D01*
X0241427Y0098963D02*
X0179437Y0098963D01*
X0179437Y0099962D02*
X0228029Y0099962D01*
X0227030Y0100960D02*
X0179437Y0100960D01*
X0179437Y0101959D02*
X0191832Y0101959D01*
X0190833Y0102957D02*
X0179437Y0102957D01*
X0179437Y0103956D02*
X0189837Y0103956D01*
X0189837Y0104954D02*
X0179437Y0104954D01*
X0179437Y0105953D02*
X0189837Y0105953D01*
X0189837Y0106951D02*
X0179437Y0106951D01*
X0180122Y0107950D02*
X0189940Y0107950D01*
X0190938Y0108948D02*
X0181121Y0108948D01*
X0159440Y0107950D02*
X0149633Y0107950D01*
X0148635Y0106951D02*
X0158441Y0106951D01*
X0130523Y0118933D02*
X0097037Y0118933D01*
X0097037Y0117935D02*
X0101125Y0117935D01*
X0100126Y0116936D02*
X0097037Y0116936D01*
X0097037Y0116553D02*
X0094284Y0113800D01*
X0090390Y0113800D01*
X0087637Y0116553D01*
X0087637Y0120447D01*
X0090390Y0123200D01*
X0094284Y0123200D01*
X0097037Y0120447D01*
X0097037Y0116553D01*
X0096422Y0115938D02*
X0099128Y0115938D01*
X0098837Y0114939D02*
X0095423Y0114939D01*
X0094425Y0113941D02*
X0098837Y0113941D01*
X0098837Y0112942D02*
X0075115Y0112942D01*
X0076113Y0113941D02*
X0090249Y0113941D01*
X0089251Y0114939D02*
X0077112Y0114939D01*
X0078110Y0115938D02*
X0088252Y0115938D01*
X0087637Y0116936D02*
X0079109Y0116936D01*
X0080107Y0117935D02*
X0087637Y0117935D01*
X0087637Y0118933D02*
X0081106Y0118933D01*
X0082104Y0119932D02*
X0087637Y0119932D01*
X0088121Y0120930D02*
X0083103Y0120930D01*
X0084101Y0121929D02*
X0089119Y0121929D01*
X0090118Y0122927D02*
X0085100Y0122927D01*
X0086098Y0123926D02*
X0130837Y0123926D01*
X0130837Y0124924D02*
X0087097Y0124924D01*
X0088095Y0125923D02*
X0130837Y0125923D01*
X0131112Y0126921D02*
X0089094Y0126921D01*
X0090092Y0127920D02*
X0132110Y0127920D01*
X0130837Y0122927D02*
X0094556Y0122927D01*
X0095555Y0121929D02*
X0131661Y0121929D01*
X0132521Y0120930D02*
X0096553Y0120930D01*
X0097037Y0119932D02*
X0131522Y0119932D01*
X0111937Y0109947D02*
X0106430Y0109947D01*
X0106936Y0108948D02*
X0110938Y0108948D01*
X0109940Y0107950D02*
X0107934Y0107950D01*
X0108637Y0106951D02*
X0109237Y0106951D01*
X0109237Y0105953D02*
X0108637Y0105953D01*
X0108637Y0104954D02*
X0109237Y0104954D01*
X0109237Y0103956D02*
X0108637Y0103956D01*
X0108241Y0102957D02*
X0109633Y0102957D01*
X0110632Y0101959D02*
X0107242Y0101959D01*
X0106244Y0100960D02*
X0111630Y0100960D01*
X0101630Y0100960D02*
X0096524Y0100960D01*
X0095525Y0101959D02*
X0100632Y0101959D01*
X0099633Y0102957D02*
X0094527Y0102957D01*
X0090147Y0102957D02*
X0060880Y0102957D01*
X0060047Y0101959D02*
X0089149Y0101959D01*
X0088150Y0100960D02*
X0059048Y0100960D01*
X0056759Y0099962D02*
X0087637Y0099962D01*
X0087637Y0098963D02*
X0040937Y0098963D01*
X0040937Y0097965D02*
X0087637Y0097965D01*
X0087637Y0096966D02*
X0040937Y0096966D01*
X0040937Y0095968D02*
X0088223Y0095968D01*
X0089221Y0094969D02*
X0040937Y0094969D01*
X0040937Y0093970D02*
X0089361Y0093970D01*
X0088362Y0092972D02*
X0056714Y0092972D01*
X0059029Y0091973D02*
X0087837Y0091973D01*
X0087837Y0090975D02*
X0060028Y0090975D01*
X0060872Y0089976D02*
X0087837Y0089976D01*
X0087837Y0088978D02*
X0061286Y0088978D01*
X0061699Y0087979D02*
X0088411Y0087979D01*
X0089409Y0086981D02*
X0061737Y0086981D01*
X0061737Y0085982D02*
X0090408Y0085982D01*
X0094666Y0085982D02*
X0099237Y0085982D01*
X0099237Y0084984D02*
X0061589Y0084984D01*
X0058425Y0079991D02*
X0040937Y0079991D01*
X0040937Y0078993D02*
X0105983Y0078993D01*
X0104985Y0077994D02*
X0040937Y0077994D01*
X0040937Y0076996D02*
X0104437Y0076996D01*
X0112291Y0078993D02*
X0119383Y0078993D01*
X0118837Y0077994D02*
X0113289Y0077994D01*
X0113837Y0076996D02*
X0118837Y0076996D01*
X0118837Y0075997D02*
X0113837Y0075997D01*
X0113837Y0074999D02*
X0118837Y0074999D01*
X0119390Y0074000D02*
X0113837Y0074000D01*
X0113286Y0073002D02*
X0120388Y0073002D01*
X0118837Y0084984D02*
X0118637Y0084984D01*
X0118637Y0085982D02*
X0118837Y0085982D01*
X0118837Y0086981D02*
X0118637Y0086981D01*
X0119170Y0087979D02*
X0117904Y0087979D01*
X0116906Y0088978D02*
X0120168Y0088978D01*
X0121167Y0089976D02*
X0115907Y0089976D01*
X0111967Y0089976D02*
X0105907Y0089976D01*
X0106906Y0088978D02*
X0110968Y0088978D01*
X0109970Y0087979D02*
X0107904Y0087979D01*
X0108637Y0086981D02*
X0109237Y0086981D01*
X0109237Y0085982D02*
X0108637Y0085982D01*
X0108637Y0084984D02*
X0109237Y0084984D01*
X0101967Y0089976D02*
X0097237Y0089976D01*
X0097237Y0088978D02*
X0100968Y0088978D01*
X0099970Y0087979D02*
X0096663Y0087979D01*
X0095665Y0086981D02*
X0099237Y0086981D01*
X0099237Y0103956D02*
X0065810Y0103956D01*
X0067127Y0104954D02*
X0099237Y0104954D01*
X0099237Y0105953D02*
X0068125Y0105953D01*
X0069124Y0106951D02*
X0099237Y0106951D01*
X0099940Y0107950D02*
X0070122Y0107950D01*
X0071121Y0108948D02*
X0100938Y0108948D01*
X0100644Y0109947D02*
X0072119Y0109947D01*
X0073118Y0110945D02*
X0099645Y0110945D01*
X0098837Y0111944D02*
X0074116Y0111944D01*
X0069042Y0113941D02*
X0040937Y0113941D01*
X0040937Y0114939D02*
X0070041Y0114939D01*
X0071039Y0115938D02*
X0040937Y0115938D01*
X0040937Y0116936D02*
X0072038Y0116936D01*
X0073036Y0117935D02*
X0040937Y0117935D01*
X0040937Y0118933D02*
X0074035Y0118933D01*
X0075033Y0119932D02*
X0057447Y0119932D01*
X0056610Y0119585D02*
X0058962Y0120559D01*
X0060763Y0122360D01*
X0061737Y0124712D01*
X0061737Y0127258D01*
X0060763Y0129610D01*
X0058962Y0131411D01*
X0056610Y0132385D01*
X0054064Y0132385D01*
X0051712Y0131411D01*
X0049911Y0129610D01*
X0048937Y0127258D01*
X0048937Y0124712D01*
X0049911Y0122360D01*
X0051712Y0120559D01*
X0054064Y0119585D01*
X0056610Y0119585D01*
X0059333Y0120930D02*
X0076032Y0120930D01*
X0077030Y0121929D02*
X0060332Y0121929D01*
X0060998Y0122927D02*
X0078029Y0122927D01*
X0079027Y0123926D02*
X0061411Y0123926D01*
X0061737Y0124924D02*
X0080026Y0124924D01*
X0081024Y0125923D02*
X0061737Y0125923D01*
X0061737Y0126921D02*
X0082023Y0126921D01*
X0083021Y0127920D02*
X0061463Y0127920D01*
X0061049Y0128918D02*
X0084020Y0128918D01*
X0085018Y0129917D02*
X0060456Y0129917D01*
X0059458Y0130915D02*
X0086017Y0130915D01*
X0087015Y0131914D02*
X0057747Y0131914D01*
X0052927Y0131914D02*
X0040937Y0131914D01*
X0040937Y0132912D02*
X0088014Y0132912D01*
X0051216Y0130915D02*
X0040937Y0130915D01*
X0040937Y0129917D02*
X0050218Y0129917D01*
X0049625Y0128918D02*
X0040937Y0128918D01*
X0040937Y0127920D02*
X0049211Y0127920D01*
X0048937Y0126921D02*
X0040937Y0126921D01*
X0040937Y0125923D02*
X0048937Y0125923D01*
X0048937Y0124924D02*
X0040937Y0124924D01*
X0040937Y0123926D02*
X0049263Y0123926D01*
X0049676Y0122927D02*
X0040937Y0122927D01*
X0040937Y0121929D02*
X0050342Y0121929D01*
X0051341Y0120930D02*
X0040937Y0120930D01*
X0040937Y0119932D02*
X0053227Y0119932D01*
X0052238Y0111944D02*
X0040937Y0111944D01*
X0040937Y0112942D02*
X0068044Y0112942D01*
X0067045Y0111944D02*
X0058436Y0111944D01*
X0059743Y0110945D02*
X0066047Y0110945D01*
X0065048Y0109947D02*
X0060741Y0109947D01*
X0061167Y0108948D02*
X0064050Y0108948D01*
X0050931Y0110945D02*
X0040937Y0110945D01*
X0040937Y0109947D02*
X0049933Y0109947D01*
X0049507Y0108948D02*
X0040937Y0108948D01*
X0040937Y0107950D02*
X0049093Y0107950D01*
X0048937Y0106951D02*
X0040937Y0106951D01*
X0040937Y0105953D02*
X0048937Y0105953D01*
X0048967Y0104954D02*
X0040937Y0104954D01*
X0040937Y0103956D02*
X0049381Y0103956D01*
X0049794Y0102957D02*
X0040937Y0102957D01*
X0040937Y0101959D02*
X0050627Y0101959D01*
X0051626Y0100960D02*
X0040937Y0100960D01*
X0040937Y0099962D02*
X0053915Y0099962D01*
X0053960Y0092972D02*
X0040937Y0092972D01*
X0040937Y0091973D02*
X0051645Y0091973D01*
X0050646Y0090975D02*
X0040937Y0090975D01*
X0040937Y0089976D02*
X0049802Y0089976D01*
X0049388Y0088978D02*
X0040937Y0088978D01*
X0040937Y0087979D02*
X0048975Y0087979D01*
X0048937Y0086981D02*
X0040937Y0086981D01*
X0040937Y0085982D02*
X0048937Y0085982D01*
X0049085Y0084984D02*
X0040937Y0084984D01*
X0040937Y0083985D02*
X0049499Y0083985D01*
X0049914Y0082987D02*
X0040937Y0082987D01*
X0040937Y0081988D02*
X0050913Y0081988D01*
X0052193Y0080990D02*
X0040937Y0080990D01*
X0064996Y0055000D02*
X0060837Y0050841D01*
X0060837Y0044959D01*
X0064996Y0040800D01*
X0070878Y0040800D01*
X0075037Y0044959D01*
X0075037Y0050841D01*
X0070878Y0055000D01*
X0064996Y0055000D01*
X0064026Y0054030D02*
X0040937Y0054030D01*
X0040937Y0053032D02*
X0063028Y0053032D01*
X0062029Y0052033D02*
X0040937Y0052033D01*
X0040937Y0051034D02*
X0061031Y0051034D01*
X0060837Y0050036D02*
X0040937Y0050036D01*
X0040937Y0049037D02*
X0060837Y0049037D01*
X0060837Y0048039D02*
X0040937Y0048039D01*
X0040937Y0047040D02*
X0060837Y0047040D01*
X0060837Y0046042D02*
X0040937Y0046042D01*
X0040937Y0045043D02*
X0060837Y0045043D01*
X0061751Y0044045D02*
X0040937Y0044045D01*
X0040937Y0043046D02*
X0062750Y0043046D01*
X0063748Y0042048D02*
X0040937Y0042048D01*
X0040937Y0041049D02*
X0064747Y0041049D01*
X0071127Y0041049D02*
X0085923Y0041049D01*
X0083748Y0042048D02*
X0072126Y0042048D01*
X0073124Y0043046D02*
X0082750Y0043046D01*
X0081849Y0044045D02*
X0074123Y0044045D01*
X0075037Y0045043D02*
X0081435Y0045043D01*
X0081022Y0046042D02*
X0075037Y0046042D01*
X0075037Y0047040D02*
X0080837Y0047040D01*
X0080837Y0048039D02*
X0075037Y0048039D01*
X0075037Y0049037D02*
X0080837Y0049037D01*
X0081137Y0050036D02*
X0075037Y0050036D01*
X0074843Y0051034D02*
X0081550Y0051034D01*
X0082029Y0052033D02*
X0073845Y0052033D01*
X0072846Y0053032D02*
X0083028Y0053032D01*
X0084183Y0054030D02*
X0071848Y0054030D01*
X0094737Y0050036D02*
X0119237Y0050036D01*
X0120225Y0051034D02*
X0111318Y0051034D01*
X0112317Y0052033D02*
X0121223Y0052033D01*
X0105831Y0047040D02*
X0095037Y0047040D01*
X0094852Y0046042D02*
X0104832Y0046042D01*
X0104237Y0045043D02*
X0094439Y0045043D01*
X0094025Y0044045D02*
X0104237Y0044045D01*
X0104237Y0043046D02*
X0093124Y0043046D01*
X0092126Y0042048D02*
X0104237Y0042048D01*
X0104741Y0041049D02*
X0089951Y0041049D01*
X0104237Y0035447D02*
X0104237Y0031553D01*
X0106990Y0028800D01*
X0110884Y0028800D01*
X0113637Y0031553D01*
X0113637Y0035447D01*
X0110884Y0038200D01*
X0106990Y0038200D01*
X0104237Y0035447D01*
X0104237Y0035058D02*
X0040937Y0035058D01*
X0040937Y0034060D02*
X0104237Y0034060D01*
X0104237Y0033061D02*
X0040937Y0033061D01*
X0040937Y0032063D02*
X0104237Y0032063D01*
X0104726Y0031064D02*
X0040937Y0031064D01*
X0040937Y0030066D02*
X0105724Y0030066D01*
X0106723Y0029067D02*
X0040937Y0029067D01*
X0040937Y0028069D02*
X0119237Y0028069D01*
X0119237Y0029067D02*
X0111151Y0029067D01*
X0112150Y0030066D02*
X0119256Y0030066D01*
X0119237Y0030047D02*
X0119237Y0026153D01*
X0121290Y0024100D01*
X0119937Y0022747D01*
X0117884Y0024800D01*
X0113990Y0024800D01*
X0111237Y0022047D01*
X0111237Y0018153D01*
X0113990Y0015400D01*
X0117884Y0015400D01*
X0119937Y0017453D01*
X0121990Y0015400D01*
X0125884Y0015400D01*
X0128637Y0018153D01*
X0128637Y0022047D01*
X0126584Y0024100D01*
X0128637Y0026153D01*
X0128637Y0030047D01*
X0125884Y0032800D01*
X0121990Y0032800D01*
X0119237Y0030047D01*
X0120254Y0031064D02*
X0113148Y0031064D01*
X0113637Y0032063D02*
X0121253Y0032063D01*
X0126621Y0032063D02*
X0133927Y0032063D01*
X0133837Y0033061D02*
X0113637Y0033061D01*
X0113637Y0034060D02*
X0133837Y0034060D01*
X0133837Y0035058D02*
X0113637Y0035058D01*
X0113027Y0036057D02*
X0133847Y0036057D01*
X0134846Y0037055D02*
X0112028Y0037055D01*
X0111030Y0038054D02*
X0135844Y0038054D01*
X0134926Y0031064D02*
X0127620Y0031064D01*
X0128618Y0030066D02*
X0135924Y0030066D01*
X0128637Y0027070D02*
X0180131Y0027070D01*
X0181130Y0026072D02*
X0128555Y0026072D01*
X0127557Y0025073D02*
X0182128Y0025073D01*
X0183127Y0024075D02*
X0176209Y0024075D01*
X0175484Y0024800D02*
X0171590Y0024800D01*
X0168837Y0022047D01*
X0168837Y0018153D01*
X0171590Y0015400D01*
X0175484Y0015400D01*
X0178237Y0018153D01*
X0178237Y0022047D01*
X0175484Y0024800D01*
X0177208Y0023076D02*
X0183666Y0023076D01*
X0183037Y0022078D02*
X0178206Y0022078D01*
X0178237Y0021079D02*
X0183037Y0021079D01*
X0183037Y0020081D02*
X0178237Y0020081D01*
X0178237Y0019082D02*
X0183037Y0019082D01*
X0183507Y0018084D02*
X0178167Y0018084D01*
X0177169Y0017085D02*
X0184505Y0017085D01*
X0185504Y0016087D02*
X0176170Y0016087D01*
X0170904Y0016087D02*
X0156170Y0016087D01*
X0155484Y0015400D02*
X0151590Y0015400D01*
X0148837Y0018153D01*
X0148837Y0022047D01*
X0151590Y0024800D01*
X0155484Y0024800D01*
X0158237Y0022047D01*
X0158237Y0018153D01*
X0155484Y0015400D01*
X0150904Y0016087D02*
X0146570Y0016087D01*
X0145884Y0015400D02*
X0148637Y0018153D01*
X0148637Y0022047D01*
X0145884Y0024800D01*
X0141990Y0024800D01*
X0139237Y0022047D01*
X0139237Y0018153D01*
X0141990Y0015400D01*
X0145884Y0015400D01*
X0141304Y0016087D02*
X0126570Y0016087D01*
X0127569Y0017085D02*
X0140305Y0017085D01*
X0139307Y0018084D02*
X0128567Y0018084D01*
X0128637Y0019082D02*
X0139237Y0019082D01*
X0139237Y0020081D02*
X0128637Y0020081D01*
X0128637Y0021079D02*
X0139237Y0021079D01*
X0139268Y0022078D02*
X0128606Y0022078D01*
X0127608Y0023076D02*
X0140266Y0023076D01*
X0141265Y0024075D02*
X0126609Y0024075D01*
X0121265Y0024075D02*
X0118609Y0024075D01*
X0119608Y0023076D02*
X0120266Y0023076D01*
X0120317Y0025073D02*
X0040937Y0025073D01*
X0040937Y0024075D02*
X0066099Y0024075D01*
X0067025Y0025000D02*
X0064037Y0022012D01*
X0064037Y0017788D01*
X0067025Y0014800D01*
X0071249Y0014800D01*
X0074237Y0017788D01*
X0074237Y0022012D01*
X0071249Y0025000D01*
X0067025Y0025000D01*
X0065101Y0023076D02*
X0040937Y0023076D01*
X0040937Y0022078D02*
X0064102Y0022078D01*
X0064037Y0021079D02*
X0040937Y0021079D01*
X0040937Y0020081D02*
X0064037Y0020081D01*
X0064037Y0019082D02*
X0040937Y0019082D01*
X0040937Y0018084D02*
X0064037Y0018084D01*
X0064739Y0017085D02*
X0040937Y0017085D01*
X0040937Y0016087D02*
X0065738Y0016087D01*
X0066736Y0015088D02*
X0040937Y0015088D01*
X0040937Y0014090D02*
X0338537Y0014090D01*
X0338537Y0015088D02*
X0085138Y0015088D01*
X0084849Y0014800D02*
X0087837Y0017788D01*
X0087837Y0022012D01*
X0084849Y0025000D01*
X0080625Y0025000D01*
X0077637Y0022012D01*
X0077637Y0017788D01*
X0080625Y0014800D01*
X0084849Y0014800D01*
X0086136Y0016087D02*
X0093304Y0016087D01*
X0093990Y0015400D02*
X0091237Y0018153D01*
X0091237Y0022047D01*
X0093990Y0024800D01*
X0097884Y0024800D01*
X0100637Y0022047D01*
X0100637Y0018153D01*
X0097884Y0015400D01*
X0093990Y0015400D01*
X0098570Y0016087D02*
X0113304Y0016087D01*
X0112305Y0017085D02*
X0099569Y0017085D01*
X0100567Y0018084D02*
X0111307Y0018084D01*
X0111237Y0019082D02*
X0100637Y0019082D01*
X0100637Y0020081D02*
X0111237Y0020081D01*
X0111237Y0021079D02*
X0100637Y0021079D01*
X0100606Y0022078D02*
X0111268Y0022078D01*
X0112266Y0023076D02*
X0099608Y0023076D01*
X0098609Y0024075D02*
X0113265Y0024075D01*
X0119318Y0026072D02*
X0040937Y0026072D01*
X0040937Y0027070D02*
X0119237Y0027070D01*
X0119569Y0017085D02*
X0120305Y0017085D01*
X0121304Y0016087D02*
X0118570Y0016087D01*
X0092305Y0017085D02*
X0087135Y0017085D01*
X0087837Y0018084D02*
X0091307Y0018084D01*
X0091237Y0019082D02*
X0087837Y0019082D01*
X0087837Y0020081D02*
X0091237Y0020081D01*
X0091237Y0021079D02*
X0087837Y0021079D01*
X0087772Y0022078D02*
X0091268Y0022078D01*
X0092266Y0023076D02*
X0086773Y0023076D01*
X0085775Y0024075D02*
X0093265Y0024075D01*
X0079699Y0024075D02*
X0072175Y0024075D01*
X0073173Y0023076D02*
X0078701Y0023076D01*
X0077702Y0022078D02*
X0074172Y0022078D01*
X0074237Y0021079D02*
X0077637Y0021079D01*
X0077637Y0020081D02*
X0074237Y0020081D01*
X0074237Y0019082D02*
X0077637Y0019082D01*
X0077637Y0018084D02*
X0074237Y0018084D01*
X0073535Y0017085D02*
X0078339Y0017085D01*
X0079338Y0016087D02*
X0072536Y0016087D01*
X0071538Y0015088D02*
X0080336Y0015088D01*
X0040937Y0013091D02*
X0338537Y0013091D01*
X0338537Y0012093D02*
X0040937Y0012093D01*
X0040937Y0011094D02*
X0338537Y0011094D01*
X0338537Y0010096D02*
X0040937Y0010096D01*
X0040937Y0009097D02*
X0338537Y0009097D01*
X0338537Y0008099D02*
X0040937Y0008099D01*
X0040937Y0007100D02*
X0338537Y0007100D01*
X0338537Y0006101D02*
X0040937Y0006101D01*
X0040937Y0005103D02*
X0338537Y0005103D01*
X0338537Y0004104D02*
X0040937Y0004104D01*
X0040937Y0003106D02*
X0338537Y0003106D01*
X0338537Y0002107D02*
X0040937Y0002107D01*
X0040937Y0036057D02*
X0104847Y0036057D01*
X0105846Y0037055D02*
X0040937Y0037055D01*
X0040937Y0038054D02*
X0106844Y0038054D01*
X0106738Y0039052D02*
X0040937Y0039052D01*
X0040937Y0040051D02*
X0105739Y0040051D01*
X0146609Y0024075D02*
X0150865Y0024075D01*
X0149866Y0023076D02*
X0147608Y0023076D01*
X0148606Y0022078D02*
X0148868Y0022078D01*
X0148837Y0021079D02*
X0148637Y0021079D01*
X0148637Y0020081D02*
X0148837Y0020081D01*
X0148837Y0019082D02*
X0148637Y0019082D01*
X0148567Y0018084D02*
X0148907Y0018084D01*
X0149905Y0017085D02*
X0147569Y0017085D01*
X0157169Y0017085D02*
X0169905Y0017085D01*
X0168907Y0018084D02*
X0158167Y0018084D01*
X0158237Y0019082D02*
X0168837Y0019082D01*
X0168837Y0020081D02*
X0158237Y0020081D01*
X0158237Y0021079D02*
X0168837Y0021079D01*
X0168868Y0022078D02*
X0158206Y0022078D01*
X0157208Y0023076D02*
X0169866Y0023076D01*
X0170865Y0024075D02*
X0156209Y0024075D01*
X0179214Y0035058D02*
X0182141Y0035058D01*
X0182185Y0035017D02*
X0182516Y0034684D01*
X0182542Y0034673D01*
X0182563Y0034653D01*
X0183000Y0034482D01*
X0183434Y0034301D01*
X0183463Y0034301D01*
X0183489Y0034291D01*
X0183959Y0034300D01*
X0184429Y0034299D01*
X0184455Y0034310D01*
X0184909Y0034319D01*
X0183037Y0032447D01*
X0183037Y0031236D01*
X0168728Y0045544D01*
X0168921Y0045738D01*
X0169637Y0047465D01*
X0169637Y0047617D01*
X0181834Y0035368D01*
X0181846Y0035343D01*
X0182185Y0035017D01*
X0181149Y0036057D02*
X0178216Y0036057D01*
X0177217Y0037055D02*
X0180155Y0037055D01*
X0179160Y0038054D02*
X0176219Y0038054D01*
X0175220Y0039052D02*
X0178166Y0039052D01*
X0177172Y0040051D02*
X0174222Y0040051D01*
X0173223Y0041049D02*
X0176177Y0041049D01*
X0175183Y0042048D02*
X0172225Y0042048D01*
X0171226Y0043046D02*
X0174189Y0043046D01*
X0173194Y0044045D02*
X0170228Y0044045D01*
X0169229Y0045043D02*
X0172200Y0045043D01*
X0171206Y0046042D02*
X0169048Y0046042D01*
X0169461Y0047040D02*
X0170211Y0047040D01*
X0180213Y0034060D02*
X0184650Y0034060D01*
X0183652Y0033061D02*
X0181211Y0033061D01*
X0182210Y0032063D02*
X0183037Y0032063D01*
X0190824Y0034060D02*
X0234837Y0034060D01*
X0234837Y0034447D02*
X0234837Y0030553D01*
X0237590Y0027800D01*
X0241484Y0027800D01*
X0244237Y0030553D01*
X0244237Y0034447D01*
X0241484Y0037200D01*
X0237590Y0037200D01*
X0234837Y0034447D01*
X0235449Y0035058D02*
X0215518Y0035058D01*
X0214853Y0032063D02*
X0210221Y0032063D01*
X0211220Y0031064D02*
X0213854Y0031064D01*
X0212856Y0030066D02*
X0212218Y0030066D01*
X0212237Y0029067D02*
X0212837Y0029067D01*
X0212837Y0028069D02*
X0212237Y0028069D01*
X0212237Y0027070D02*
X0212837Y0027070D01*
X0212918Y0026072D02*
X0212155Y0026072D01*
X0208366Y0023076D02*
X0205618Y0023076D01*
X0207837Y0022078D02*
X0192437Y0022078D01*
X0192437Y0021079D02*
X0207837Y0021079D01*
X0207837Y0020081D02*
X0192437Y0020081D01*
X0192437Y0019082D02*
X0207837Y0019082D01*
X0208407Y0018084D02*
X0191967Y0018084D01*
X0190969Y0017085D02*
X0209405Y0017085D01*
X0210404Y0016087D02*
X0189970Y0016087D01*
X0191953Y0028069D02*
X0202837Y0028069D01*
X0202837Y0029067D02*
X0192437Y0029067D01*
X0192437Y0030066D02*
X0202856Y0030066D01*
X0203854Y0031064D02*
X0192437Y0031064D01*
X0192437Y0032063D02*
X0204853Y0032063D01*
X0191822Y0033061D02*
X0234837Y0033061D01*
X0234837Y0032063D02*
X0220221Y0032063D01*
X0221220Y0031064D02*
X0234837Y0031064D01*
X0235324Y0030066D02*
X0222218Y0030066D01*
X0222237Y0029067D02*
X0236323Y0029067D01*
X0237321Y0028069D02*
X0222237Y0028069D01*
X0222237Y0027070D02*
X0312066Y0027070D01*
X0311068Y0026072D02*
X0222156Y0026072D01*
X0221157Y0025073D02*
X0227863Y0025073D01*
X0228790Y0026000D02*
X0226037Y0023247D01*
X0226037Y0019353D01*
X0228790Y0016600D01*
X0232684Y0016600D01*
X0235337Y0019253D01*
X0237990Y0016600D01*
X0241884Y0016600D01*
X0244637Y0019353D01*
X0244637Y0023247D01*
X0241884Y0026000D01*
X0237990Y0026000D01*
X0235337Y0023347D01*
X0232684Y0026000D01*
X0228790Y0026000D01*
X0226865Y0024075D02*
X0220158Y0024075D01*
X0217237Y0022078D02*
X0226037Y0022078D01*
X0226037Y0023076D02*
X0216708Y0023076D01*
X0217237Y0021079D02*
X0226037Y0021079D01*
X0226037Y0020081D02*
X0217237Y0020081D01*
X0217237Y0019082D02*
X0226308Y0019082D01*
X0227307Y0018084D02*
X0216667Y0018084D01*
X0215669Y0017085D02*
X0228305Y0017085D01*
X0233169Y0017085D02*
X0237505Y0017085D01*
X0236507Y0018084D02*
X0234167Y0018084D01*
X0235166Y0019082D02*
X0235508Y0019082D01*
X0242369Y0017085D02*
X0257505Y0017085D01*
X0257990Y0016600D02*
X0261884Y0016600D01*
X0264637Y0019353D01*
X0264637Y0023247D01*
X0261884Y0026000D01*
X0257990Y0026000D01*
X0255237Y0023247D01*
X0255237Y0019353D01*
X0257990Y0016600D01*
X0256507Y0018084D02*
X0243367Y0018084D01*
X0244366Y0019082D02*
X0255508Y0019082D01*
X0255237Y0020081D02*
X0244637Y0020081D01*
X0244637Y0021079D02*
X0255237Y0021079D01*
X0255237Y0022078D02*
X0244637Y0022078D01*
X0244637Y0023076D02*
X0255237Y0023076D01*
X0256065Y0024075D02*
X0243809Y0024075D01*
X0242811Y0025073D02*
X0257063Y0025073D01*
X0257590Y0027800D02*
X0261484Y0027800D01*
X0264237Y0030553D01*
X0264237Y0034447D01*
X0261484Y0037200D01*
X0257590Y0037200D01*
X0254837Y0034447D01*
X0254837Y0030553D01*
X0257590Y0027800D01*
X0257321Y0028069D02*
X0241753Y0028069D01*
X0242751Y0029067D02*
X0256323Y0029067D01*
X0255324Y0030066D02*
X0243750Y0030066D01*
X0244237Y0031064D02*
X0254837Y0031064D01*
X0254837Y0032063D02*
X0244237Y0032063D01*
X0244237Y0033061D02*
X0254837Y0033061D01*
X0254837Y0034060D02*
X0244237Y0034060D01*
X0243625Y0035058D02*
X0255449Y0035058D01*
X0256447Y0036057D02*
X0242627Y0036057D01*
X0241628Y0037055D02*
X0257446Y0037055D01*
X0261628Y0037055D02*
X0270846Y0037055D01*
X0271844Y0038054D02*
X0266764Y0038054D01*
X0266760Y0038050D02*
X0270187Y0041477D01*
X0270187Y0046323D01*
X0266760Y0049750D01*
X0261914Y0049750D01*
X0258487Y0046323D01*
X0258487Y0041477D01*
X0261914Y0038050D01*
X0266760Y0038050D01*
X0267763Y0039052D02*
X0311846Y0039052D01*
X0311918Y0038878D02*
X0313915Y0036881D01*
X0316525Y0035800D01*
X0319349Y0035800D01*
X0321959Y0036881D01*
X0323956Y0038878D01*
X0325037Y0041488D01*
X0325037Y0044312D01*
X0323956Y0046922D01*
X0321959Y0048919D01*
X0319349Y0050000D01*
X0316525Y0050000D01*
X0313915Y0048919D01*
X0311918Y0046922D01*
X0310837Y0044312D01*
X0310837Y0041488D01*
X0311918Y0038878D01*
X0312742Y0038054D02*
X0286830Y0038054D01*
X0286284Y0038600D02*
X0282390Y0038600D01*
X0279637Y0035847D01*
X0279637Y0031953D01*
X0282390Y0029200D01*
X0286284Y0029200D01*
X0289037Y0031953D01*
X0289037Y0035847D01*
X0286284Y0038600D01*
X0287828Y0037055D02*
X0313741Y0037055D01*
X0315905Y0036057D02*
X0288827Y0036057D01*
X0289037Y0035058D02*
X0338537Y0035058D01*
X0338537Y0034060D02*
X0289037Y0034060D01*
X0289037Y0033061D02*
X0338537Y0033061D01*
X0338537Y0032063D02*
X0289037Y0032063D01*
X0288148Y0031064D02*
X0338537Y0031064D01*
X0338537Y0030066D02*
X0287150Y0030066D01*
X0281524Y0030066D02*
X0277150Y0030066D01*
X0276284Y0029200D02*
X0272390Y0029200D01*
X0269637Y0031953D01*
X0269637Y0035847D01*
X0272390Y0038600D01*
X0276284Y0038600D01*
X0279037Y0035847D01*
X0279037Y0031953D01*
X0276284Y0029200D01*
X0278148Y0031064D02*
X0280526Y0031064D01*
X0279637Y0032063D02*
X0279037Y0032063D01*
X0279037Y0033061D02*
X0279637Y0033061D01*
X0279637Y0034060D02*
X0279037Y0034060D01*
X0279037Y0035058D02*
X0279637Y0035058D01*
X0279847Y0036057D02*
X0278827Y0036057D01*
X0277828Y0037055D02*
X0280846Y0037055D01*
X0281844Y0038054D02*
X0276830Y0038054D01*
X0269847Y0036057D02*
X0262627Y0036057D01*
X0263625Y0035058D02*
X0269637Y0035058D01*
X0269637Y0034060D02*
X0264237Y0034060D01*
X0264237Y0033061D02*
X0269637Y0033061D01*
X0269637Y0032063D02*
X0264237Y0032063D01*
X0264237Y0031064D02*
X0270526Y0031064D01*
X0271524Y0030066D02*
X0263750Y0030066D01*
X0262751Y0029067D02*
X0314063Y0029067D01*
X0314996Y0030000D02*
X0310837Y0025841D01*
X0310837Y0019959D01*
X0314996Y0015800D01*
X0320878Y0015800D01*
X0325037Y0019959D01*
X0325037Y0025841D01*
X0320878Y0030000D01*
X0314996Y0030000D01*
X0313065Y0028069D02*
X0261753Y0028069D01*
X0262811Y0025073D02*
X0268263Y0025073D01*
X0269190Y0026000D02*
X0266437Y0023247D01*
X0266437Y0019353D01*
X0269190Y0016600D01*
X0273084Y0016600D01*
X0275837Y0019353D01*
X0275837Y0023247D01*
X0273084Y0026000D01*
X0269190Y0026000D01*
X0267265Y0024075D02*
X0263809Y0024075D01*
X0264637Y0023076D02*
X0266437Y0023076D01*
X0266437Y0022078D02*
X0264637Y0022078D01*
X0264637Y0021079D02*
X0266437Y0021079D01*
X0266437Y0020081D02*
X0264637Y0020081D01*
X0264366Y0019082D02*
X0266708Y0019082D01*
X0267707Y0018084D02*
X0263367Y0018084D01*
X0262369Y0017085D02*
X0268705Y0017085D01*
X0273569Y0017085D02*
X0288705Y0017085D01*
X0289190Y0016600D02*
X0286437Y0019353D01*
X0286437Y0023247D01*
X0289190Y0026000D01*
X0293084Y0026000D01*
X0295837Y0023247D01*
X0295837Y0019353D01*
X0293084Y0016600D01*
X0289190Y0016600D01*
X0287707Y0018084D02*
X0274567Y0018084D01*
X0275566Y0019082D02*
X0286708Y0019082D01*
X0286437Y0020081D02*
X0275837Y0020081D01*
X0275837Y0021079D02*
X0286437Y0021079D01*
X0286437Y0022078D02*
X0275837Y0022078D01*
X0275837Y0023076D02*
X0286437Y0023076D01*
X0287265Y0024075D02*
X0275009Y0024075D01*
X0274011Y0025073D02*
X0288263Y0025073D01*
X0294011Y0025073D02*
X0310837Y0025073D01*
X0310837Y0024075D02*
X0295009Y0024075D01*
X0295837Y0023076D02*
X0310837Y0023076D01*
X0310837Y0022078D02*
X0295837Y0022078D01*
X0295837Y0021079D02*
X0310837Y0021079D01*
X0310837Y0020081D02*
X0295837Y0020081D01*
X0295566Y0019082D02*
X0311714Y0019082D01*
X0312712Y0018084D02*
X0294567Y0018084D01*
X0293569Y0017085D02*
X0313711Y0017085D01*
X0314709Y0016087D02*
X0214670Y0016087D01*
X0234609Y0024075D02*
X0236065Y0024075D01*
X0237063Y0025073D02*
X0233611Y0025073D01*
X0236447Y0036057D02*
X0221341Y0036057D01*
X0222339Y0037055D02*
X0228335Y0037055D01*
X0228790Y0036600D02*
X0232684Y0036600D01*
X0235437Y0039353D01*
X0235437Y0043247D01*
X0232684Y0046000D01*
X0228790Y0046000D01*
X0226037Y0043247D01*
X0226037Y0039353D01*
X0228790Y0036600D01*
X0227336Y0038054D02*
X0223338Y0038054D01*
X0223437Y0039052D02*
X0226338Y0039052D01*
X0226037Y0040051D02*
X0223437Y0040051D01*
X0223437Y0041049D02*
X0226037Y0041049D01*
X0226037Y0042048D02*
X0223436Y0042048D01*
X0222437Y0043046D02*
X0226037Y0043046D01*
X0226835Y0044045D02*
X0221439Y0044045D01*
X0216035Y0044045D02*
X0212237Y0044045D01*
X0212237Y0045043D02*
X0227834Y0045043D01*
X0233640Y0045043D02*
X0258487Y0045043D01*
X0258487Y0044045D02*
X0234639Y0044045D01*
X0235437Y0043046D02*
X0258487Y0043046D01*
X0258487Y0042048D02*
X0235437Y0042048D01*
X0235437Y0041049D02*
X0258914Y0041049D01*
X0259913Y0040051D02*
X0235437Y0040051D01*
X0235136Y0039052D02*
X0260911Y0039052D01*
X0261910Y0038054D02*
X0234138Y0038054D01*
X0233139Y0037055D02*
X0237446Y0037055D01*
X0215037Y0043046D02*
X0212237Y0043046D01*
X0211532Y0042048D02*
X0214038Y0042048D01*
X0212237Y0046042D02*
X0258487Y0046042D01*
X0259204Y0047040D02*
X0211843Y0047040D01*
X0210845Y0048039D02*
X0260203Y0048039D01*
X0261201Y0049037D02*
X0209846Y0049037D01*
X0204807Y0051034D02*
X0226956Y0051034D01*
X0227954Y0050036D02*
X0203809Y0050036D01*
X0208917Y0052033D02*
X0225957Y0052033D01*
X0225837Y0052153D02*
X0228590Y0049400D01*
X0232484Y0049400D01*
X0235237Y0052153D01*
X0235237Y0056047D01*
X0232484Y0058800D01*
X0228590Y0058800D01*
X0225837Y0056047D01*
X0225837Y0052153D01*
X0225837Y0053032D02*
X0209915Y0053032D01*
X0210914Y0054030D02*
X0225837Y0054030D01*
X0225837Y0055029D02*
X0211437Y0055029D01*
X0211437Y0056027D02*
X0216163Y0056027D01*
X0216790Y0055400D02*
X0214037Y0058153D01*
X0214037Y0062047D01*
X0216321Y0064331D01*
X0215875Y0064516D01*
X0214553Y0065838D01*
X0213837Y0067565D01*
X0213837Y0074635D01*
X0214553Y0076362D01*
X0215875Y0077684D01*
X0217602Y0078400D01*
X0219472Y0078400D01*
X0221199Y0077684D01*
X0222521Y0076362D01*
X0223237Y0074635D01*
X0223237Y0067565D01*
X0222521Y0065838D01*
X0221199Y0064516D01*
X0221036Y0064448D01*
X0223437Y0062047D01*
X0223437Y0058153D01*
X0220684Y0055400D01*
X0216790Y0055400D01*
X0215165Y0057026D02*
X0211437Y0057026D01*
X0211437Y0058024D02*
X0214166Y0058024D01*
X0214037Y0059023D02*
X0210861Y0059023D01*
X0209863Y0060021D02*
X0214037Y0060021D01*
X0214037Y0061020D02*
X0208864Y0061020D01*
X0208102Y0062018D02*
X0214037Y0062018D01*
X0215007Y0063017D02*
X0209100Y0063017D01*
X0210099Y0064015D02*
X0216005Y0064015D01*
X0215377Y0065014D02*
X0210637Y0065014D01*
X0210637Y0066012D02*
X0214480Y0066012D01*
X0214067Y0067011D02*
X0210637Y0067011D01*
X0210637Y0068009D02*
X0213837Y0068009D01*
X0213837Y0069008D02*
X0210076Y0069008D01*
X0209078Y0070006D02*
X0213837Y0070006D01*
X0213837Y0071005D02*
X0208079Y0071005D01*
X0208887Y0072003D02*
X0213837Y0072003D01*
X0213837Y0073002D02*
X0209886Y0073002D01*
X0210884Y0074000D02*
X0213837Y0074000D01*
X0213988Y0074999D02*
X0211037Y0074999D01*
X0211037Y0075997D02*
X0214401Y0075997D01*
X0215186Y0076996D02*
X0211037Y0076996D01*
X0211037Y0077994D02*
X0216623Y0077994D01*
X0220451Y0077994D02*
X0227785Y0077994D01*
X0227829Y0078993D02*
X0241383Y0078993D01*
X0241390Y0079000D02*
X0238637Y0076247D01*
X0238637Y0072353D01*
X0241390Y0069600D01*
X0245284Y0069600D01*
X0248037Y0072353D01*
X0248037Y0076247D01*
X0245684Y0078600D01*
X0248437Y0081353D01*
X0248437Y0085247D01*
X0245684Y0088000D01*
X0241790Y0088000D01*
X0239037Y0085247D01*
X0239037Y0081353D01*
X0241390Y0079000D01*
X0241390Y0079000D01*
X0240399Y0079991D02*
X0233875Y0079991D01*
X0234874Y0080990D02*
X0239400Y0080990D01*
X0239037Y0081988D02*
X0235637Y0081988D01*
X0235637Y0082987D02*
X0239037Y0082987D01*
X0239037Y0083985D02*
X0235637Y0083985D01*
X0235637Y0084984D02*
X0239037Y0084984D01*
X0239773Y0085982D02*
X0235301Y0085982D01*
X0234303Y0086981D02*
X0240771Y0086981D01*
X0241770Y0087979D02*
X0233304Y0087979D01*
X0228570Y0087979D02*
X0212037Y0087979D01*
X0212037Y0086981D02*
X0227571Y0086981D01*
X0226573Y0085982D02*
X0212037Y0085982D01*
X0212037Y0084984D02*
X0226237Y0084984D01*
X0226237Y0083985D02*
X0211869Y0083985D01*
X0211106Y0088978D02*
X0261586Y0088978D01*
X0260587Y0089976D02*
X0210107Y0089976D01*
X0204567Y0089976D02*
X0199860Y0089976D01*
X0200237Y0090353D02*
X0197484Y0087600D01*
X0193590Y0087600D01*
X0190837Y0090353D01*
X0190837Y0094247D01*
X0193590Y0097000D01*
X0197484Y0097000D01*
X0200237Y0094247D01*
X0200237Y0090353D01*
X0200237Y0090975D02*
X0259687Y0090975D01*
X0259687Y0090877D02*
X0263114Y0087450D01*
X0267960Y0087450D01*
X0271387Y0090877D01*
X0271387Y0095723D01*
X0267960Y0099150D01*
X0263114Y0099150D01*
X0259687Y0095723D01*
X0259687Y0090877D01*
X0259687Y0091973D02*
X0200237Y0091973D01*
X0200237Y0092972D02*
X0259687Y0092972D01*
X0259687Y0093970D02*
X0200237Y0093970D01*
X0199515Y0094969D02*
X0259687Y0094969D01*
X0259931Y0095968D02*
X0198516Y0095968D01*
X0197518Y0096966D02*
X0260930Y0096966D01*
X0268147Y0098963D02*
X0273427Y0098963D01*
X0270144Y0096966D02*
X0338537Y0096966D01*
X0338537Y0095968D02*
X0322316Y0095968D01*
X0322999Y0095684D02*
X0321272Y0096400D01*
X0314202Y0096400D01*
X0312475Y0095684D01*
X0311153Y0094362D01*
X0310437Y0092635D01*
X0310437Y0090765D01*
X0311153Y0089038D01*
X0312475Y0087716D01*
X0314202Y0087000D01*
X0321272Y0087000D01*
X0322999Y0087716D01*
X0324321Y0089038D01*
X0325037Y0090765D01*
X0325037Y0092635D01*
X0324321Y0094362D01*
X0322999Y0095684D01*
X0323715Y0094969D02*
X0338537Y0094969D01*
X0338537Y0093970D02*
X0324484Y0093970D01*
X0324897Y0092972D02*
X0338537Y0092972D01*
X0338537Y0091973D02*
X0325037Y0091973D01*
X0325037Y0090975D02*
X0338537Y0090975D01*
X0338537Y0089976D02*
X0324710Y0089976D01*
X0324262Y0088978D02*
X0338537Y0088978D01*
X0338537Y0087979D02*
X0323263Y0087979D01*
X0322280Y0085982D02*
X0338537Y0085982D01*
X0338537Y0084984D02*
X0323700Y0084984D01*
X0324321Y0084362D02*
X0322999Y0085684D01*
X0321272Y0086400D01*
X0314202Y0086400D01*
X0312475Y0085684D01*
X0311153Y0084362D01*
X0310437Y0082635D01*
X0310437Y0080765D01*
X0311153Y0079038D01*
X0312475Y0077716D01*
X0314202Y0077000D01*
X0321272Y0077000D01*
X0322999Y0077716D01*
X0324321Y0079038D01*
X0325037Y0080765D01*
X0325037Y0082635D01*
X0324321Y0084362D01*
X0324478Y0083985D02*
X0338537Y0083985D01*
X0338537Y0082987D02*
X0324891Y0082987D01*
X0325037Y0081988D02*
X0338537Y0081988D01*
X0338537Y0080990D02*
X0325037Y0080990D01*
X0324716Y0079991D02*
X0338537Y0079991D01*
X0338537Y0078993D02*
X0324277Y0078993D01*
X0323278Y0077994D02*
X0338537Y0077994D01*
X0338537Y0076996D02*
X0270114Y0076996D01*
X0270496Y0076614D02*
X0268851Y0078259D01*
X0266701Y0079150D01*
X0264373Y0079150D01*
X0262223Y0078259D01*
X0260578Y0076614D01*
X0259687Y0074464D01*
X0259687Y0072136D01*
X0260578Y0069986D01*
X0261505Y0069059D01*
X0261023Y0068859D01*
X0259378Y0067214D01*
X0258487Y0065064D01*
X0258487Y0062736D01*
X0259378Y0060586D01*
X0261023Y0058941D01*
X0263173Y0058050D01*
X0265501Y0058050D01*
X0267651Y0058941D01*
X0269296Y0060586D01*
X0270187Y0062736D01*
X0270187Y0065064D01*
X0269296Y0067214D01*
X0268369Y0068141D01*
X0268851Y0068341D01*
X0270496Y0069986D01*
X0271387Y0072136D01*
X0271387Y0074464D01*
X0270496Y0076614D01*
X0270752Y0075997D02*
X0283230Y0075997D01*
X0282475Y0075684D02*
X0281153Y0074362D01*
X0280437Y0072635D01*
X0280437Y0070765D01*
X0281153Y0069038D01*
X0282475Y0067716D01*
X0284202Y0067000D01*
X0291272Y0067000D01*
X0292999Y0067716D01*
X0294321Y0069038D01*
X0295037Y0070765D01*
X0295037Y0072635D01*
X0294321Y0074362D01*
X0292999Y0075684D01*
X0291272Y0076400D01*
X0284202Y0076400D01*
X0282475Y0075684D01*
X0281789Y0074999D02*
X0271165Y0074999D01*
X0271387Y0074000D02*
X0281003Y0074000D01*
X0280589Y0073002D02*
X0271387Y0073002D01*
X0271332Y0072003D02*
X0280437Y0072003D01*
X0280437Y0071005D02*
X0270918Y0071005D01*
X0270505Y0070006D02*
X0280751Y0070006D01*
X0281182Y0069008D02*
X0269518Y0069008D01*
X0268501Y0068009D02*
X0282181Y0068009D01*
X0284176Y0067011D02*
X0269381Y0067011D01*
X0269794Y0066012D02*
X0283266Y0066012D01*
X0282475Y0065684D02*
X0281153Y0064362D01*
X0280437Y0062635D01*
X0280437Y0060765D01*
X0281153Y0059038D01*
X0282475Y0057716D01*
X0284202Y0057000D01*
X0291272Y0057000D01*
X0292999Y0057716D01*
X0294321Y0059038D01*
X0295037Y0060765D01*
X0295037Y0062635D01*
X0294321Y0064362D01*
X0292999Y0065684D01*
X0291272Y0066400D01*
X0284202Y0066400D01*
X0282475Y0065684D01*
X0281804Y0065014D02*
X0270187Y0065014D01*
X0270187Y0064015D02*
X0281009Y0064015D01*
X0280595Y0063017D02*
X0270187Y0063017D01*
X0269889Y0062018D02*
X0280437Y0062018D01*
X0280437Y0061020D02*
X0269476Y0061020D01*
X0268731Y0060021D02*
X0280745Y0060021D01*
X0281168Y0059023D02*
X0267733Y0059023D01*
X0260941Y0059023D02*
X0223437Y0059023D01*
X0223437Y0060021D02*
X0259943Y0060021D01*
X0259198Y0061020D02*
X0223437Y0061020D01*
X0223437Y0062018D02*
X0258785Y0062018D01*
X0258487Y0063017D02*
X0222467Y0063017D01*
X0221469Y0064015D02*
X0258487Y0064015D01*
X0258487Y0065014D02*
X0221697Y0065014D01*
X0222594Y0066012D02*
X0258880Y0066012D01*
X0259294Y0067011D02*
X0223007Y0067011D01*
X0223237Y0068009D02*
X0260173Y0068009D01*
X0261381Y0069008D02*
X0223237Y0069008D01*
X0223237Y0070006D02*
X0227984Y0070006D01*
X0228590Y0069400D02*
X0225837Y0072153D01*
X0225837Y0076047D01*
X0228590Y0078800D01*
X0232484Y0078800D01*
X0235237Y0076047D01*
X0235237Y0072153D01*
X0232484Y0069400D01*
X0228590Y0069400D01*
X0226985Y0071005D02*
X0223237Y0071005D01*
X0223237Y0072003D02*
X0225987Y0072003D01*
X0225837Y0073002D02*
X0223237Y0073002D01*
X0223237Y0074000D02*
X0225837Y0074000D01*
X0225837Y0074999D02*
X0223086Y0074999D01*
X0222673Y0075997D02*
X0225837Y0075997D01*
X0226786Y0076996D02*
X0221888Y0076996D01*
X0233289Y0077994D02*
X0240385Y0077994D01*
X0239386Y0076996D02*
X0234288Y0076996D01*
X0235237Y0075997D02*
X0238637Y0075997D01*
X0238637Y0074999D02*
X0235237Y0074999D01*
X0235237Y0074000D02*
X0238637Y0074000D01*
X0238637Y0073002D02*
X0235237Y0073002D01*
X0235087Y0072003D02*
X0238987Y0072003D01*
X0239985Y0071005D02*
X0234089Y0071005D01*
X0233090Y0070006D02*
X0240984Y0070006D01*
X0245690Y0070006D02*
X0260569Y0070006D01*
X0260156Y0071005D02*
X0246689Y0071005D01*
X0247687Y0072003D02*
X0259742Y0072003D01*
X0259687Y0073002D02*
X0248037Y0073002D01*
X0248037Y0074000D02*
X0259687Y0074000D01*
X0259909Y0074999D02*
X0248037Y0074999D01*
X0248037Y0075997D02*
X0260322Y0075997D01*
X0260960Y0076996D02*
X0247288Y0076996D01*
X0246289Y0077994D02*
X0261958Y0077994D01*
X0263994Y0078993D02*
X0246077Y0078993D01*
X0245684Y0078600D02*
X0245684Y0078600D01*
X0247075Y0079991D02*
X0280758Y0079991D01*
X0280437Y0080765D02*
X0281153Y0079038D01*
X0282475Y0077716D01*
X0284202Y0077000D01*
X0291272Y0077000D01*
X0292999Y0077716D01*
X0294321Y0079038D01*
X0295037Y0080765D01*
X0295037Y0082635D01*
X0294321Y0084362D01*
X0292999Y0085684D01*
X0291272Y0086400D01*
X0284202Y0086400D01*
X0282475Y0085684D01*
X0281153Y0084362D01*
X0280437Y0082635D01*
X0280437Y0080765D01*
X0280437Y0080990D02*
X0248074Y0080990D01*
X0248437Y0081988D02*
X0280437Y0081988D01*
X0280583Y0082987D02*
X0248437Y0082987D01*
X0248437Y0083985D02*
X0280996Y0083985D01*
X0281774Y0084984D02*
X0248437Y0084984D01*
X0247701Y0085982D02*
X0283194Y0085982D01*
X0284202Y0087000D02*
X0291272Y0087000D01*
X0292999Y0087716D01*
X0294321Y0089038D01*
X0295037Y0090765D01*
X0295037Y0092635D01*
X0294321Y0094362D01*
X0292999Y0095684D01*
X0291272Y0096400D01*
X0284202Y0096400D01*
X0282475Y0095684D01*
X0281153Y0094362D01*
X0280437Y0092635D01*
X0280437Y0090765D01*
X0281153Y0089038D01*
X0282475Y0087716D01*
X0284202Y0087000D01*
X0282211Y0087979D02*
X0268490Y0087979D01*
X0269488Y0088978D02*
X0281212Y0088978D01*
X0280764Y0089976D02*
X0270487Y0089976D01*
X0271387Y0090975D02*
X0280437Y0090975D01*
X0280437Y0091973D02*
X0271387Y0091973D01*
X0271387Y0092972D02*
X0280577Y0092972D01*
X0280990Y0093970D02*
X0271387Y0093970D01*
X0271387Y0094969D02*
X0281759Y0094969D01*
X0283158Y0095968D02*
X0271143Y0095968D01*
X0269146Y0097965D02*
X0338537Y0097965D01*
X0338537Y0098963D02*
X0306847Y0098963D01*
X0305884Y0098000D02*
X0308637Y0100753D01*
X0308637Y0104647D01*
X0305884Y0107400D01*
X0301990Y0107400D01*
X0299237Y0104647D01*
X0299237Y0100753D01*
X0301990Y0098000D01*
X0305884Y0098000D01*
X0307845Y0099962D02*
X0338537Y0099962D01*
X0338537Y0100960D02*
X0308637Y0100960D01*
X0308637Y0101959D02*
X0338537Y0101959D01*
X0338537Y0102957D02*
X0308637Y0102957D01*
X0308637Y0103956D02*
X0338537Y0103956D01*
X0338537Y0104954D02*
X0308330Y0104954D01*
X0307331Y0105953D02*
X0338537Y0105953D01*
X0338537Y0106951D02*
X0306333Y0106951D01*
X0301541Y0106951D02*
X0286333Y0106951D01*
X0287331Y0105953D02*
X0300543Y0105953D01*
X0299544Y0104954D02*
X0288330Y0104954D01*
X0288637Y0103956D02*
X0299237Y0103956D01*
X0299237Y0102957D02*
X0288637Y0102957D01*
X0288637Y0101959D02*
X0299237Y0101959D01*
X0299237Y0100960D02*
X0288637Y0100960D01*
X0287845Y0099962D02*
X0300029Y0099962D01*
X0301027Y0098963D02*
X0286847Y0098963D01*
X0281027Y0098963D02*
X0279247Y0098963D01*
X0292316Y0095968D02*
X0313158Y0095968D01*
X0311759Y0094969D02*
X0293715Y0094969D01*
X0294484Y0093970D02*
X0310990Y0093970D01*
X0310577Y0092972D02*
X0294897Y0092972D01*
X0295037Y0091973D02*
X0310437Y0091973D01*
X0310437Y0090975D02*
X0295037Y0090975D01*
X0294710Y0089976D02*
X0310764Y0089976D01*
X0311212Y0088978D02*
X0294262Y0088978D01*
X0293263Y0087979D02*
X0312211Y0087979D01*
X0313194Y0085982D02*
X0292280Y0085982D01*
X0293700Y0084984D02*
X0311774Y0084984D01*
X0310996Y0083985D02*
X0294478Y0083985D01*
X0294891Y0082987D02*
X0310583Y0082987D01*
X0310437Y0081988D02*
X0295037Y0081988D01*
X0295037Y0080990D02*
X0310437Y0080990D01*
X0310758Y0079991D02*
X0294716Y0079991D01*
X0294277Y0078993D02*
X0311197Y0078993D01*
X0312196Y0077994D02*
X0293278Y0077994D01*
X0292244Y0075997D02*
X0313230Y0075997D01*
X0312475Y0075684D02*
X0311153Y0074362D01*
X0310437Y0072635D01*
X0310437Y0070765D01*
X0311153Y0069038D01*
X0312475Y0067716D01*
X0314202Y0067000D01*
X0321272Y0067000D01*
X0322999Y0067716D01*
X0324321Y0069038D01*
X0325037Y0070765D01*
X0325037Y0072635D01*
X0324321Y0074362D01*
X0322999Y0075684D01*
X0321272Y0076400D01*
X0314202Y0076400D01*
X0312475Y0075684D01*
X0311789Y0074999D02*
X0293685Y0074999D01*
X0294471Y0074000D02*
X0311003Y0074000D01*
X0310589Y0073002D02*
X0294885Y0073002D01*
X0295037Y0072003D02*
X0310437Y0072003D01*
X0310437Y0071005D02*
X0295037Y0071005D01*
X0294723Y0070006D02*
X0310751Y0070006D01*
X0311182Y0069008D02*
X0294292Y0069008D01*
X0293293Y0068009D02*
X0312181Y0068009D01*
X0314176Y0067011D02*
X0291298Y0067011D01*
X0292208Y0066012D02*
X0313266Y0066012D01*
X0312475Y0065684D02*
X0314202Y0066400D01*
X0321272Y0066400D01*
X0322999Y0065684D01*
X0324321Y0064362D01*
X0325037Y0062635D01*
X0325037Y0060765D01*
X0324321Y0059038D01*
X0322999Y0057716D01*
X0321272Y0057000D01*
X0314202Y0057000D01*
X0312475Y0057716D01*
X0311153Y0059038D01*
X0310437Y0060765D01*
X0310437Y0062635D01*
X0311153Y0064362D01*
X0312475Y0065684D01*
X0311804Y0065014D02*
X0293670Y0065014D01*
X0294465Y0064015D02*
X0311009Y0064015D01*
X0310595Y0063017D02*
X0294879Y0063017D01*
X0295037Y0062018D02*
X0310437Y0062018D01*
X0310437Y0061020D02*
X0295037Y0061020D01*
X0294729Y0060021D02*
X0310745Y0060021D01*
X0311168Y0059023D02*
X0294306Y0059023D01*
X0293308Y0058024D02*
X0312166Y0058024D01*
X0314140Y0057026D02*
X0291334Y0057026D01*
X0284140Y0057026D02*
X0247258Y0057026D01*
X0248037Y0056247D02*
X0245284Y0059000D01*
X0241390Y0059000D01*
X0238637Y0056247D01*
X0238637Y0052353D01*
X0241390Y0049600D01*
X0245284Y0049600D01*
X0248037Y0052353D01*
X0248037Y0056247D01*
X0248037Y0056027D02*
X0338537Y0056027D01*
X0338537Y0055029D02*
X0248037Y0055029D01*
X0248037Y0054030D02*
X0338537Y0054030D01*
X0338537Y0053032D02*
X0248037Y0053032D01*
X0247717Y0052033D02*
X0338537Y0052033D01*
X0338537Y0051034D02*
X0246718Y0051034D01*
X0245720Y0050036D02*
X0338537Y0050036D01*
X0338537Y0049037D02*
X0321673Y0049037D01*
X0322839Y0048039D02*
X0338537Y0048039D01*
X0338537Y0047040D02*
X0323837Y0047040D01*
X0324321Y0046042D02*
X0338537Y0046042D01*
X0338537Y0045043D02*
X0324734Y0045043D01*
X0325037Y0044045D02*
X0338537Y0044045D01*
X0338537Y0043046D02*
X0325037Y0043046D01*
X0325037Y0042048D02*
X0338537Y0042048D01*
X0338537Y0041049D02*
X0324855Y0041049D01*
X0324442Y0040051D02*
X0338537Y0040051D01*
X0338537Y0039052D02*
X0324028Y0039052D01*
X0323132Y0038054D02*
X0338537Y0038054D01*
X0338537Y0037055D02*
X0322133Y0037055D01*
X0319969Y0036057D02*
X0338537Y0036057D01*
X0338537Y0029067D02*
X0321811Y0029067D01*
X0322809Y0028069D02*
X0338537Y0028069D01*
X0338537Y0027070D02*
X0323808Y0027070D01*
X0324806Y0026072D02*
X0338537Y0026072D01*
X0338537Y0025073D02*
X0325037Y0025073D01*
X0325037Y0024075D02*
X0338537Y0024075D01*
X0338537Y0023076D02*
X0325037Y0023076D01*
X0325037Y0022078D02*
X0338537Y0022078D01*
X0338537Y0021079D02*
X0325037Y0021079D01*
X0325037Y0020081D02*
X0338537Y0020081D01*
X0338537Y0019082D02*
X0324160Y0019082D01*
X0323162Y0018084D02*
X0338537Y0018084D01*
X0338537Y0017085D02*
X0322163Y0017085D01*
X0321165Y0016087D02*
X0338537Y0016087D01*
X0311432Y0040051D02*
X0268761Y0040051D01*
X0269760Y0041049D02*
X0311019Y0041049D01*
X0310837Y0042048D02*
X0270187Y0042048D01*
X0270187Y0043046D02*
X0310837Y0043046D01*
X0310837Y0044045D02*
X0270187Y0044045D01*
X0270187Y0045043D02*
X0311140Y0045043D01*
X0311553Y0046042D02*
X0270187Y0046042D01*
X0269470Y0047040D02*
X0312037Y0047040D01*
X0313035Y0048039D02*
X0268471Y0048039D01*
X0267473Y0049037D02*
X0314201Y0049037D01*
X0321334Y0057026D02*
X0338537Y0057026D01*
X0338537Y0058024D02*
X0323308Y0058024D01*
X0324306Y0059023D02*
X0338537Y0059023D01*
X0338537Y0060021D02*
X0324729Y0060021D01*
X0325037Y0061020D02*
X0338537Y0061020D01*
X0338537Y0062018D02*
X0325037Y0062018D01*
X0324879Y0063017D02*
X0338537Y0063017D01*
X0338537Y0064015D02*
X0324465Y0064015D01*
X0323670Y0065014D02*
X0338537Y0065014D01*
X0338537Y0066012D02*
X0322208Y0066012D01*
X0321298Y0067011D02*
X0338537Y0067011D01*
X0338537Y0068009D02*
X0323293Y0068009D01*
X0324292Y0069008D02*
X0338537Y0069008D01*
X0338537Y0070006D02*
X0324723Y0070006D01*
X0325037Y0071005D02*
X0338537Y0071005D01*
X0338537Y0072003D02*
X0325037Y0072003D01*
X0324885Y0073002D02*
X0338537Y0073002D01*
X0338537Y0074000D02*
X0324471Y0074000D01*
X0323685Y0074999D02*
X0338537Y0074999D01*
X0338537Y0075997D02*
X0322244Y0075997D01*
X0338537Y0086981D02*
X0246703Y0086981D01*
X0245704Y0087979D02*
X0262584Y0087979D01*
X0267080Y0078993D02*
X0281197Y0078993D01*
X0282196Y0077994D02*
X0269116Y0077994D01*
X0282166Y0058024D02*
X0246260Y0058024D01*
X0240414Y0058024D02*
X0233260Y0058024D01*
X0234258Y0057026D02*
X0239416Y0057026D01*
X0238637Y0056027D02*
X0235237Y0056027D01*
X0235237Y0055029D02*
X0238637Y0055029D01*
X0238637Y0054030D02*
X0235237Y0054030D01*
X0235237Y0053032D02*
X0238637Y0053032D01*
X0238957Y0052033D02*
X0235117Y0052033D01*
X0234118Y0051034D02*
X0239956Y0051034D01*
X0240954Y0050036D02*
X0233120Y0050036D01*
X0226816Y0057026D02*
X0222309Y0057026D01*
X0223308Y0058024D02*
X0227814Y0058024D01*
X0225837Y0056027D02*
X0221311Y0056027D01*
X0202637Y0087979D02*
X0197863Y0087979D01*
X0198862Y0088978D02*
X0203568Y0088978D01*
X0193211Y0087979D02*
X0187863Y0087979D01*
X0188862Y0088978D02*
X0192212Y0088978D01*
X0191214Y0089976D02*
X0189860Y0089976D01*
X0190237Y0090975D02*
X0190837Y0090975D01*
X0190837Y0091973D02*
X0190237Y0091973D01*
X0190237Y0092972D02*
X0190837Y0092972D01*
X0190837Y0093970D02*
X0190237Y0093970D01*
X0189515Y0094969D02*
X0191559Y0094969D01*
X0192558Y0095968D02*
X0188516Y0095968D01*
X0187518Y0096966D02*
X0193556Y0096966D01*
X0219848Y0103956D02*
X0226237Y0103956D01*
X0226147Y0104954D02*
X0221638Y0104954D01*
X0222569Y0105953D02*
X0225149Y0105953D01*
X0224150Y0106951D02*
X0222983Y0106951D01*
X0223237Y0107950D02*
X0223425Y0107950D01*
X0223237Y0108948D02*
X0223237Y0108948D01*
X0223237Y0109947D02*
X0223237Y0109947D01*
X0223237Y0110945D02*
X0223237Y0110945D01*
X0223237Y0111944D02*
X0223237Y0111944D01*
X0223237Y0112942D02*
X0223237Y0112942D01*
X0223237Y0113941D02*
X0223237Y0113941D01*
X0223237Y0114939D02*
X0223111Y0114939D01*
X0223237Y0115938D02*
X0222697Y0115938D01*
X0223237Y0116936D02*
X0221948Y0116936D01*
X0222619Y0117935D02*
X0223237Y0117935D01*
X0235346Y0115938D02*
X0242728Y0115938D01*
X0241729Y0114939D02*
X0236345Y0114939D01*
X0236437Y0113941D02*
X0241437Y0113941D01*
X0241437Y0112942D02*
X0236437Y0112942D01*
X0236437Y0111944D02*
X0241437Y0111944D01*
X0241437Y0110945D02*
X0236429Y0110945D01*
X0235430Y0109947D02*
X0242244Y0109947D01*
X0243242Y0108948D02*
X0234432Y0108948D01*
X0233334Y0107950D02*
X0241740Y0107950D01*
X0240741Y0106951D02*
X0234333Y0106951D01*
X0235331Y0105953D02*
X0239743Y0105953D01*
X0239037Y0104954D02*
X0235637Y0104954D01*
X0235637Y0103956D02*
X0239037Y0103956D01*
X0239037Y0102957D02*
X0235637Y0102957D01*
X0235637Y0101959D02*
X0239037Y0101959D01*
X0239430Y0100960D02*
X0234844Y0100960D01*
X0233845Y0099962D02*
X0240429Y0099962D01*
X0245734Y0107950D02*
X0338537Y0107950D01*
X0338537Y0108948D02*
X0285832Y0108948D01*
X0286830Y0109947D02*
X0338537Y0109947D01*
X0338537Y0110945D02*
X0287829Y0110945D01*
X0288437Y0111944D02*
X0338537Y0111944D01*
X0338537Y0112942D02*
X0288437Y0112942D01*
X0288437Y0113941D02*
X0338537Y0113941D01*
X0338537Y0114939D02*
X0288437Y0114939D01*
X0287946Y0115938D02*
X0338537Y0115938D01*
X0338537Y0116936D02*
X0286948Y0116936D01*
X0285949Y0117935D02*
X0338537Y0117935D01*
X0338537Y0118933D02*
X0285817Y0118933D01*
X0286816Y0119932D02*
X0338537Y0119932D01*
X0338537Y0120930D02*
X0287814Y0120930D01*
X0288437Y0121929D02*
X0338537Y0121929D01*
X0338537Y0122927D02*
X0288437Y0122927D01*
X0288437Y0123926D02*
X0338537Y0123926D01*
X0338537Y0124924D02*
X0288437Y0124924D01*
X0287961Y0125923D02*
X0338537Y0125923D01*
X0338537Y0126921D02*
X0286962Y0126921D01*
X0285964Y0127920D02*
X0338537Y0127920D01*
X0338537Y0128918D02*
X0287202Y0128918D01*
X0288201Y0129917D02*
X0338537Y0129917D01*
X0338537Y0130915D02*
X0289199Y0130915D01*
X0289837Y0131914D02*
X0338537Y0131914D01*
X0338537Y0132912D02*
X0289837Y0132912D01*
X0289837Y0133911D02*
X0338537Y0133911D01*
X0338537Y0134909D02*
X0289837Y0134909D01*
X0289376Y0135908D02*
X0338537Y0135908D01*
X0338537Y0136906D02*
X0288377Y0136906D01*
X0287379Y0137905D02*
X0338537Y0137905D01*
X0338537Y0138903D02*
X0287587Y0138903D01*
X0287084Y0138400D02*
X0289837Y0141153D01*
X0289837Y0145047D01*
X0287084Y0147800D01*
X0283190Y0147800D01*
X0280437Y0145047D01*
X0280437Y0141153D01*
X0283190Y0138400D01*
X0287084Y0138400D01*
X0288586Y0139902D02*
X0338537Y0139902D01*
X0338537Y0140901D02*
X0289584Y0140901D01*
X0289837Y0141899D02*
X0338537Y0141899D01*
X0338537Y0142898D02*
X0289837Y0142898D01*
X0289837Y0143896D02*
X0338537Y0143896D01*
X0338537Y0144895D02*
X0289837Y0144895D01*
X0288991Y0145893D02*
X0338537Y0145893D01*
X0338537Y0146892D02*
X0287992Y0146892D01*
X0282282Y0146892D02*
X0267992Y0146892D01*
X0268991Y0145893D02*
X0281283Y0145893D01*
X0280437Y0144895D02*
X0269837Y0144895D01*
X0269837Y0143896D02*
X0280437Y0143896D01*
X0280437Y0142898D02*
X0269837Y0142898D01*
X0269837Y0141899D02*
X0280437Y0141899D01*
X0280690Y0140901D02*
X0269584Y0140901D01*
X0268586Y0139902D02*
X0281688Y0139902D01*
X0282687Y0138903D02*
X0267587Y0138903D01*
X0267379Y0137905D02*
X0282895Y0137905D01*
X0281897Y0136906D02*
X0268377Y0136906D01*
X0269376Y0135908D02*
X0280898Y0135908D01*
X0280437Y0134909D02*
X0269837Y0134909D01*
X0269837Y0133911D02*
X0280437Y0133911D01*
X0280437Y0132912D02*
X0269837Y0132912D01*
X0269837Y0131914D02*
X0280437Y0131914D01*
X0281075Y0130915D02*
X0269199Y0130915D01*
X0268201Y0129917D02*
X0282073Y0129917D01*
X0262895Y0137905D02*
X0260179Y0137905D01*
X0261177Y0136906D02*
X0261897Y0136906D01*
X0262687Y0138903D02*
X0223587Y0138903D01*
X0223637Y0139902D02*
X0261688Y0139902D01*
X0260690Y0140901D02*
X0223637Y0140901D01*
X0223637Y0141899D02*
X0260437Y0141899D01*
X0260437Y0142898D02*
X0223586Y0142898D01*
X0222588Y0143896D02*
X0260437Y0143896D01*
X0260437Y0144895D02*
X0221589Y0144895D01*
X0222589Y0137905D02*
X0235695Y0137905D01*
X0234697Y0136906D02*
X0221590Y0136906D01*
X0204892Y0139902D02*
X0200429Y0139902D01*
X0200843Y0138903D02*
X0203894Y0138903D01*
X0202895Y0137905D02*
X0201037Y0137905D01*
X0201037Y0136906D02*
X0202237Y0136906D01*
X0202237Y0135908D02*
X0200765Y0135908D01*
X0200351Y0134909D02*
X0202237Y0134909D01*
X0202237Y0133911D02*
X0199395Y0133911D01*
X0188079Y0133911D02*
X0159395Y0133911D01*
X0160351Y0134909D02*
X0187123Y0134909D01*
X0186709Y0135908D02*
X0160765Y0135908D01*
X0161037Y0136906D02*
X0186437Y0136906D01*
X0186437Y0137905D02*
X0161037Y0137905D01*
X0160843Y0138903D02*
X0186631Y0138903D01*
X0187045Y0139902D02*
X0160429Y0139902D01*
X0159583Y0140901D02*
X0187891Y0140901D01*
X0189476Y0141899D02*
X0157998Y0141899D01*
X0149476Y0141899D02*
X0040937Y0141899D01*
X0040937Y0140901D02*
X0147891Y0140901D01*
X0147045Y0139902D02*
X0040937Y0139902D01*
X0040937Y0138903D02*
X0146631Y0138903D01*
X0146437Y0137905D02*
X0040937Y0137905D01*
X0040937Y0136906D02*
X0146437Y0136906D01*
X0146709Y0135908D02*
X0040937Y0135908D01*
X0040937Y0134909D02*
X0147123Y0134909D01*
X0148079Y0133911D02*
X0040937Y0133911D01*
X0148665Y0086981D02*
X0157886Y0086981D01*
X0157472Y0087979D02*
X0149663Y0087979D01*
X0150662Y0088978D02*
X0157437Y0088978D01*
X0157454Y0089976D02*
X0151037Y0089976D01*
X0151037Y0090975D02*
X0157868Y0090975D01*
X0158464Y0091973D02*
X0151037Y0091973D01*
X0151037Y0092972D02*
X0159462Y0092972D01*
X0240002Y0128918D02*
X0255872Y0128918D01*
X0254873Y0129917D02*
X0241001Y0129917D01*
X0241999Y0130915D02*
X0253875Y0130915D01*
X0253237Y0131914D02*
X0242637Y0131914D01*
X0242637Y0132912D02*
X0253237Y0132912D01*
X0253237Y0133911D02*
X0242637Y0133911D01*
X0242637Y0134909D02*
X0253237Y0134909D01*
X0253698Y0135908D02*
X0242176Y0135908D01*
X0241177Y0136906D02*
X0254697Y0136906D01*
X0255695Y0137905D02*
X0240179Y0137905D01*
X0248562Y0126921D02*
X0261812Y0126921D01*
X0261037Y0125923D02*
X0249561Y0125923D01*
X0250559Y0124924D02*
X0261037Y0124924D01*
X0261037Y0123926D02*
X0250837Y0123926D01*
X0250837Y0122927D02*
X0261037Y0122927D01*
X0261361Y0121929D02*
X0250837Y0121929D01*
X0250837Y0120930D02*
X0258321Y0120930D01*
X0257322Y0119932D02*
X0250016Y0119932D01*
X0249017Y0118933D02*
X0256323Y0118933D01*
X0265151Y0118933D02*
X0266323Y0118933D01*
X0266037Y0117935D02*
X0265437Y0117935D01*
X0265437Y0116936D02*
X0266037Y0116936D01*
X0266037Y0115938D02*
X0265437Y0115938D01*
X0265437Y0114939D02*
X0266037Y0114939D01*
X0266849Y0113941D02*
X0264625Y0113941D01*
X0263626Y0112942D02*
X0267848Y0112942D01*
X0279645Y0110945D02*
X0250837Y0110945D01*
X0250030Y0109947D02*
X0280644Y0109947D01*
X0281642Y0108948D02*
X0249032Y0108948D01*
X0278733Y0106951D02*
X0281541Y0106951D01*
X0280543Y0105953D02*
X0279731Y0105953D01*
M02*
