G75*
%MOIN*%
%OFA0B0*%
%FSLAX25Y25*%
%IPPOS*%
%LPD*%
%AMOC8*
5,1,8,0,0,1.08239X$1,22.5*
%
%ADD10OC8,0.05200*%
%ADD11C,0.07500*%
%ADD12OC8,0.07500*%
%ADD13C,0.10000*%
%ADD14OC8,0.10000*%
%ADD15C,0.05200*%
%ADD16OC8,0.06000*%
%ADD17C,0.08600*%
%ADD18C,0.00800*%
%ADD19C,0.01000*%
D10*
X0095937Y0020100D03*
X0115937Y0020100D03*
X0123937Y0020100D03*
X0123937Y0028100D03*
X0138537Y0034100D03*
X0138537Y0044100D03*
X0123937Y0048100D03*
X0108937Y0043500D03*
X0108937Y0033500D03*
X0143937Y0020100D03*
X0153537Y0020100D03*
X0173537Y0020100D03*
X0187737Y0020500D03*
X0187737Y0030500D03*
X0207537Y0028100D03*
X0217537Y0028100D03*
X0212537Y0020600D03*
X0230737Y0021300D03*
X0239937Y0021300D03*
X0259937Y0021300D03*
X0271137Y0021300D03*
X0291137Y0021300D03*
X0284337Y0033900D03*
X0274337Y0033900D03*
X0259537Y0032500D03*
X0239537Y0032500D03*
X0230737Y0041300D03*
X0218737Y0040100D03*
X0207537Y0044700D03*
X0187537Y0044700D03*
X0186737Y0056500D03*
X0168537Y0062800D03*
X0163537Y0070300D03*
X0173537Y0070300D03*
X0185937Y0066500D03*
X0205937Y0066500D03*
X0218737Y0060100D03*
X0206737Y0056500D03*
X0230537Y0054100D03*
X0243337Y0054300D03*
X0243337Y0074300D03*
X0230537Y0074100D03*
X0230937Y0083700D03*
X0243737Y0083300D03*
X0207337Y0086100D03*
X0195537Y0092300D03*
X0185537Y0092300D03*
X0194537Y0105900D03*
X0207337Y0106100D03*
X0206937Y0115300D03*
X0218937Y0120900D03*
X0231737Y0122900D03*
X0246137Y0122700D03*
X0260737Y0116700D03*
X0270737Y0116700D03*
X0283737Y0113500D03*
X0283737Y0123500D03*
X0265737Y0124200D03*
X0265137Y0133500D03*
X0257937Y0133500D03*
X0265137Y0143100D03*
X0285137Y0143100D03*
X0285137Y0133500D03*
X0246137Y0112700D03*
X0231737Y0112900D03*
X0230937Y0103700D03*
X0243737Y0103300D03*
X0256337Y0102700D03*
X0276337Y0102700D03*
X0283937Y0102700D03*
X0303937Y0102700D03*
X0237937Y0133500D03*
X0218937Y0140900D03*
X0206937Y0135300D03*
X0194537Y0125900D03*
X0155537Y0124700D03*
X0135537Y0124700D03*
X0135137Y0116900D03*
X0123537Y0113700D03*
X0123537Y0105700D03*
X0113937Y0105300D03*
X0103937Y0105300D03*
X0092337Y0098500D03*
X0092537Y0090500D03*
X0103937Y0085300D03*
X0113937Y0085300D03*
X0123537Y0085700D03*
X0134137Y0087700D03*
X0146337Y0091300D03*
X0135137Y0096900D03*
X0146337Y0111300D03*
X0103537Y0113700D03*
X0092337Y0118500D03*
X0134137Y0077700D03*
X0123537Y0076500D03*
X0109137Y0075500D03*
X0092537Y0070500D03*
X0123537Y0056500D03*
X0134137Y0055500D03*
X0134137Y0065500D03*
X0147737Y0068300D03*
X0147737Y0078300D03*
X0186337Y0076100D03*
X0206337Y0076100D03*
X0109137Y0055500D03*
D11*
X0264337Y0063900D03*
X0265537Y0073300D03*
D12*
X0265537Y0093300D03*
X0264337Y0043900D03*
D13*
X0317937Y0042900D03*
X0087937Y0047900D03*
D14*
X0067937Y0047900D03*
X0317937Y0022900D03*
D15*
X0320337Y0061700D02*
X0315137Y0061700D01*
X0315137Y0071700D02*
X0320337Y0071700D01*
X0320337Y0081700D02*
X0315137Y0081700D01*
X0315137Y0091700D02*
X0320337Y0091700D01*
X0290337Y0091700D02*
X0285137Y0091700D01*
X0285137Y0081700D02*
X0290337Y0081700D01*
X0290337Y0071700D02*
X0285137Y0071700D01*
X0285137Y0061700D02*
X0290337Y0061700D01*
X0218537Y0068500D02*
X0218537Y0073700D01*
X0167337Y0089000D02*
X0162137Y0089000D01*
X0162137Y0104000D02*
X0167337Y0104000D01*
X0218537Y0108500D02*
X0218537Y0113700D01*
X0196337Y0137500D02*
X0191137Y0137500D01*
X0156337Y0137500D02*
X0151137Y0137500D01*
X0159737Y0048400D02*
X0164937Y0048400D01*
X0164937Y0033400D02*
X0159737Y0033400D01*
D16*
X0147337Y0054100D03*
X0082737Y0019900D03*
X0069137Y0019900D03*
D17*
X0055337Y0086615D03*
X0055337Y0106300D03*
X0055337Y0125985D03*
D18*
X0048137Y0118785D01*
X0048137Y0055100D01*
X0055437Y0047800D01*
X0068037Y0047800D01*
X0075337Y0055100D01*
X0097337Y0055100D01*
X0097537Y0054900D01*
X0102537Y0059900D01*
X0102537Y0075900D01*
X0107337Y0080700D01*
X0131137Y0080700D01*
X0131137Y0082900D01*
X0132937Y0084700D01*
X0134137Y0087700D01*
X0140937Y0094500D01*
X0140937Y0100700D01*
X0132137Y0100700D01*
X0129737Y0103100D01*
X0129737Y0120700D01*
X0133737Y0124700D01*
X0135537Y0124700D01*
X0127337Y0131100D02*
X0123537Y0127300D01*
X0123537Y0113700D01*
X0135137Y0116900D02*
X0140737Y0116900D01*
X0146337Y0111300D01*
X0153037Y0104000D02*
X0140137Y0091100D01*
X0140137Y0078300D01*
X0134737Y0078300D01*
X0134137Y0077700D01*
X0132937Y0076500D01*
X0123537Y0076500D01*
X0119137Y0065500D02*
X0109137Y0075500D01*
X0113937Y0085300D02*
X0103937Y0085300D01*
X0092537Y0090500D02*
X0092337Y0090700D01*
X0092337Y0098500D01*
X0103937Y0105300D02*
X0103937Y0113300D01*
X0103537Y0113700D01*
X0098537Y0124700D02*
X0092337Y0118500D01*
X0098537Y0124700D02*
X0118537Y0124700D01*
X0125737Y0132700D01*
X0141737Y0132700D01*
X0143337Y0134300D01*
X0143337Y0140700D01*
X0148937Y0146300D01*
X0260337Y0146300D01*
X0265137Y0143100D01*
X0274537Y0137500D02*
X0252137Y0137500D01*
X0239337Y0125500D01*
X0230337Y0134500D01*
X0206937Y0135300D01*
X0204737Y0137500D01*
X0193737Y0137500D01*
X0198137Y0128700D02*
X0233737Y0128700D01*
X0239337Y0123100D01*
X0245737Y0116700D01*
X0260737Y0116700D01*
X0265737Y0112100D02*
X0265737Y0124200D01*
X0265137Y0133500D02*
X0254337Y0122700D01*
X0246137Y0122700D01*
X0245737Y0128700D02*
X0239337Y0123100D01*
X0231737Y0122900D02*
X0227537Y0126300D01*
X0208937Y0126300D01*
X0200937Y0118300D01*
X0168137Y0118300D01*
X0168137Y0144700D01*
X0149737Y0144700D01*
X0144937Y0139900D01*
X0144937Y0133500D01*
X0142537Y0131100D01*
X0127337Y0131100D01*
X0153737Y0137500D02*
X0155537Y0135700D01*
X0155537Y0124700D01*
X0163537Y0116700D01*
X0201737Y0116700D01*
X0209737Y0124700D01*
X0224937Y0124700D01*
X0226537Y0123100D01*
X0226537Y0110300D01*
X0228937Y0107900D01*
X0239137Y0107900D01*
X0243737Y0103300D01*
X0246337Y0112700D02*
X0256337Y0102700D01*
X0265737Y0112100D01*
X0270737Y0116700D02*
X0276337Y0111100D01*
X0278737Y0113500D01*
X0283737Y0113500D01*
X0276337Y0111100D02*
X0276337Y0102700D01*
X0283937Y0102700D01*
X0303937Y0102700D02*
X0303937Y0085300D01*
X0295337Y0076700D01*
X0281737Y0076700D01*
X0268937Y0063900D01*
X0264337Y0063900D01*
X0227337Y0063900D01*
X0222537Y0068700D01*
X0222537Y0077500D01*
X0214537Y0077500D01*
X0214537Y0075100D01*
X0212737Y0072500D01*
X0196937Y0072500D01*
X0196737Y0083100D01*
X0183337Y0083100D01*
X0177737Y0077500D01*
X0177737Y0060700D01*
X0176137Y0059100D01*
X0159337Y0059100D01*
X0157737Y0060700D01*
X0127737Y0060700D01*
X0123537Y0056500D01*
X0123937Y0056100D01*
X0123937Y0048100D01*
X0134137Y0048500D02*
X0138537Y0044100D01*
X0158037Y0044100D01*
X0162337Y0048400D01*
X0166537Y0044700D02*
X0160937Y0039100D01*
X0113337Y0039100D01*
X0108937Y0043500D01*
X0100337Y0052100D01*
X0105737Y0052100D01*
X0109137Y0055500D01*
X0100337Y0052100D02*
X0097537Y0054900D01*
X0087937Y0047900D02*
X0087937Y0040100D01*
X0094537Y0033500D01*
X0108937Y0033500D01*
X0115937Y0026500D01*
X0115937Y0020100D01*
X0120137Y0020100D01*
X0120137Y0019500D01*
X0128137Y0011500D01*
X0320137Y0011500D01*
X0320137Y0011900D01*
X0325737Y0017500D01*
X0325737Y0067100D01*
X0321737Y0071100D01*
X0318337Y0071100D01*
X0317737Y0071700D01*
X0317737Y0061700D02*
X0317937Y0061500D01*
X0317937Y0042900D01*
X0308937Y0033900D01*
X0284337Y0033900D01*
X0274337Y0033900D02*
X0272937Y0032500D01*
X0259537Y0032500D01*
X0248737Y0032500D02*
X0239537Y0032500D01*
X0230737Y0041300D01*
X0230737Y0053900D01*
X0230537Y0054100D01*
X0224737Y0054100D01*
X0218737Y0060100D01*
X0218737Y0070900D01*
X0218537Y0071100D01*
X0185937Y0071100D01*
X0185937Y0075700D01*
X0186337Y0076100D01*
X0182537Y0084700D02*
X0173537Y0075700D01*
X0173537Y0070300D01*
X0164737Y0071500D02*
X0163537Y0070300D01*
X0149737Y0070300D01*
X0147737Y0068300D01*
X0134137Y0065500D02*
X0119137Y0065500D01*
X0134137Y0055500D02*
X0135537Y0054100D01*
X0147337Y0054100D01*
X0134137Y0055500D02*
X0134137Y0048500D01*
X0166537Y0044700D02*
X0176937Y0044700D01*
X0176937Y0057500D01*
X0185937Y0066500D01*
X0185937Y0071100D01*
X0205937Y0066500D02*
X0206737Y0065700D01*
X0206737Y0056500D01*
X0207537Y0055700D01*
X0207537Y0044700D01*
X0217537Y0038900D02*
X0218737Y0040100D01*
X0217537Y0038900D02*
X0217537Y0028100D01*
X0212537Y0020600D02*
X0230037Y0020600D01*
X0230737Y0021300D01*
X0239937Y0021300D01*
X0248737Y0032500D02*
X0259937Y0021300D01*
X0271137Y0021300D01*
X0291137Y0021300D02*
X0292737Y0022900D01*
X0317937Y0022900D01*
X0287737Y0061700D02*
X0269937Y0043900D01*
X0264337Y0043900D01*
X0253737Y0043900D01*
X0243337Y0054300D01*
X0230737Y0054300D01*
X0230537Y0054100D01*
X0228137Y0066300D02*
X0224937Y0069500D01*
X0224937Y0090300D01*
X0224937Y0114900D01*
X0218937Y0120900D01*
X0206937Y0115300D02*
X0206937Y0113900D01*
X0201737Y0108700D01*
X0201737Y0091700D01*
X0207337Y0086100D01*
X0206337Y0081500D02*
X0196437Y0091400D01*
X0189737Y0084700D01*
X0182537Y0084700D01*
X0182237Y0089000D02*
X0164737Y0089000D01*
X0148637Y0089000D01*
X0146337Y0091300D01*
X0135137Y0096900D02*
X0134737Y0096900D01*
X0123537Y0085700D01*
X0140137Y0078300D02*
X0147737Y0078300D01*
X0164737Y0071500D02*
X0164737Y0089000D01*
X0182237Y0089000D02*
X0185537Y0092300D01*
X0194537Y0093300D02*
X0195537Y0092300D01*
X0196437Y0091400D01*
X0194537Y0093300D02*
X0194537Y0105900D01*
X0207337Y0106100D02*
X0213537Y0106100D01*
X0218537Y0111100D01*
X0231737Y0112900D02*
X0231937Y0112700D01*
X0246137Y0112700D01*
X0246337Y0112700D01*
X0245737Y0128700D02*
X0253137Y0128700D01*
X0257937Y0133500D01*
X0274537Y0137500D02*
X0283737Y0128300D01*
X0283737Y0123500D01*
X0285137Y0133500D02*
X0285137Y0143100D01*
X0237937Y0133500D02*
X0230537Y0140900D01*
X0218937Y0140900D01*
X0198137Y0128700D02*
X0194537Y0125900D01*
X0164737Y0104000D02*
X0153037Y0104000D01*
X0123537Y0105700D02*
X0123137Y0105300D01*
X0113937Y0105300D01*
X0206337Y0081500D02*
X0206337Y0076100D01*
X0228137Y0066300D02*
X0242537Y0066300D01*
X0243337Y0067100D01*
X0243337Y0074300D01*
X0244337Y0073300D01*
X0265537Y0073300D01*
X0274537Y0083900D02*
X0276737Y0081700D01*
X0287737Y0081700D01*
X0274537Y0083900D02*
X0256937Y0083900D01*
X0256537Y0084300D01*
X0250137Y0077900D01*
X0241846Y0077900D01*
X0238046Y0074100D01*
X0230537Y0074100D01*
X0230937Y0074500D01*
X0230937Y0083700D01*
X0238537Y0092700D02*
X0243737Y0087500D01*
X0243737Y0083300D01*
X0256537Y0084300D02*
X0265537Y0093300D01*
X0265937Y0093700D01*
X0238537Y0092700D02*
X0227337Y0092700D01*
X0224937Y0090300D01*
X0287737Y0071700D02*
X0287737Y0061700D01*
X0212537Y0020600D02*
X0207037Y0013500D01*
X0183337Y0013500D01*
X0177537Y0020100D01*
X0173537Y0020100D01*
X0175087Y0033150D02*
X0187737Y0020500D01*
X0187737Y0030500D02*
X0187537Y0030700D01*
X0187537Y0044700D01*
X0176937Y0044700D01*
X0175087Y0033150D02*
X0162087Y0033150D01*
X0162337Y0033400D01*
X0162087Y0033150D02*
X0153537Y0024600D01*
X0153537Y0020100D01*
X0143937Y0020100D01*
X0143937Y0028700D01*
X0138537Y0034100D01*
X0123937Y0028100D02*
X0123937Y0020100D01*
X0120137Y0020100D01*
X0095937Y0020100D02*
X0095737Y0019900D01*
X0082737Y0019900D01*
X0069137Y0019900D02*
X0069137Y0046700D01*
X0068037Y0047800D01*
X0067937Y0047900D01*
D19*
X0040937Y0001500D02*
X0040937Y0153500D01*
X0338537Y0153500D01*
X0338537Y0001500D01*
X0040937Y0001500D01*
X0040937Y0002107D02*
X0338537Y0002107D01*
X0338537Y0003106D02*
X0040937Y0003106D01*
X0040937Y0004104D02*
X0338537Y0004104D01*
X0338537Y0005103D02*
X0040937Y0005103D01*
X0040937Y0006101D02*
X0338537Y0006101D01*
X0338537Y0007100D02*
X0040937Y0007100D01*
X0040937Y0008099D02*
X0338537Y0008099D01*
X0338537Y0009097D02*
X0320869Y0009097D01*
X0320634Y0009000D02*
X0321553Y0009381D01*
X0322256Y0010084D01*
X0322539Y0010767D01*
X0327856Y0016084D01*
X0328237Y0017003D01*
X0328237Y0067597D01*
X0327856Y0068516D01*
X0327153Y0069219D01*
X0325037Y0071336D01*
X0325037Y0072635D01*
X0324321Y0074362D01*
X0322999Y0075684D01*
X0321272Y0076400D01*
X0314202Y0076400D01*
X0312475Y0075684D01*
X0311153Y0074362D01*
X0310437Y0072635D01*
X0310437Y0070765D01*
X0311153Y0069038D01*
X0312475Y0067716D01*
X0314202Y0067000D01*
X0321272Y0067000D01*
X0322000Y0067302D01*
X0323237Y0066064D01*
X0323237Y0065447D01*
X0322999Y0065684D01*
X0321272Y0066400D01*
X0314202Y0066400D01*
X0312475Y0065684D01*
X0311153Y0064362D01*
X0310437Y0062635D01*
X0310437Y0060765D01*
X0311153Y0059038D01*
X0312475Y0057716D01*
X0314202Y0057000D01*
X0315437Y0057000D01*
X0315437Y0049549D01*
X0313915Y0048919D01*
X0311918Y0046922D01*
X0310837Y0044312D01*
X0310837Y0041488D01*
X0311467Y0039966D01*
X0307901Y0036400D01*
X0288484Y0036400D01*
X0286284Y0038600D01*
X0282390Y0038600D01*
X0279637Y0035847D01*
X0279637Y0031953D01*
X0282390Y0029200D01*
X0286284Y0029200D01*
X0288484Y0031400D01*
X0309434Y0031400D01*
X0310353Y0031781D01*
X0315003Y0036430D01*
X0316525Y0035800D01*
X0319349Y0035800D01*
X0321959Y0036881D01*
X0323237Y0038159D01*
X0323237Y0027641D01*
X0320878Y0030000D01*
X0314996Y0030000D01*
X0310837Y0025841D01*
X0310837Y0025400D01*
X0293684Y0025400D01*
X0293084Y0026000D01*
X0289190Y0026000D01*
X0286437Y0023247D01*
X0286437Y0019353D01*
X0289190Y0016600D01*
X0293084Y0016600D01*
X0295837Y0019353D01*
X0295837Y0020400D01*
X0310837Y0020400D01*
X0310837Y0019959D01*
X0314996Y0015800D01*
X0320501Y0015800D01*
X0318721Y0014019D01*
X0318701Y0014000D01*
X0210587Y0014000D01*
X0212059Y0015900D01*
X0214484Y0015900D01*
X0216684Y0018100D01*
X0227290Y0018100D01*
X0228790Y0016600D01*
X0232684Y0016600D01*
X0234884Y0018800D01*
X0235790Y0018800D01*
X0237990Y0016600D01*
X0241884Y0016600D01*
X0244637Y0019353D01*
X0244637Y0023247D01*
X0241884Y0026000D01*
X0237990Y0026000D01*
X0235790Y0023800D01*
X0234884Y0023800D01*
X0232684Y0026000D01*
X0228790Y0026000D01*
X0226037Y0023247D01*
X0226037Y0023100D01*
X0216684Y0023100D01*
X0216384Y0023400D01*
X0219484Y0023400D01*
X0222237Y0026153D01*
X0222237Y0030047D01*
X0220037Y0032247D01*
X0220037Y0035400D01*
X0220684Y0035400D01*
X0223437Y0038153D01*
X0223437Y0042047D01*
X0220684Y0044800D01*
X0216790Y0044800D01*
X0214037Y0042047D01*
X0214037Y0038153D01*
X0215037Y0037153D01*
X0215037Y0032247D01*
X0212837Y0030047D01*
X0212837Y0026153D01*
X0213690Y0025300D01*
X0211384Y0025300D01*
X0212237Y0026153D01*
X0212237Y0030047D01*
X0209484Y0032800D01*
X0205590Y0032800D01*
X0202837Y0030047D01*
X0202837Y0026153D01*
X0205590Y0023400D01*
X0208690Y0023400D01*
X0207837Y0022547D01*
X0207837Y0018653D01*
X0207854Y0018637D01*
X0205811Y0016000D01*
X0189884Y0016000D01*
X0192437Y0018553D01*
X0192437Y0022447D01*
X0189684Y0025200D01*
X0186573Y0025200D01*
X0185973Y0025800D01*
X0189684Y0025800D01*
X0192437Y0028553D01*
X0192437Y0032447D01*
X0190037Y0034847D01*
X0190037Y0040553D01*
X0192237Y0042753D01*
X0192237Y0046647D01*
X0189484Y0049400D01*
X0185590Y0049400D01*
X0183390Y0047200D01*
X0179437Y0047200D01*
X0179437Y0056464D01*
X0184773Y0061800D01*
X0187884Y0061800D01*
X0190637Y0064553D01*
X0190637Y0068447D01*
X0190484Y0068600D01*
X0201390Y0068600D01*
X0201237Y0068447D01*
X0201237Y0064553D01*
X0203990Y0061800D01*
X0204237Y0061800D01*
X0204237Y0060647D01*
X0202037Y0058447D01*
X0202037Y0054553D01*
X0204790Y0051800D01*
X0205037Y0051800D01*
X0205037Y0048847D01*
X0202837Y0046647D01*
X0202837Y0042753D01*
X0205590Y0040000D01*
X0209484Y0040000D01*
X0212237Y0042753D01*
X0212237Y0046647D01*
X0210037Y0048847D01*
X0210037Y0053153D01*
X0211437Y0054553D01*
X0211437Y0058447D01*
X0209237Y0060647D01*
X0209237Y0063153D01*
X0210637Y0064553D01*
X0210637Y0068447D01*
X0210484Y0068600D01*
X0213837Y0068600D01*
X0213837Y0067565D01*
X0214553Y0065838D01*
X0215875Y0064516D01*
X0216237Y0064365D01*
X0216237Y0064247D01*
X0214037Y0062047D01*
X0214037Y0058153D01*
X0216790Y0055400D01*
X0219901Y0055400D01*
X0223321Y0051981D01*
X0224240Y0051600D01*
X0226390Y0051600D01*
X0228237Y0049753D01*
X0228237Y0045447D01*
X0226037Y0043247D01*
X0226037Y0039353D01*
X0228790Y0036600D01*
X0231901Y0036600D01*
X0234837Y0033664D01*
X0234837Y0030553D01*
X0237590Y0027800D01*
X0241484Y0027800D01*
X0243684Y0030000D01*
X0247701Y0030000D01*
X0255237Y0022464D01*
X0255237Y0019353D01*
X0257990Y0016600D01*
X0261884Y0016600D01*
X0264084Y0018800D01*
X0266990Y0018800D01*
X0269190Y0016600D01*
X0273084Y0016600D01*
X0275837Y0019353D01*
X0275837Y0023247D01*
X0273084Y0026000D01*
X0269190Y0026000D01*
X0266990Y0023800D01*
X0264084Y0023800D01*
X0261884Y0026000D01*
X0258773Y0026000D01*
X0250856Y0033916D01*
X0250153Y0034619D01*
X0249234Y0035000D01*
X0243684Y0035000D01*
X0241484Y0037200D01*
X0238373Y0037200D01*
X0235437Y0040136D01*
X0235437Y0043247D01*
X0233237Y0045447D01*
X0233237Y0050153D01*
X0234884Y0051800D01*
X0239190Y0051800D01*
X0241390Y0049600D01*
X0244501Y0049600D01*
X0251618Y0042484D01*
X0252321Y0041781D01*
X0253240Y0041400D01*
X0258564Y0041400D01*
X0261914Y0038050D01*
X0266760Y0038050D01*
X0270110Y0041400D01*
X0270434Y0041400D01*
X0271353Y0041781D01*
X0286573Y0057000D01*
X0291272Y0057000D01*
X0292999Y0057716D01*
X0294321Y0059038D01*
X0295037Y0060765D01*
X0295037Y0062635D01*
X0294321Y0064362D01*
X0292999Y0065684D01*
X0291272Y0066400D01*
X0290237Y0066400D01*
X0290237Y0067000D01*
X0291272Y0067000D01*
X0292999Y0067716D01*
X0294321Y0069038D01*
X0295037Y0070765D01*
X0295037Y0072635D01*
X0294389Y0074200D01*
X0295834Y0074200D01*
X0296753Y0074581D01*
X0297456Y0075284D01*
X0306056Y0083884D01*
X0306437Y0084803D01*
X0306437Y0098553D01*
X0308637Y0100753D01*
X0308637Y0104647D01*
X0305884Y0107400D01*
X0301990Y0107400D01*
X0299237Y0104647D01*
X0299237Y0100753D01*
X0301437Y0098553D01*
X0301437Y0086336D01*
X0294450Y0079349D01*
X0295037Y0080765D01*
X0295037Y0082635D01*
X0294321Y0084362D01*
X0292999Y0085684D01*
X0291272Y0086400D01*
X0284202Y0086400D01*
X0282475Y0085684D01*
X0281153Y0084362D01*
X0281085Y0084200D01*
X0277773Y0084200D01*
X0276656Y0085316D01*
X0275953Y0086019D01*
X0275034Y0086400D01*
X0262173Y0086400D01*
X0263223Y0087450D01*
X0267960Y0087450D01*
X0271387Y0090877D01*
X0271387Y0095723D01*
X0267960Y0099150D01*
X0263114Y0099150D01*
X0259687Y0095723D01*
X0259687Y0090986D01*
X0255121Y0086419D01*
X0254418Y0085716D01*
X0249101Y0080400D01*
X0247484Y0080400D01*
X0248437Y0081353D01*
X0248437Y0085247D01*
X0246237Y0087447D01*
X0246237Y0087997D01*
X0245856Y0088916D01*
X0245153Y0089619D01*
X0239953Y0094819D01*
X0239034Y0095200D01*
X0227437Y0095200D01*
X0227437Y0100553D01*
X0228990Y0099000D01*
X0232884Y0099000D01*
X0235637Y0101753D01*
X0235637Y0105400D01*
X0238101Y0105400D01*
X0239037Y0104464D01*
X0239037Y0101353D01*
X0241790Y0098600D01*
X0245684Y0098600D01*
X0248437Y0101353D01*
X0248437Y0105247D01*
X0245684Y0108000D01*
X0242573Y0108000D01*
X0241256Y0109316D01*
X0240553Y0110019D01*
X0240117Y0110200D01*
X0241990Y0110200D01*
X0244190Y0108000D01*
X0247501Y0108000D01*
X0251637Y0103864D01*
X0251637Y0100753D01*
X0254390Y0098000D01*
X0258284Y0098000D01*
X0261037Y0100753D01*
X0261037Y0103864D01*
X0267153Y0109981D01*
X0267856Y0110684D01*
X0268237Y0111603D01*
X0268237Y0112553D01*
X0268790Y0112000D01*
X0271901Y0112000D01*
X0273837Y0110064D01*
X0273837Y0106847D01*
X0271637Y0104647D01*
X0271637Y0100753D01*
X0274390Y0098000D01*
X0278284Y0098000D01*
X0280137Y0099853D01*
X0281990Y0098000D01*
X0285884Y0098000D01*
X0288637Y0100753D01*
X0288637Y0104647D01*
X0285884Y0107400D01*
X0281990Y0107400D01*
X0280137Y0105547D01*
X0278837Y0106847D01*
X0278837Y0110064D01*
X0279681Y0110909D01*
X0281790Y0108800D01*
X0285684Y0108800D01*
X0288437Y0111553D01*
X0288437Y0115447D01*
X0285684Y0118200D01*
X0281790Y0118200D01*
X0279590Y0116000D01*
X0278240Y0116000D01*
X0277321Y0115619D01*
X0276618Y0114916D01*
X0276337Y0114636D01*
X0275437Y0115536D01*
X0275437Y0118647D01*
X0272684Y0121400D01*
X0269584Y0121400D01*
X0270437Y0122253D01*
X0270437Y0126147D01*
X0267684Y0128900D01*
X0267184Y0128900D01*
X0269837Y0131553D01*
X0269837Y0135000D01*
X0273501Y0135000D01*
X0281046Y0127456D01*
X0279037Y0125447D01*
X0279037Y0121553D01*
X0281790Y0118800D01*
X0285684Y0118800D01*
X0288437Y0121553D01*
X0288437Y0125447D01*
X0286237Y0127647D01*
X0286237Y0128797D01*
X0286236Y0128800D01*
X0287084Y0128800D01*
X0289837Y0131553D01*
X0289837Y0135447D01*
X0287637Y0137647D01*
X0287637Y0138953D01*
X0289837Y0141153D01*
X0289837Y0145047D01*
X0287084Y0147800D01*
X0283190Y0147800D01*
X0280437Y0145047D01*
X0280437Y0141153D01*
X0282637Y0138953D01*
X0282637Y0137647D01*
X0280437Y0135447D01*
X0280437Y0135136D01*
X0275953Y0139619D01*
X0275034Y0140000D01*
X0268684Y0140000D01*
X0269837Y0141153D01*
X0269837Y0145047D01*
X0267084Y0147800D01*
X0263190Y0147800D01*
X0262952Y0147561D01*
X0261930Y0148243D01*
X0261753Y0148419D01*
X0261520Y0148516D01*
X0261310Y0148656D01*
X0261065Y0148704D01*
X0260834Y0148800D01*
X0260582Y0148800D01*
X0260334Y0148849D01*
X0260089Y0148800D01*
X0148440Y0148800D01*
X0147521Y0148419D01*
X0141921Y0142819D01*
X0141218Y0142116D01*
X0140837Y0141197D01*
X0140837Y0135336D01*
X0140701Y0135200D01*
X0126166Y0135200D01*
X0126102Y0135223D01*
X0125671Y0135200D01*
X0125240Y0135200D01*
X0125177Y0135174D01*
X0125109Y0135170D01*
X0124720Y0134985D01*
X0124321Y0134819D01*
X0124273Y0134771D01*
X0124211Y0134742D01*
X0123923Y0134421D01*
X0123618Y0134116D01*
X0123592Y0134053D01*
X0117424Y0127200D01*
X0098040Y0127200D01*
X0097121Y0126819D01*
X0093501Y0123200D01*
X0090390Y0123200D01*
X0087637Y0120447D01*
X0087637Y0116553D01*
X0090390Y0113800D01*
X0094284Y0113800D01*
X0097037Y0116553D01*
X0097037Y0119664D01*
X0099573Y0122200D01*
X0118108Y0122200D01*
X0118172Y0122177D01*
X0118603Y0122200D01*
X0119034Y0122200D01*
X0119097Y0122226D01*
X0119165Y0122230D01*
X0119554Y0122415D01*
X0119953Y0122581D01*
X0120001Y0122629D01*
X0120063Y0122658D01*
X0120351Y0122979D01*
X0120656Y0123284D01*
X0120682Y0123347D01*
X0121037Y0123741D01*
X0121037Y0117847D01*
X0118837Y0115647D01*
X0118837Y0111753D01*
X0120890Y0109700D01*
X0118990Y0107800D01*
X0118084Y0107800D01*
X0115884Y0110000D01*
X0111990Y0110000D01*
X0109237Y0107247D01*
X0109237Y0103353D01*
X0111990Y0100600D01*
X0115884Y0100600D01*
X0118084Y0102800D01*
X0119790Y0102800D01*
X0121590Y0101000D01*
X0125484Y0101000D01*
X0127237Y0102753D01*
X0127237Y0102603D01*
X0127618Y0101684D01*
X0130446Y0098856D01*
X0130437Y0098847D01*
X0130437Y0096136D01*
X0124701Y0090400D01*
X0121590Y0090400D01*
X0118837Y0087647D01*
X0118837Y0083753D01*
X0119390Y0083200D01*
X0118484Y0083200D01*
X0118637Y0083353D01*
X0118637Y0087247D01*
X0115884Y0090000D01*
X0111990Y0090000D01*
X0109790Y0087800D01*
X0108084Y0087800D01*
X0105884Y0090000D01*
X0101990Y0090000D01*
X0099237Y0087247D01*
X0099237Y0083353D01*
X0101990Y0080600D01*
X0103701Y0080600D01*
X0101121Y0078019D01*
X0100418Y0077316D01*
X0100037Y0076397D01*
X0100037Y0060936D01*
X0096701Y0057600D01*
X0074840Y0057600D01*
X0073921Y0057219D01*
X0073218Y0056516D01*
X0071290Y0054588D01*
X0070878Y0055000D01*
X0064996Y0055000D01*
X0060837Y0050841D01*
X0060837Y0050300D01*
X0056473Y0050300D01*
X0050637Y0056136D01*
X0050637Y0082264D01*
X0051712Y0081189D01*
X0054064Y0080215D01*
X0056610Y0080215D01*
X0058962Y0081189D01*
X0060763Y0082990D01*
X0061737Y0085342D01*
X0061737Y0087888D01*
X0060763Y0090240D01*
X0058962Y0092041D01*
X0056610Y0093015D01*
X0054064Y0093015D01*
X0051712Y0092041D01*
X0050637Y0090966D01*
X0050637Y0101949D01*
X0051712Y0100874D01*
X0054064Y0099900D01*
X0056610Y0099900D01*
X0058962Y0100874D01*
X0060763Y0102675D01*
X0061737Y0105027D01*
X0061737Y0107573D01*
X0060763Y0109925D01*
X0058962Y0111726D01*
X0056610Y0112700D01*
X0054064Y0112700D01*
X0051712Y0111726D01*
X0050637Y0110651D01*
X0050637Y0117749D01*
X0052939Y0120051D01*
X0054064Y0119585D01*
X0056610Y0119585D01*
X0058962Y0120559D01*
X0060763Y0122360D01*
X0061737Y0124712D01*
X0061737Y0127258D01*
X0060763Y0129610D01*
X0058962Y0131411D01*
X0056610Y0132385D01*
X0054064Y0132385D01*
X0051712Y0131411D01*
X0049911Y0129610D01*
X0048937Y0127258D01*
X0048937Y0124712D01*
X0049403Y0123587D01*
X0046721Y0120904D01*
X0046018Y0120201D01*
X0045637Y0119282D01*
X0045637Y0054603D01*
X0046018Y0053684D01*
X0053318Y0046384D01*
X0054021Y0045681D01*
X0054940Y0045300D01*
X0060837Y0045300D01*
X0060837Y0044959D01*
X0064996Y0040800D01*
X0066637Y0040800D01*
X0066637Y0024612D01*
X0064037Y0022012D01*
X0064037Y0017788D01*
X0067025Y0014800D01*
X0071249Y0014800D01*
X0074237Y0017788D01*
X0074237Y0022012D01*
X0071637Y0024612D01*
X0071637Y0041559D01*
X0075037Y0044959D01*
X0075037Y0050841D01*
X0074825Y0051053D01*
X0076373Y0052600D01*
X0082596Y0052600D01*
X0081918Y0051922D01*
X0080837Y0049312D01*
X0080837Y0046488D01*
X0081918Y0043878D01*
X0083915Y0041881D01*
X0085437Y0041251D01*
X0085437Y0039603D01*
X0085818Y0038684D01*
X0093121Y0031381D01*
X0094040Y0031000D01*
X0104790Y0031000D01*
X0106990Y0028800D01*
X0110101Y0028800D01*
X0113437Y0025464D01*
X0113437Y0024247D01*
X0111237Y0022047D01*
X0111237Y0018153D01*
X0113990Y0015400D01*
X0117884Y0015400D01*
X0119293Y0016809D01*
X0126721Y0009381D01*
X0127640Y0009000D01*
X0320634Y0009000D01*
X0322261Y0010096D02*
X0338537Y0010096D01*
X0338537Y0011094D02*
X0322867Y0011094D01*
X0323865Y0012093D02*
X0338537Y0012093D01*
X0338537Y0013091D02*
X0324864Y0013091D01*
X0325862Y0014090D02*
X0338537Y0014090D01*
X0338537Y0015088D02*
X0326861Y0015088D01*
X0327858Y0016087D02*
X0338537Y0016087D01*
X0338537Y0017085D02*
X0328237Y0017085D01*
X0328237Y0018084D02*
X0338537Y0018084D01*
X0338537Y0019082D02*
X0328237Y0019082D01*
X0328237Y0020081D02*
X0338537Y0020081D01*
X0338537Y0021079D02*
X0328237Y0021079D01*
X0328237Y0022078D02*
X0338537Y0022078D01*
X0338537Y0023076D02*
X0328237Y0023076D01*
X0328237Y0024075D02*
X0338537Y0024075D01*
X0338537Y0025073D02*
X0328237Y0025073D01*
X0328237Y0026072D02*
X0338537Y0026072D01*
X0338537Y0027070D02*
X0328237Y0027070D01*
X0328237Y0028069D02*
X0338537Y0028069D01*
X0338537Y0029067D02*
X0328237Y0029067D01*
X0328237Y0030066D02*
X0338537Y0030066D01*
X0338537Y0031064D02*
X0328237Y0031064D01*
X0328237Y0032063D02*
X0338537Y0032063D01*
X0338537Y0033061D02*
X0328237Y0033061D01*
X0328237Y0034060D02*
X0338537Y0034060D01*
X0338537Y0035058D02*
X0328237Y0035058D01*
X0328237Y0036057D02*
X0338537Y0036057D01*
X0338537Y0037055D02*
X0328237Y0037055D01*
X0328237Y0038054D02*
X0338537Y0038054D01*
X0338537Y0039052D02*
X0328237Y0039052D01*
X0328237Y0040051D02*
X0338537Y0040051D01*
X0338537Y0041049D02*
X0328237Y0041049D01*
X0328237Y0042048D02*
X0338537Y0042048D01*
X0338537Y0043046D02*
X0328237Y0043046D01*
X0328237Y0044045D02*
X0338537Y0044045D01*
X0338537Y0045043D02*
X0328237Y0045043D01*
X0328237Y0046042D02*
X0338537Y0046042D01*
X0338537Y0047040D02*
X0328237Y0047040D01*
X0328237Y0048039D02*
X0338537Y0048039D01*
X0338537Y0049037D02*
X0328237Y0049037D01*
X0328237Y0050036D02*
X0338537Y0050036D01*
X0338537Y0051034D02*
X0328237Y0051034D01*
X0328237Y0052033D02*
X0338537Y0052033D01*
X0338537Y0053032D02*
X0328237Y0053032D01*
X0328237Y0054030D02*
X0338537Y0054030D01*
X0338537Y0055029D02*
X0328237Y0055029D01*
X0328237Y0056027D02*
X0338537Y0056027D01*
X0338537Y0057026D02*
X0328237Y0057026D01*
X0328237Y0058024D02*
X0338537Y0058024D01*
X0338537Y0059023D02*
X0328237Y0059023D01*
X0328237Y0060021D02*
X0338537Y0060021D01*
X0338537Y0061020D02*
X0328237Y0061020D01*
X0328237Y0062018D02*
X0338537Y0062018D01*
X0338537Y0063017D02*
X0328237Y0063017D01*
X0328237Y0064015D02*
X0338537Y0064015D01*
X0338537Y0065014D02*
X0328237Y0065014D01*
X0328237Y0066012D02*
X0338537Y0066012D01*
X0338537Y0067011D02*
X0328237Y0067011D01*
X0328066Y0068009D02*
X0338537Y0068009D01*
X0338537Y0069008D02*
X0327365Y0069008D01*
X0327153Y0069219D02*
X0327153Y0069219D01*
X0326366Y0070006D02*
X0338537Y0070006D01*
X0338537Y0071005D02*
X0325368Y0071005D01*
X0325037Y0072003D02*
X0338537Y0072003D01*
X0338537Y0073002D02*
X0324885Y0073002D01*
X0324471Y0074000D02*
X0338537Y0074000D01*
X0338537Y0074999D02*
X0323685Y0074999D01*
X0322244Y0075997D02*
X0338537Y0075997D01*
X0338537Y0076996D02*
X0299168Y0076996D01*
X0298170Y0075997D02*
X0313230Y0075997D01*
X0314202Y0077000D02*
X0321272Y0077000D01*
X0322999Y0077716D01*
X0324321Y0079038D01*
X0325037Y0080765D01*
X0325037Y0082635D01*
X0324321Y0084362D01*
X0322999Y0085684D01*
X0321272Y0086400D01*
X0314202Y0086400D01*
X0312475Y0085684D01*
X0311153Y0084362D01*
X0310437Y0082635D01*
X0310437Y0080765D01*
X0311153Y0079038D01*
X0312475Y0077716D01*
X0314202Y0077000D01*
X0312196Y0077994D02*
X0300167Y0077994D01*
X0301165Y0078993D02*
X0311197Y0078993D01*
X0310758Y0079991D02*
X0302164Y0079991D01*
X0303162Y0080990D02*
X0310437Y0080990D01*
X0310437Y0081988D02*
X0304161Y0081988D01*
X0305159Y0082987D02*
X0310583Y0082987D01*
X0310996Y0083985D02*
X0306098Y0083985D01*
X0306437Y0084984D02*
X0311774Y0084984D01*
X0313194Y0085982D02*
X0306437Y0085982D01*
X0306437Y0086981D02*
X0338537Y0086981D01*
X0338537Y0087979D02*
X0323263Y0087979D01*
X0322999Y0087716D02*
X0324321Y0089038D01*
X0325037Y0090765D01*
X0325037Y0092635D01*
X0324321Y0094362D01*
X0322999Y0095684D01*
X0321272Y0096400D01*
X0314202Y0096400D01*
X0312475Y0095684D01*
X0311153Y0094362D01*
X0310437Y0092635D01*
X0310437Y0090765D01*
X0311153Y0089038D01*
X0312475Y0087716D01*
X0314202Y0087000D01*
X0321272Y0087000D01*
X0322999Y0087716D01*
X0324262Y0088978D02*
X0338537Y0088978D01*
X0338537Y0089976D02*
X0324710Y0089976D01*
X0325037Y0090975D02*
X0338537Y0090975D01*
X0338537Y0091973D02*
X0325037Y0091973D01*
X0324897Y0092972D02*
X0338537Y0092972D01*
X0338537Y0093970D02*
X0324484Y0093970D01*
X0323715Y0094969D02*
X0338537Y0094969D01*
X0338537Y0095968D02*
X0322316Y0095968D01*
X0313158Y0095968D02*
X0306437Y0095968D01*
X0306437Y0096966D02*
X0338537Y0096966D01*
X0338537Y0097965D02*
X0306437Y0097965D01*
X0306847Y0098963D02*
X0338537Y0098963D01*
X0338537Y0099962D02*
X0307845Y0099962D01*
X0308637Y0100960D02*
X0338537Y0100960D01*
X0338537Y0101959D02*
X0308637Y0101959D01*
X0308637Y0102957D02*
X0338537Y0102957D01*
X0338537Y0103956D02*
X0308637Y0103956D01*
X0308330Y0104954D02*
X0338537Y0104954D01*
X0338537Y0105953D02*
X0307331Y0105953D01*
X0306333Y0106951D02*
X0338537Y0106951D01*
X0338537Y0107950D02*
X0278837Y0107950D01*
X0278837Y0108948D02*
X0281642Y0108948D01*
X0280644Y0109947D02*
X0278837Y0109947D01*
X0278837Y0106951D02*
X0281541Y0106951D01*
X0280543Y0105953D02*
X0279731Y0105953D01*
X0273837Y0106951D02*
X0264124Y0106951D01*
X0265122Y0107950D02*
X0273837Y0107950D01*
X0273837Y0108948D02*
X0266121Y0108948D01*
X0267119Y0109947D02*
X0273837Y0109947D01*
X0272956Y0110945D02*
X0267965Y0110945D01*
X0268237Y0111944D02*
X0271958Y0111944D01*
X0276033Y0114939D02*
X0276641Y0114939D01*
X0275437Y0115938D02*
X0278089Y0115938D01*
X0280526Y0116936D02*
X0275437Y0116936D01*
X0275437Y0117935D02*
X0281525Y0117935D01*
X0281657Y0118933D02*
X0275151Y0118933D01*
X0274152Y0119932D02*
X0280658Y0119932D01*
X0279660Y0120930D02*
X0273153Y0120930D01*
X0270113Y0121929D02*
X0279037Y0121929D01*
X0279037Y0122927D02*
X0270437Y0122927D01*
X0270437Y0123926D02*
X0279037Y0123926D01*
X0279037Y0124924D02*
X0270437Y0124924D01*
X0270437Y0125923D02*
X0279513Y0125923D01*
X0280512Y0126921D02*
X0269662Y0126921D01*
X0268664Y0127920D02*
X0280582Y0127920D01*
X0279583Y0128918D02*
X0267202Y0128918D01*
X0268201Y0129917D02*
X0278585Y0129917D01*
X0277586Y0130915D02*
X0269199Y0130915D01*
X0269837Y0131914D02*
X0276588Y0131914D01*
X0275589Y0132912D02*
X0269837Y0132912D01*
X0269837Y0133911D02*
X0274591Y0133911D01*
X0273592Y0134909D02*
X0269837Y0134909D01*
X0277668Y0137905D02*
X0282637Y0137905D01*
X0282637Y0138903D02*
X0276669Y0138903D01*
X0275271Y0139902D02*
X0281688Y0139902D01*
X0280690Y0140901D02*
X0269584Y0140901D01*
X0269837Y0141899D02*
X0280437Y0141899D01*
X0280437Y0142898D02*
X0269837Y0142898D01*
X0269837Y0143896D02*
X0280437Y0143896D01*
X0280437Y0144895D02*
X0269837Y0144895D01*
X0268991Y0145893D02*
X0281283Y0145893D01*
X0282282Y0146892D02*
X0267992Y0146892D01*
X0262459Y0147890D02*
X0338537Y0147890D01*
X0338537Y0146892D02*
X0287992Y0146892D01*
X0288991Y0145893D02*
X0338537Y0145893D01*
X0338537Y0144895D02*
X0289837Y0144895D01*
X0289837Y0143896D02*
X0338537Y0143896D01*
X0338537Y0142898D02*
X0289837Y0142898D01*
X0289837Y0141899D02*
X0338537Y0141899D01*
X0338537Y0140901D02*
X0289584Y0140901D01*
X0288586Y0139902D02*
X0338537Y0139902D01*
X0338537Y0138903D02*
X0287637Y0138903D01*
X0287637Y0137905D02*
X0338537Y0137905D01*
X0338537Y0136906D02*
X0288377Y0136906D01*
X0289376Y0135908D02*
X0338537Y0135908D01*
X0338537Y0134909D02*
X0289837Y0134909D01*
X0289837Y0133911D02*
X0338537Y0133911D01*
X0338537Y0132912D02*
X0289837Y0132912D01*
X0289837Y0131914D02*
X0338537Y0131914D01*
X0338537Y0130915D02*
X0289199Y0130915D01*
X0288201Y0129917D02*
X0338537Y0129917D01*
X0338537Y0128918D02*
X0287202Y0128918D01*
X0286237Y0127920D02*
X0338537Y0127920D01*
X0338537Y0126921D02*
X0286962Y0126921D01*
X0287961Y0125923D02*
X0338537Y0125923D01*
X0338537Y0124924D02*
X0288437Y0124924D01*
X0288437Y0123926D02*
X0338537Y0123926D01*
X0338537Y0122927D02*
X0288437Y0122927D01*
X0288437Y0121929D02*
X0338537Y0121929D01*
X0338537Y0120930D02*
X0287814Y0120930D01*
X0286816Y0119932D02*
X0338537Y0119932D01*
X0338537Y0118933D02*
X0285817Y0118933D01*
X0285949Y0117935D02*
X0338537Y0117935D01*
X0338537Y0116936D02*
X0286948Y0116936D01*
X0287946Y0115938D02*
X0338537Y0115938D01*
X0338537Y0114939D02*
X0288437Y0114939D01*
X0288437Y0113941D02*
X0338537Y0113941D01*
X0338537Y0112942D02*
X0288437Y0112942D01*
X0288437Y0111944D02*
X0338537Y0111944D01*
X0338537Y0110945D02*
X0287829Y0110945D01*
X0286830Y0109947D02*
X0338537Y0109947D01*
X0338537Y0108948D02*
X0285832Y0108948D01*
X0286333Y0106951D02*
X0301541Y0106951D01*
X0300543Y0105953D02*
X0287331Y0105953D01*
X0288330Y0104954D02*
X0299544Y0104954D01*
X0299237Y0103956D02*
X0288637Y0103956D01*
X0288637Y0102957D02*
X0299237Y0102957D01*
X0299237Y0101959D02*
X0288637Y0101959D01*
X0288637Y0100960D02*
X0299237Y0100960D01*
X0300029Y0099962D02*
X0287845Y0099962D01*
X0286847Y0098963D02*
X0301027Y0098963D01*
X0301437Y0097965D02*
X0269146Y0097965D01*
X0268147Y0098963D02*
X0273427Y0098963D01*
X0272429Y0099962D02*
X0260245Y0099962D01*
X0261037Y0100960D02*
X0271637Y0100960D01*
X0271637Y0101959D02*
X0261037Y0101959D01*
X0261037Y0102957D02*
X0271637Y0102957D01*
X0271637Y0103956D02*
X0261128Y0103956D01*
X0262127Y0104954D02*
X0271944Y0104954D01*
X0272943Y0105953D02*
X0263125Y0105953D01*
X0260048Y0109947D02*
X0252626Y0109947D01*
X0251627Y0110945D02*
X0261047Y0110945D01*
X0262045Y0111944D02*
X0250837Y0111944D01*
X0250837Y0111736D02*
X0250837Y0114200D01*
X0256590Y0114200D01*
X0258790Y0112000D01*
X0262101Y0112000D01*
X0257501Y0107400D01*
X0255173Y0107400D01*
X0250837Y0111736D01*
X0250837Y0112942D02*
X0257848Y0112942D01*
X0256849Y0113941D02*
X0250837Y0113941D01*
X0242846Y0116056D02*
X0241990Y0115200D01*
X0236084Y0115200D01*
X0233684Y0117600D01*
X0229790Y0117600D01*
X0229037Y0116847D01*
X0229037Y0118953D01*
X0229790Y0118200D01*
X0233684Y0118200D01*
X0236437Y0120953D01*
X0236437Y0122464D01*
X0237510Y0121391D01*
X0237783Y0121079D01*
X0237860Y0121041D01*
X0237921Y0120981D01*
X0242846Y0116056D01*
X0242728Y0115938D02*
X0235346Y0115938D01*
X0234348Y0116936D02*
X0241965Y0116936D01*
X0240967Y0117935D02*
X0229037Y0117935D01*
X0229037Y0118933D02*
X0229057Y0118933D01*
X0229037Y0116936D02*
X0229126Y0116936D01*
X0234417Y0118933D02*
X0239968Y0118933D01*
X0238970Y0119932D02*
X0235416Y0119932D01*
X0236414Y0120930D02*
X0237971Y0120930D01*
X0236973Y0121929D02*
X0236437Y0121929D01*
X0224037Y0121929D02*
X0223637Y0121929D01*
X0223637Y0122200D02*
X0223637Y0119736D01*
X0224037Y0119336D01*
X0224037Y0122064D01*
X0223901Y0122200D01*
X0223637Y0122200D01*
X0223637Y0120930D02*
X0224037Y0120930D01*
X0224037Y0119932D02*
X0223637Y0119932D01*
X0215690Y0117500D02*
X0214553Y0116362D01*
X0213837Y0114635D01*
X0213837Y0109936D01*
X0212501Y0108600D01*
X0211484Y0108600D01*
X0209284Y0110800D01*
X0209084Y0110800D01*
X0211637Y0113353D01*
X0211637Y0117247D01*
X0208884Y0120000D01*
X0208573Y0120000D01*
X0210773Y0122200D01*
X0214237Y0122200D01*
X0214237Y0118953D01*
X0215690Y0117500D01*
X0215255Y0117935D02*
X0210949Y0117935D01*
X0211637Y0116936D02*
X0215126Y0116936D01*
X0214377Y0115938D02*
X0211637Y0115938D01*
X0211637Y0114939D02*
X0213963Y0114939D01*
X0213837Y0113941D02*
X0211637Y0113941D01*
X0211226Y0112942D02*
X0213837Y0112942D01*
X0213837Y0111944D02*
X0210227Y0111944D01*
X0209229Y0110945D02*
X0213837Y0110945D01*
X0213837Y0109947D02*
X0210137Y0109947D01*
X0211136Y0108948D02*
X0212850Y0108948D01*
X0215681Y0104709D02*
X0215875Y0104516D01*
X0217602Y0103800D01*
X0219472Y0103800D01*
X0221199Y0104516D01*
X0222437Y0105753D01*
X0222437Y0089803D01*
X0222437Y0080000D01*
X0214040Y0080000D01*
X0213121Y0079619D01*
X0212418Y0078916D01*
X0212037Y0077997D01*
X0212037Y0075881D01*
X0211427Y0075000D01*
X0211037Y0075000D01*
X0211037Y0078047D01*
X0208837Y0080247D01*
X0208837Y0081400D01*
X0209284Y0081400D01*
X0212037Y0084153D01*
X0212037Y0088047D01*
X0209284Y0090800D01*
X0206173Y0090800D01*
X0204237Y0092736D01*
X0204237Y0102553D01*
X0205390Y0101400D01*
X0209284Y0101400D01*
X0211484Y0103600D01*
X0214034Y0103600D01*
X0214953Y0103981D01*
X0215681Y0104709D01*
X0214893Y0103956D02*
X0217226Y0103956D01*
X0219848Y0103956D02*
X0222437Y0103956D01*
X0222437Y0104954D02*
X0221638Y0104954D01*
X0222437Y0102957D02*
X0210841Y0102957D01*
X0209842Y0101959D02*
X0222437Y0101959D01*
X0222437Y0100960D02*
X0204237Y0100960D01*
X0204237Y0099962D02*
X0222437Y0099962D01*
X0222437Y0098963D02*
X0204237Y0098963D01*
X0204237Y0097965D02*
X0222437Y0097965D01*
X0222437Y0096966D02*
X0204237Y0096966D01*
X0204237Y0095968D02*
X0222437Y0095968D01*
X0222437Y0094969D02*
X0204237Y0094969D01*
X0204237Y0093970D02*
X0222437Y0093970D01*
X0222437Y0092972D02*
X0204237Y0092972D01*
X0204999Y0091973D02*
X0222437Y0091973D01*
X0222437Y0090975D02*
X0205998Y0090975D01*
X0210107Y0089976D02*
X0222437Y0089976D01*
X0222437Y0088978D02*
X0211106Y0088978D01*
X0212037Y0087979D02*
X0222437Y0087979D01*
X0222437Y0086981D02*
X0212037Y0086981D01*
X0212037Y0085982D02*
X0222437Y0085982D01*
X0222437Y0084984D02*
X0212037Y0084984D01*
X0211869Y0083985D02*
X0222437Y0083985D01*
X0222437Y0082987D02*
X0210871Y0082987D01*
X0209872Y0081988D02*
X0222437Y0081988D01*
X0222437Y0080990D02*
X0208837Y0080990D01*
X0209092Y0079991D02*
X0214019Y0079991D01*
X0212494Y0078993D02*
X0210091Y0078993D01*
X0211037Y0077994D02*
X0212037Y0077994D01*
X0212037Y0076996D02*
X0211037Y0076996D01*
X0211037Y0075997D02*
X0212037Y0075997D01*
X0203837Y0080247D02*
X0201637Y0078047D01*
X0201637Y0075000D01*
X0199390Y0075000D01*
X0199237Y0083123D01*
X0199237Y0083597D01*
X0199228Y0083620D01*
X0199227Y0083644D01*
X0199038Y0084078D01*
X0198856Y0084516D01*
X0198839Y0084533D01*
X0198829Y0084556D01*
X0198488Y0084884D01*
X0198153Y0085219D01*
X0198131Y0085229D01*
X0198113Y0085246D01*
X0197672Y0085419D01*
X0197234Y0085600D01*
X0197210Y0085600D01*
X0197187Y0085609D01*
X0196714Y0085600D01*
X0194173Y0085600D01*
X0196173Y0087600D01*
X0196701Y0087600D01*
X0203837Y0080464D01*
X0203837Y0080247D01*
X0203582Y0079991D02*
X0199296Y0079991D01*
X0199315Y0078993D02*
X0202583Y0078993D01*
X0201637Y0077994D02*
X0199334Y0077994D01*
X0199353Y0076996D02*
X0201637Y0076996D01*
X0201637Y0075997D02*
X0199371Y0075997D01*
X0194371Y0075997D02*
X0191037Y0075997D01*
X0191037Y0074999D02*
X0194389Y0074999D01*
X0194408Y0074000D02*
X0190884Y0074000D01*
X0191037Y0074153D02*
X0190484Y0073600D01*
X0194416Y0073600D01*
X0194284Y0080600D01*
X0188484Y0080600D01*
X0191037Y0078047D01*
X0191037Y0074153D01*
X0191037Y0076996D02*
X0194352Y0076996D01*
X0194333Y0077994D02*
X0191037Y0077994D01*
X0190091Y0078993D02*
X0194314Y0078993D01*
X0194295Y0079991D02*
X0189092Y0079991D01*
X0181637Y0077864D02*
X0180237Y0076464D01*
X0180237Y0064336D01*
X0181237Y0065336D01*
X0181237Y0068447D01*
X0183437Y0070647D01*
X0183437Y0072353D01*
X0181637Y0074153D01*
X0181637Y0077864D01*
X0181637Y0076996D02*
X0180768Y0076996D01*
X0180237Y0075997D02*
X0181637Y0075997D01*
X0181637Y0074999D02*
X0180237Y0074999D01*
X0180237Y0074000D02*
X0181790Y0074000D01*
X0182788Y0073002D02*
X0180237Y0073002D01*
X0180237Y0072003D02*
X0183437Y0072003D01*
X0183437Y0071005D02*
X0180237Y0071005D01*
X0180237Y0070006D02*
X0182796Y0070006D01*
X0181798Y0069008D02*
X0180237Y0069008D01*
X0180237Y0068009D02*
X0181237Y0068009D01*
X0181237Y0067011D02*
X0180237Y0067011D01*
X0180237Y0066012D02*
X0181237Y0066012D01*
X0180915Y0065014D02*
X0180237Y0065014D01*
X0175237Y0065014D02*
X0172970Y0065014D01*
X0173237Y0064747D02*
X0173237Y0061600D01*
X0175101Y0061600D01*
X0175237Y0061736D01*
X0175237Y0065600D01*
X0172384Y0065600D01*
X0173237Y0064747D01*
X0173237Y0064015D02*
X0175237Y0064015D01*
X0175237Y0063017D02*
X0173237Y0063017D01*
X0173237Y0062018D02*
X0175237Y0062018D01*
X0180997Y0058024D02*
X0182037Y0058024D01*
X0182037Y0058447D02*
X0182037Y0054553D01*
X0184790Y0051800D01*
X0188684Y0051800D01*
X0191437Y0054553D01*
X0191437Y0058447D01*
X0188684Y0061200D01*
X0184790Y0061200D01*
X0182037Y0058447D01*
X0181995Y0059023D02*
X0182613Y0059023D01*
X0182994Y0060021D02*
X0183611Y0060021D01*
X0183992Y0061020D02*
X0184610Y0061020D01*
X0188102Y0062018D02*
X0203772Y0062018D01*
X0204237Y0061020D02*
X0188864Y0061020D01*
X0189863Y0060021D02*
X0203611Y0060021D01*
X0202613Y0059023D02*
X0190861Y0059023D01*
X0191437Y0058024D02*
X0202037Y0058024D01*
X0202037Y0057026D02*
X0191437Y0057026D01*
X0191437Y0056027D02*
X0202037Y0056027D01*
X0202037Y0055029D02*
X0191437Y0055029D01*
X0190914Y0054030D02*
X0202560Y0054030D01*
X0203559Y0053032D02*
X0189915Y0053032D01*
X0188917Y0052033D02*
X0204557Y0052033D01*
X0205037Y0051034D02*
X0179437Y0051034D01*
X0179437Y0050036D02*
X0205037Y0050036D01*
X0205037Y0049037D02*
X0189846Y0049037D01*
X0190845Y0048039D02*
X0204229Y0048039D01*
X0203231Y0047040D02*
X0191843Y0047040D01*
X0192237Y0046042D02*
X0202837Y0046042D01*
X0202837Y0045043D02*
X0192237Y0045043D01*
X0192237Y0044045D02*
X0202837Y0044045D01*
X0202837Y0043046D02*
X0192237Y0043046D01*
X0191532Y0042048D02*
X0203542Y0042048D01*
X0204541Y0041049D02*
X0190533Y0041049D01*
X0190037Y0040051D02*
X0205539Y0040051D01*
X0209535Y0040051D02*
X0214037Y0040051D01*
X0214037Y0041049D02*
X0210533Y0041049D01*
X0211532Y0042048D02*
X0214038Y0042048D01*
X0215037Y0043046D02*
X0212237Y0043046D01*
X0212237Y0044045D02*
X0216035Y0044045D01*
X0212237Y0045043D02*
X0227834Y0045043D01*
X0228237Y0046042D02*
X0212237Y0046042D01*
X0211843Y0047040D02*
X0228237Y0047040D01*
X0228237Y0048039D02*
X0210845Y0048039D01*
X0210037Y0049037D02*
X0228237Y0049037D01*
X0227954Y0050036D02*
X0210037Y0050036D01*
X0210037Y0051034D02*
X0226956Y0051034D01*
X0223268Y0052033D02*
X0210037Y0052033D01*
X0210037Y0053032D02*
X0222270Y0053032D01*
X0221271Y0054030D02*
X0210914Y0054030D01*
X0211437Y0055029D02*
X0220273Y0055029D01*
X0216163Y0056027D02*
X0211437Y0056027D01*
X0211437Y0057026D02*
X0215165Y0057026D01*
X0214166Y0058024D02*
X0211437Y0058024D01*
X0210861Y0059023D02*
X0214037Y0059023D01*
X0214037Y0060021D02*
X0209863Y0060021D01*
X0209237Y0061020D02*
X0214037Y0061020D01*
X0214037Y0062018D02*
X0209237Y0062018D01*
X0209237Y0063017D02*
X0215007Y0063017D01*
X0216005Y0064015D02*
X0210099Y0064015D01*
X0210637Y0065014D02*
X0215377Y0065014D01*
X0214480Y0066012D02*
X0210637Y0066012D01*
X0210637Y0067011D02*
X0214067Y0067011D01*
X0213837Y0068009D02*
X0210637Y0068009D01*
X0201237Y0068009D02*
X0190637Y0068009D01*
X0190637Y0067011D02*
X0201237Y0067011D01*
X0201237Y0066012D02*
X0190637Y0066012D01*
X0190637Y0065014D02*
X0201237Y0065014D01*
X0201775Y0064015D02*
X0190099Y0064015D01*
X0189100Y0063017D02*
X0202774Y0063017D01*
X0221237Y0064247D02*
X0223437Y0062047D01*
X0223437Y0058936D01*
X0225773Y0056600D01*
X0226390Y0056600D01*
X0228590Y0058800D01*
X0232484Y0058800D01*
X0234484Y0056800D01*
X0239190Y0056800D01*
X0241390Y0059000D01*
X0245284Y0059000D01*
X0248037Y0056247D01*
X0248037Y0053136D01*
X0254773Y0046400D01*
X0258564Y0046400D01*
X0261914Y0049750D01*
X0266760Y0049750D01*
X0269506Y0047004D01*
X0281346Y0058844D01*
X0281153Y0059038D01*
X0280437Y0060765D01*
X0280437Y0062635D01*
X0281153Y0064362D01*
X0282475Y0065684D01*
X0284202Y0066400D01*
X0285237Y0066400D01*
X0285237Y0067000D01*
X0284202Y0067000D01*
X0282475Y0067716D01*
X0281153Y0069038D01*
X0280437Y0070765D01*
X0280437Y0071864D01*
X0271056Y0062484D01*
X0271056Y0062484D01*
X0270353Y0061781D01*
X0269675Y0061500D01*
X0269296Y0060586D01*
X0267651Y0058941D01*
X0265501Y0058050D01*
X0263173Y0058050D01*
X0261023Y0058941D01*
X0259378Y0060586D01*
X0259041Y0061400D01*
X0226840Y0061400D01*
X0225921Y0061781D01*
X0222193Y0065509D01*
X0221237Y0064553D01*
X0221237Y0064247D01*
X0221469Y0064015D02*
X0223686Y0064015D01*
X0222688Y0065014D02*
X0221697Y0065014D01*
X0222467Y0063017D02*
X0224685Y0063017D01*
X0225683Y0062018D02*
X0223437Y0062018D01*
X0223437Y0061020D02*
X0259198Y0061020D01*
X0259943Y0060021D02*
X0223437Y0060021D01*
X0223437Y0059023D02*
X0260941Y0059023D01*
X0267733Y0059023D02*
X0281168Y0059023D01*
X0280745Y0060021D02*
X0268731Y0060021D01*
X0269476Y0061020D02*
X0280437Y0061020D01*
X0280437Y0062018D02*
X0270591Y0062018D01*
X0271589Y0063017D02*
X0280595Y0063017D01*
X0281009Y0064015D02*
X0272588Y0064015D01*
X0273586Y0065014D02*
X0281804Y0065014D01*
X0283266Y0066012D02*
X0274585Y0066012D01*
X0275583Y0067011D02*
X0284176Y0067011D01*
X0282181Y0068009D02*
X0276582Y0068009D01*
X0277580Y0069008D02*
X0281182Y0069008D01*
X0280751Y0070006D02*
X0278579Y0070006D01*
X0279577Y0071005D02*
X0280437Y0071005D01*
X0275502Y0074000D02*
X0271387Y0074000D01*
X0271387Y0074464D02*
X0270496Y0076614D01*
X0268851Y0078259D01*
X0266701Y0079150D01*
X0264373Y0079150D01*
X0262223Y0078259D01*
X0260578Y0076614D01*
X0260241Y0075800D01*
X0251573Y0075800D01*
X0252256Y0076484D01*
X0257173Y0081400D01*
X0273501Y0081400D01*
X0275321Y0079581D01*
X0276240Y0079200D01*
X0281085Y0079200D01*
X0281108Y0079145D01*
X0280321Y0078819D01*
X0279618Y0078116D01*
X0269006Y0067504D01*
X0268369Y0068141D01*
X0268851Y0068341D01*
X0270496Y0069986D01*
X0271387Y0072136D01*
X0271387Y0074464D01*
X0271165Y0074999D02*
X0276500Y0074999D01*
X0277499Y0075997D02*
X0270752Y0075997D01*
X0270114Y0076996D02*
X0278497Y0076996D01*
X0279496Y0077994D02*
X0269116Y0077994D01*
X0267080Y0078993D02*
X0280740Y0078993D01*
X0279618Y0078116D02*
X0279618Y0078116D01*
X0274910Y0079991D02*
X0255764Y0079991D01*
X0254765Y0078993D02*
X0263994Y0078993D01*
X0261958Y0077994D02*
X0253767Y0077994D01*
X0252768Y0076996D02*
X0260960Y0076996D01*
X0260322Y0075997D02*
X0251770Y0075997D01*
X0246484Y0070800D02*
X0245837Y0070153D01*
X0245837Y0066603D01*
X0245753Y0066400D01*
X0259041Y0066400D01*
X0259378Y0067214D01*
X0261023Y0068859D01*
X0261505Y0069059D01*
X0260578Y0069986D01*
X0260241Y0070800D01*
X0246484Y0070800D01*
X0245837Y0070006D02*
X0260569Y0070006D01*
X0261381Y0069008D02*
X0245837Y0069008D01*
X0245837Y0068009D02*
X0260173Y0068009D01*
X0259294Y0067011D02*
X0245837Y0067011D01*
X0240837Y0068800D02*
X0240837Y0070153D01*
X0239142Y0071848D01*
X0238543Y0071600D01*
X0234684Y0071600D01*
X0232484Y0069400D01*
X0228590Y0069400D01*
X0227437Y0070553D01*
X0227437Y0070536D01*
X0229173Y0068800D01*
X0240837Y0068800D01*
X0240837Y0069008D02*
X0228965Y0069008D01*
X0227984Y0070006D02*
X0227966Y0070006D01*
X0233090Y0070006D02*
X0240837Y0070006D01*
X0239985Y0071005D02*
X0234089Y0071005D01*
X0234684Y0076600D02*
X0233437Y0077847D01*
X0233437Y0079553D01*
X0235637Y0081753D01*
X0235637Y0085647D01*
X0232884Y0088400D01*
X0228990Y0088400D01*
X0227437Y0086847D01*
X0227437Y0089264D01*
X0228373Y0090200D01*
X0237501Y0090200D01*
X0240746Y0086956D01*
X0239037Y0085247D01*
X0239037Y0081353D01*
X0240400Y0079990D01*
X0237010Y0076600D01*
X0234684Y0076600D01*
X0234288Y0076996D02*
X0237406Y0076996D01*
X0238405Y0077994D02*
X0233437Y0077994D01*
X0233437Y0078993D02*
X0239403Y0078993D01*
X0240399Y0079991D02*
X0233875Y0079991D01*
X0234874Y0080990D02*
X0239400Y0080990D01*
X0239037Y0081988D02*
X0235637Y0081988D01*
X0235637Y0082987D02*
X0239037Y0082987D01*
X0239037Y0083985D02*
X0235637Y0083985D01*
X0235637Y0084984D02*
X0239037Y0084984D01*
X0239773Y0085982D02*
X0235301Y0085982D01*
X0234303Y0086981D02*
X0240721Y0086981D01*
X0239722Y0087979D02*
X0233304Y0087979D01*
X0228570Y0087979D02*
X0227437Y0087979D01*
X0227437Y0086981D02*
X0227571Y0086981D01*
X0227437Y0088978D02*
X0238724Y0088978D01*
X0237725Y0089976D02*
X0228149Y0089976D01*
X0240802Y0093970D02*
X0259687Y0093970D01*
X0259687Y0092972D02*
X0241801Y0092972D01*
X0242799Y0091973D02*
X0259687Y0091973D01*
X0259676Y0090975D02*
X0243798Y0090975D01*
X0244796Y0089976D02*
X0258678Y0089976D01*
X0257679Y0088978D02*
X0245795Y0088978D01*
X0246237Y0087979D02*
X0256681Y0087979D01*
X0255682Y0086981D02*
X0246703Y0086981D01*
X0247701Y0085982D02*
X0254684Y0085982D01*
X0254418Y0085716D02*
X0254418Y0085716D01*
X0255121Y0086419D02*
X0255121Y0086419D01*
X0253685Y0084984D02*
X0248437Y0084984D01*
X0248437Y0083985D02*
X0252687Y0083985D01*
X0251688Y0082987D02*
X0248437Y0082987D01*
X0248437Y0081988D02*
X0250690Y0081988D01*
X0249691Y0080990D02*
X0248074Y0080990D01*
X0256762Y0080990D02*
X0273912Y0080990D01*
X0276989Y0084984D02*
X0281774Y0084984D01*
X0283194Y0085982D02*
X0275990Y0085982D01*
X0282211Y0087979D02*
X0268490Y0087979D01*
X0269488Y0088978D02*
X0281212Y0088978D01*
X0281153Y0089038D02*
X0282475Y0087716D01*
X0284202Y0087000D01*
X0291272Y0087000D01*
X0292999Y0087716D01*
X0294321Y0089038D01*
X0295037Y0090765D01*
X0295037Y0092635D01*
X0294321Y0094362D01*
X0292999Y0095684D01*
X0291272Y0096400D01*
X0284202Y0096400D01*
X0282475Y0095684D01*
X0281153Y0094362D01*
X0280437Y0092635D01*
X0280437Y0090765D01*
X0281153Y0089038D01*
X0280764Y0089976D02*
X0270487Y0089976D01*
X0271387Y0090975D02*
X0280437Y0090975D01*
X0280437Y0091973D02*
X0271387Y0091973D01*
X0271387Y0092972D02*
X0280577Y0092972D01*
X0280990Y0093970D02*
X0271387Y0093970D01*
X0271387Y0094969D02*
X0281759Y0094969D01*
X0283158Y0095968D02*
X0271143Y0095968D01*
X0270144Y0096966D02*
X0301437Y0096966D01*
X0301437Y0095968D02*
X0292316Y0095968D01*
X0293715Y0094969D02*
X0301437Y0094969D01*
X0301437Y0093970D02*
X0294484Y0093970D01*
X0294897Y0092972D02*
X0301437Y0092972D01*
X0301437Y0091973D02*
X0295037Y0091973D01*
X0295037Y0090975D02*
X0301437Y0090975D01*
X0301437Y0089976D02*
X0294710Y0089976D01*
X0294262Y0088978D02*
X0301437Y0088978D01*
X0301437Y0087979D02*
X0293263Y0087979D01*
X0292280Y0085982D02*
X0301084Y0085982D01*
X0301437Y0086981D02*
X0262753Y0086981D01*
X0259687Y0094969D02*
X0239592Y0094969D01*
X0241427Y0098963D02*
X0227437Y0098963D01*
X0227437Y0097965D02*
X0261928Y0097965D01*
X0262927Y0098963D02*
X0259247Y0098963D01*
X0260930Y0096966D02*
X0227437Y0096966D01*
X0227437Y0095968D02*
X0259931Y0095968D01*
X0253427Y0098963D02*
X0246047Y0098963D01*
X0247045Y0099962D02*
X0252429Y0099962D01*
X0251637Y0100960D02*
X0248044Y0100960D01*
X0248437Y0101959D02*
X0251637Y0101959D01*
X0251637Y0102957D02*
X0248437Y0102957D01*
X0248437Y0103956D02*
X0251546Y0103956D01*
X0250547Y0104954D02*
X0248437Y0104954D01*
X0247731Y0105953D02*
X0249549Y0105953D01*
X0248550Y0106951D02*
X0246733Y0106951D01*
X0247552Y0107950D02*
X0245734Y0107950D01*
X0243242Y0108948D02*
X0241624Y0108948D01*
X0242244Y0109947D02*
X0240626Y0109947D01*
X0238547Y0104954D02*
X0235637Y0104954D01*
X0235637Y0103956D02*
X0239037Y0103956D01*
X0239037Y0102957D02*
X0235637Y0102957D01*
X0235637Y0101959D02*
X0239037Y0101959D01*
X0239430Y0100960D02*
X0234844Y0100960D01*
X0233845Y0099962D02*
X0240429Y0099962D01*
X0228029Y0099962D02*
X0227437Y0099962D01*
X0204832Y0101959D02*
X0204237Y0101959D01*
X0199237Y0101959D02*
X0197242Y0101959D01*
X0197037Y0101753D02*
X0199237Y0103953D01*
X0199237Y0107847D01*
X0196484Y0110600D01*
X0192590Y0110600D01*
X0189837Y0107847D01*
X0189837Y0103953D01*
X0192037Y0101753D01*
X0192037Y0095447D01*
X0190837Y0094247D01*
X0190837Y0090353D01*
X0191346Y0089844D01*
X0188701Y0087200D01*
X0183973Y0087200D01*
X0184356Y0087584D01*
X0184373Y0087600D01*
X0187484Y0087600D01*
X0190237Y0090353D01*
X0190237Y0094247D01*
X0187484Y0097000D01*
X0183590Y0097000D01*
X0180837Y0094247D01*
X0180837Y0091500D01*
X0171389Y0091500D01*
X0171321Y0091662D01*
X0169999Y0092984D01*
X0168272Y0093700D01*
X0161202Y0093700D01*
X0159475Y0092984D01*
X0158153Y0091662D01*
X0158085Y0091500D01*
X0151037Y0091500D01*
X0151037Y0093247D01*
X0148428Y0095856D01*
X0154073Y0101500D01*
X0158085Y0101500D01*
X0158153Y0101338D01*
X0159475Y0100016D01*
X0161202Y0099300D01*
X0168272Y0099300D01*
X0169999Y0100016D01*
X0171321Y0101338D01*
X0172037Y0103065D01*
X0172037Y0104935D01*
X0171321Y0106662D01*
X0169999Y0107984D01*
X0168272Y0108700D01*
X0161202Y0108700D01*
X0159475Y0107984D01*
X0158153Y0106662D01*
X0158085Y0106500D01*
X0152540Y0106500D01*
X0151621Y0106119D01*
X0143437Y0097936D01*
X0143437Y0101197D01*
X0143056Y0102116D01*
X0142353Y0102819D01*
X0141434Y0103200D01*
X0133173Y0103200D01*
X0132237Y0104136D01*
X0132237Y0113153D01*
X0133190Y0112200D01*
X0137084Y0112200D01*
X0139284Y0114400D01*
X0139701Y0114400D01*
X0141637Y0112464D01*
X0141637Y0109353D01*
X0144390Y0106600D01*
X0148284Y0106600D01*
X0151037Y0109353D01*
X0151037Y0113247D01*
X0148284Y0116000D01*
X0145173Y0116000D01*
X0142856Y0118316D01*
X0142153Y0119019D01*
X0141234Y0119400D01*
X0139284Y0119400D01*
X0138084Y0120600D01*
X0140237Y0122753D01*
X0140237Y0126647D01*
X0138284Y0128600D01*
X0143034Y0128600D01*
X0143953Y0128981D01*
X0144656Y0129684D01*
X0147056Y0132084D01*
X0147437Y0133003D01*
X0147437Y0134553D01*
X0148475Y0133516D01*
X0150202Y0132800D01*
X0153037Y0132800D01*
X0153037Y0128847D01*
X0150837Y0126647D01*
X0150837Y0122753D01*
X0153590Y0120000D01*
X0156701Y0120000D01*
X0161418Y0115284D01*
X0161418Y0115284D01*
X0162121Y0114581D01*
X0163040Y0114200D01*
X0202234Y0114200D01*
X0202237Y0114201D01*
X0202237Y0113353D01*
X0202546Y0113044D01*
X0200321Y0110819D01*
X0199618Y0110116D01*
X0199237Y0109197D01*
X0199237Y0095247D01*
X0197484Y0097000D01*
X0197037Y0097000D01*
X0197037Y0101753D01*
X0197037Y0100960D02*
X0199237Y0100960D01*
X0199237Y0099962D02*
X0197037Y0099962D01*
X0197037Y0098963D02*
X0199237Y0098963D01*
X0199237Y0097965D02*
X0197037Y0097965D01*
X0197518Y0096966D02*
X0199237Y0096966D01*
X0199237Y0095968D02*
X0198516Y0095968D01*
X0192037Y0095968D02*
X0188516Y0095968D01*
X0187518Y0096966D02*
X0192037Y0096966D01*
X0192037Y0097965D02*
X0150537Y0097965D01*
X0151536Y0098963D02*
X0192037Y0098963D01*
X0192037Y0099962D02*
X0169869Y0099962D01*
X0170944Y0100960D02*
X0192037Y0100960D01*
X0191832Y0101959D02*
X0171579Y0101959D01*
X0171992Y0102957D02*
X0190833Y0102957D01*
X0189837Y0103956D02*
X0172037Y0103956D01*
X0172029Y0104954D02*
X0189837Y0104954D01*
X0189837Y0105953D02*
X0171615Y0105953D01*
X0171033Y0106951D02*
X0189837Y0106951D01*
X0189940Y0107950D02*
X0170034Y0107950D01*
X0159440Y0107950D02*
X0149633Y0107950D01*
X0148635Y0106951D02*
X0158441Y0106951D01*
X0151454Y0105953D02*
X0132237Y0105953D01*
X0132237Y0106951D02*
X0144039Y0106951D01*
X0143041Y0107950D02*
X0132237Y0107950D01*
X0132237Y0108948D02*
X0142042Y0108948D01*
X0141637Y0109947D02*
X0132237Y0109947D01*
X0132237Y0110945D02*
X0141637Y0110945D01*
X0141637Y0111944D02*
X0132237Y0111944D01*
X0132237Y0112942D02*
X0132448Y0112942D01*
X0127237Y0110753D02*
X0127237Y0108647D01*
X0126184Y0109700D01*
X0127237Y0110753D01*
X0127237Y0109947D02*
X0126430Y0109947D01*
X0126936Y0108948D02*
X0127237Y0108948D01*
X0120644Y0109947D02*
X0115937Y0109947D01*
X0116936Y0108948D02*
X0120138Y0108948D01*
X0119140Y0107950D02*
X0117934Y0107950D01*
X0119645Y0110945D02*
X0107429Y0110945D01*
X0108237Y0111753D02*
X0106437Y0109953D01*
X0106437Y0109447D01*
X0108637Y0107247D01*
X0108637Y0103353D01*
X0105884Y0100600D01*
X0101990Y0100600D01*
X0099237Y0103353D01*
X0099237Y0107247D01*
X0101290Y0109300D01*
X0098837Y0111753D01*
X0098837Y0115647D01*
X0101590Y0118400D01*
X0105484Y0118400D01*
X0108237Y0115647D01*
X0108237Y0111753D01*
X0108237Y0111944D02*
X0118837Y0111944D01*
X0118837Y0112942D02*
X0108237Y0112942D01*
X0108237Y0113941D02*
X0118837Y0113941D01*
X0118837Y0114939D02*
X0108237Y0114939D01*
X0107946Y0115938D02*
X0119128Y0115938D01*
X0120126Y0116936D02*
X0106948Y0116936D01*
X0105949Y0117935D02*
X0121037Y0117935D01*
X0121037Y0118933D02*
X0097037Y0118933D01*
X0097037Y0117935D02*
X0101125Y0117935D01*
X0100126Y0116936D02*
X0097037Y0116936D01*
X0096422Y0115938D02*
X0099128Y0115938D01*
X0098837Y0114939D02*
X0095423Y0114939D01*
X0094425Y0113941D02*
X0098837Y0113941D01*
X0098837Y0112942D02*
X0050637Y0112942D01*
X0050637Y0111944D02*
X0052238Y0111944D01*
X0050931Y0110945D02*
X0050637Y0110945D01*
X0045637Y0110945D02*
X0040937Y0110945D01*
X0040937Y0109947D02*
X0045637Y0109947D01*
X0045637Y0108948D02*
X0040937Y0108948D01*
X0040937Y0107950D02*
X0045637Y0107950D01*
X0045637Y0106951D02*
X0040937Y0106951D01*
X0040937Y0105953D02*
X0045637Y0105953D01*
X0045637Y0104954D02*
X0040937Y0104954D01*
X0040937Y0103956D02*
X0045637Y0103956D01*
X0045637Y0102957D02*
X0040937Y0102957D01*
X0040937Y0101959D02*
X0045637Y0101959D01*
X0045637Y0100960D02*
X0040937Y0100960D01*
X0040937Y0099962D02*
X0045637Y0099962D01*
X0045637Y0098963D02*
X0040937Y0098963D01*
X0040937Y0097965D02*
X0045637Y0097965D01*
X0045637Y0096966D02*
X0040937Y0096966D01*
X0040937Y0095968D02*
X0045637Y0095968D01*
X0045637Y0094969D02*
X0040937Y0094969D01*
X0040937Y0093970D02*
X0045637Y0093970D01*
X0045637Y0092972D02*
X0040937Y0092972D01*
X0040937Y0091973D02*
X0045637Y0091973D01*
X0045637Y0090975D02*
X0040937Y0090975D01*
X0040937Y0089976D02*
X0045637Y0089976D01*
X0045637Y0088978D02*
X0040937Y0088978D01*
X0040937Y0087979D02*
X0045637Y0087979D01*
X0045637Y0086981D02*
X0040937Y0086981D01*
X0040937Y0085982D02*
X0045637Y0085982D01*
X0045637Y0084984D02*
X0040937Y0084984D01*
X0040937Y0083985D02*
X0045637Y0083985D01*
X0045637Y0082987D02*
X0040937Y0082987D01*
X0040937Y0081988D02*
X0045637Y0081988D01*
X0045637Y0080990D02*
X0040937Y0080990D01*
X0040937Y0079991D02*
X0045637Y0079991D01*
X0045637Y0078993D02*
X0040937Y0078993D01*
X0040937Y0077994D02*
X0045637Y0077994D01*
X0045637Y0076996D02*
X0040937Y0076996D01*
X0040937Y0075997D02*
X0045637Y0075997D01*
X0045637Y0074999D02*
X0040937Y0074999D01*
X0040937Y0074000D02*
X0045637Y0074000D01*
X0045637Y0073002D02*
X0040937Y0073002D01*
X0040937Y0072003D02*
X0045637Y0072003D01*
X0045637Y0071005D02*
X0040937Y0071005D01*
X0040937Y0070006D02*
X0045637Y0070006D01*
X0045637Y0069008D02*
X0040937Y0069008D01*
X0040937Y0068009D02*
X0045637Y0068009D01*
X0045637Y0067011D02*
X0040937Y0067011D01*
X0040937Y0066012D02*
X0045637Y0066012D01*
X0045637Y0065014D02*
X0040937Y0065014D01*
X0040937Y0064015D02*
X0045637Y0064015D01*
X0045637Y0063017D02*
X0040937Y0063017D01*
X0040937Y0062018D02*
X0045637Y0062018D01*
X0045637Y0061020D02*
X0040937Y0061020D01*
X0040937Y0060021D02*
X0045637Y0060021D01*
X0045637Y0059023D02*
X0040937Y0059023D01*
X0040937Y0058024D02*
X0045637Y0058024D01*
X0045637Y0057026D02*
X0040937Y0057026D01*
X0040937Y0056027D02*
X0045637Y0056027D01*
X0045637Y0055029D02*
X0040937Y0055029D01*
X0040937Y0054030D02*
X0045874Y0054030D01*
X0046670Y0053032D02*
X0040937Y0053032D01*
X0040937Y0052033D02*
X0047668Y0052033D01*
X0048667Y0051034D02*
X0040937Y0051034D01*
X0040937Y0050036D02*
X0049665Y0050036D01*
X0050664Y0049037D02*
X0040937Y0049037D01*
X0040937Y0048039D02*
X0051662Y0048039D01*
X0052661Y0047040D02*
X0040937Y0047040D01*
X0040937Y0046042D02*
X0053660Y0046042D01*
X0060837Y0045043D02*
X0040937Y0045043D01*
X0040937Y0044045D02*
X0061751Y0044045D01*
X0062750Y0043046D02*
X0040937Y0043046D01*
X0040937Y0042048D02*
X0063748Y0042048D01*
X0064747Y0041049D02*
X0040937Y0041049D01*
X0040937Y0040051D02*
X0066637Y0040051D01*
X0066637Y0039052D02*
X0040937Y0039052D01*
X0040937Y0038054D02*
X0066637Y0038054D01*
X0066637Y0037055D02*
X0040937Y0037055D01*
X0040937Y0036057D02*
X0066637Y0036057D01*
X0066637Y0035058D02*
X0040937Y0035058D01*
X0040937Y0034060D02*
X0066637Y0034060D01*
X0066637Y0033061D02*
X0040937Y0033061D01*
X0040937Y0032063D02*
X0066637Y0032063D01*
X0066637Y0031064D02*
X0040937Y0031064D01*
X0040937Y0030066D02*
X0066637Y0030066D01*
X0066637Y0029067D02*
X0040937Y0029067D01*
X0040937Y0028069D02*
X0066637Y0028069D01*
X0066637Y0027070D02*
X0040937Y0027070D01*
X0040937Y0026072D02*
X0066637Y0026072D01*
X0066637Y0025073D02*
X0040937Y0025073D01*
X0040937Y0024075D02*
X0066099Y0024075D01*
X0065101Y0023076D02*
X0040937Y0023076D01*
X0040937Y0022078D02*
X0064102Y0022078D01*
X0064037Y0021079D02*
X0040937Y0021079D01*
X0040937Y0020081D02*
X0064037Y0020081D01*
X0064037Y0019082D02*
X0040937Y0019082D01*
X0040937Y0018084D02*
X0064037Y0018084D01*
X0064739Y0017085D02*
X0040937Y0017085D01*
X0040937Y0016087D02*
X0065738Y0016087D01*
X0066736Y0015088D02*
X0040937Y0015088D01*
X0040937Y0014090D02*
X0122012Y0014090D01*
X0121013Y0015088D02*
X0085138Y0015088D01*
X0084849Y0014800D02*
X0087449Y0017400D01*
X0091990Y0017400D01*
X0093990Y0015400D01*
X0097884Y0015400D01*
X0100637Y0018153D01*
X0100637Y0022047D01*
X0097884Y0024800D01*
X0093990Y0024800D01*
X0091590Y0022400D01*
X0087449Y0022400D01*
X0084849Y0025000D01*
X0080625Y0025000D01*
X0077637Y0022012D01*
X0077637Y0017788D01*
X0080625Y0014800D01*
X0084849Y0014800D01*
X0086136Y0016087D02*
X0093304Y0016087D01*
X0092305Y0017085D02*
X0087135Y0017085D01*
X0080336Y0015088D02*
X0071538Y0015088D01*
X0072536Y0016087D02*
X0079338Y0016087D01*
X0078339Y0017085D02*
X0073535Y0017085D01*
X0074237Y0018084D02*
X0077637Y0018084D01*
X0077637Y0019082D02*
X0074237Y0019082D01*
X0074237Y0020081D02*
X0077637Y0020081D01*
X0077637Y0021079D02*
X0074237Y0021079D01*
X0074172Y0022078D02*
X0077702Y0022078D01*
X0078701Y0023076D02*
X0073173Y0023076D01*
X0072175Y0024075D02*
X0079699Y0024075D01*
X0085775Y0024075D02*
X0093265Y0024075D01*
X0092266Y0023076D02*
X0086773Y0023076D01*
X0098609Y0024075D02*
X0113265Y0024075D01*
X0113437Y0025073D02*
X0071637Y0025073D01*
X0071637Y0026072D02*
X0112830Y0026072D01*
X0111831Y0027070D02*
X0071637Y0027070D01*
X0071637Y0028069D02*
X0110833Y0028069D01*
X0106723Y0029067D02*
X0071637Y0029067D01*
X0071637Y0030066D02*
X0105724Y0030066D01*
X0113637Y0032336D02*
X0113637Y0035447D01*
X0112232Y0036852D01*
X0112840Y0036600D01*
X0134390Y0036600D01*
X0133837Y0036047D01*
X0133837Y0032153D01*
X0136590Y0029400D01*
X0139701Y0029400D01*
X0141437Y0027664D01*
X0141437Y0024247D01*
X0139237Y0022047D01*
X0139237Y0018153D01*
X0141990Y0015400D01*
X0145884Y0015400D01*
X0148084Y0017600D01*
X0149390Y0017600D01*
X0151590Y0015400D01*
X0155484Y0015400D01*
X0158237Y0018153D01*
X0158237Y0022047D01*
X0156378Y0023906D01*
X0161173Y0028700D01*
X0165872Y0028700D01*
X0167599Y0029416D01*
X0168834Y0030650D01*
X0174051Y0030650D01*
X0183037Y0021664D01*
X0183037Y0018553D01*
X0185590Y0016000D01*
X0184468Y0016000D01*
X0179688Y0021439D01*
X0179656Y0021516D01*
X0179362Y0021811D01*
X0179087Y0022124D01*
X0179012Y0022161D01*
X0178953Y0022219D01*
X0178568Y0022379D01*
X0178194Y0022563D01*
X0178111Y0022568D01*
X0178034Y0022600D01*
X0177684Y0022600D01*
X0175484Y0024800D01*
X0171590Y0024800D01*
X0168837Y0022047D01*
X0168837Y0018153D01*
X0171590Y0015400D01*
X0175484Y0015400D01*
X0177004Y0016920D01*
X0179569Y0014000D01*
X0129173Y0014000D01*
X0126828Y0016344D01*
X0128637Y0018153D01*
X0128637Y0022047D01*
X0126584Y0024100D01*
X0128637Y0026153D01*
X0128637Y0030047D01*
X0125884Y0032800D01*
X0121990Y0032800D01*
X0119237Y0030047D01*
X0119237Y0026153D01*
X0121290Y0024100D01*
X0119937Y0022747D01*
X0118437Y0024247D01*
X0118437Y0026997D01*
X0118056Y0027916D01*
X0113637Y0032336D01*
X0113910Y0032063D02*
X0121253Y0032063D01*
X0120254Y0031064D02*
X0114908Y0031064D01*
X0115907Y0030066D02*
X0119256Y0030066D01*
X0119237Y0029067D02*
X0116905Y0029067D01*
X0117904Y0028069D02*
X0119237Y0028069D01*
X0119237Y0027070D02*
X0118407Y0027070D01*
X0118437Y0026072D02*
X0119318Y0026072D01*
X0118437Y0025073D02*
X0120317Y0025073D01*
X0121265Y0024075D02*
X0118609Y0024075D01*
X0119608Y0023076D02*
X0120266Y0023076D01*
X0126609Y0024075D02*
X0141265Y0024075D01*
X0141437Y0025073D02*
X0127557Y0025073D01*
X0128555Y0026072D02*
X0141437Y0026072D01*
X0141437Y0027070D02*
X0128637Y0027070D01*
X0128637Y0028069D02*
X0141033Y0028069D01*
X0140034Y0029067D02*
X0128637Y0029067D01*
X0128618Y0030066D02*
X0135924Y0030066D01*
X0134926Y0031064D02*
X0127620Y0031064D01*
X0126621Y0032063D02*
X0133927Y0032063D01*
X0133837Y0033061D02*
X0113637Y0033061D01*
X0113637Y0034060D02*
X0133837Y0034060D01*
X0133837Y0035058D02*
X0113637Y0035058D01*
X0113027Y0036057D02*
X0133847Y0036057D01*
X0142684Y0036600D02*
X0156290Y0036600D01*
X0155753Y0036062D01*
X0155037Y0034335D01*
X0155037Y0032465D01*
X0155753Y0030738D01*
X0155946Y0030544D01*
X0151418Y0026016D01*
X0151037Y0025097D01*
X0151037Y0024247D01*
X0149390Y0022600D01*
X0148084Y0022600D01*
X0146437Y0024247D01*
X0146437Y0029197D01*
X0146056Y0030116D01*
X0143237Y0032936D01*
X0143237Y0036047D01*
X0142684Y0036600D01*
X0143227Y0036057D02*
X0155750Y0036057D01*
X0155337Y0035058D02*
X0143237Y0035058D01*
X0143237Y0034060D02*
X0155037Y0034060D01*
X0155037Y0033061D02*
X0143237Y0033061D01*
X0144110Y0032063D02*
X0155204Y0032063D01*
X0155617Y0031064D02*
X0145108Y0031064D01*
X0146077Y0030066D02*
X0155467Y0030066D01*
X0154469Y0029067D02*
X0146437Y0029067D01*
X0146437Y0028069D02*
X0153470Y0028069D01*
X0152472Y0027070D02*
X0146437Y0027070D01*
X0146437Y0026072D02*
X0151473Y0026072D01*
X0151037Y0025073D02*
X0146437Y0025073D01*
X0146609Y0024075D02*
X0150865Y0024075D01*
X0149866Y0023076D02*
X0147608Y0023076D01*
X0140266Y0023076D02*
X0127608Y0023076D01*
X0128606Y0022078D02*
X0139268Y0022078D01*
X0139237Y0021079D02*
X0128637Y0021079D01*
X0128637Y0020081D02*
X0139237Y0020081D01*
X0139237Y0019082D02*
X0128637Y0019082D01*
X0128567Y0018084D02*
X0139307Y0018084D01*
X0140305Y0017085D02*
X0127569Y0017085D01*
X0127086Y0016087D02*
X0141304Y0016087D01*
X0146570Y0016087D02*
X0150904Y0016087D01*
X0149905Y0017085D02*
X0147569Y0017085D01*
X0156170Y0016087D02*
X0170904Y0016087D01*
X0169905Y0017085D02*
X0157169Y0017085D01*
X0158167Y0018084D02*
X0168907Y0018084D01*
X0168837Y0019082D02*
X0158237Y0019082D01*
X0158237Y0020081D02*
X0168837Y0020081D01*
X0168837Y0021079D02*
X0158237Y0021079D01*
X0158206Y0022078D02*
X0168868Y0022078D01*
X0169866Y0023076D02*
X0157208Y0023076D01*
X0156547Y0024075D02*
X0170865Y0024075D01*
X0176209Y0024075D02*
X0180627Y0024075D01*
X0179628Y0025073D02*
X0157546Y0025073D01*
X0158544Y0026072D02*
X0178630Y0026072D01*
X0177631Y0027070D02*
X0159543Y0027070D01*
X0160541Y0028069D02*
X0176633Y0028069D01*
X0175634Y0029067D02*
X0166759Y0029067D01*
X0168250Y0030066D02*
X0174636Y0030066D01*
X0179710Y0032063D02*
X0183037Y0032063D01*
X0183037Y0032447D02*
X0183037Y0028736D01*
X0177206Y0034566D01*
X0176503Y0035269D01*
X0175584Y0035650D01*
X0169092Y0035650D01*
X0168921Y0036062D01*
X0167599Y0037384D01*
X0165872Y0038100D01*
X0163473Y0038100D01*
X0167573Y0042200D01*
X0177434Y0042200D01*
X0183390Y0042200D01*
X0185037Y0040553D01*
X0185037Y0034447D01*
X0183037Y0032447D01*
X0183652Y0033061D02*
X0178711Y0033061D01*
X0177713Y0034060D02*
X0184650Y0034060D01*
X0185037Y0035058D02*
X0176714Y0035058D01*
X0180708Y0031064D02*
X0183037Y0031064D01*
X0183037Y0030066D02*
X0181707Y0030066D01*
X0182705Y0029067D02*
X0183037Y0029067D01*
X0189956Y0026072D02*
X0202918Y0026072D01*
X0202837Y0027070D02*
X0190954Y0027070D01*
X0191953Y0028069D02*
X0202837Y0028069D01*
X0202837Y0029067D02*
X0192437Y0029067D01*
X0192437Y0030066D02*
X0202856Y0030066D01*
X0203854Y0031064D02*
X0192437Y0031064D01*
X0192437Y0032063D02*
X0204853Y0032063D01*
X0210221Y0032063D02*
X0214853Y0032063D01*
X0215037Y0033061D02*
X0191822Y0033061D01*
X0190824Y0034060D02*
X0215037Y0034060D01*
X0215037Y0035058D02*
X0190037Y0035058D01*
X0190037Y0036057D02*
X0215037Y0036057D01*
X0215037Y0037055D02*
X0190037Y0037055D01*
X0190037Y0038054D02*
X0214136Y0038054D01*
X0214037Y0039052D02*
X0190037Y0039052D01*
X0185037Y0039052D02*
X0164425Y0039052D01*
X0165423Y0040051D02*
X0185037Y0040051D01*
X0184541Y0041049D02*
X0166422Y0041049D01*
X0167420Y0042048D02*
X0183542Y0042048D01*
X0185037Y0038054D02*
X0165983Y0038054D01*
X0167928Y0037055D02*
X0185037Y0037055D01*
X0185037Y0036057D02*
X0168924Y0036057D01*
X0162001Y0043700D02*
X0159901Y0041600D01*
X0142684Y0041600D01*
X0142684Y0041600D01*
X0158534Y0041600D01*
X0159453Y0041981D01*
X0161173Y0043700D01*
X0162001Y0043700D01*
X0161348Y0043046D02*
X0160519Y0043046D01*
X0160349Y0042048D02*
X0159520Y0042048D01*
X0155395Y0046600D02*
X0142684Y0046600D01*
X0140484Y0048800D01*
X0137373Y0048800D01*
X0136637Y0049536D01*
X0136637Y0051353D01*
X0136884Y0051600D01*
X0142625Y0051600D01*
X0145225Y0049000D01*
X0149449Y0049000D01*
X0152437Y0051988D01*
X0152437Y0056212D01*
X0150449Y0058200D01*
X0156701Y0058200D01*
X0157921Y0056981D01*
X0158840Y0056600D01*
X0174437Y0056600D01*
X0174437Y0047200D01*
X0169527Y0047200D01*
X0169637Y0047465D01*
X0169637Y0049335D01*
X0168921Y0051062D01*
X0167599Y0052384D01*
X0165872Y0053100D01*
X0158802Y0053100D01*
X0157075Y0052384D01*
X0155753Y0051062D01*
X0155037Y0049335D01*
X0155037Y0047465D01*
X0155395Y0046600D01*
X0155213Y0047040D02*
X0142243Y0047040D01*
X0141245Y0048039D02*
X0155037Y0048039D01*
X0155037Y0049037D02*
X0149487Y0049037D01*
X0150485Y0050036D02*
X0155327Y0050036D01*
X0155741Y0051034D02*
X0151484Y0051034D01*
X0152437Y0052033D02*
X0156723Y0052033D01*
X0158637Y0053032D02*
X0152437Y0053032D01*
X0152437Y0054030D02*
X0174437Y0054030D01*
X0174437Y0053032D02*
X0166037Y0053032D01*
X0167951Y0052033D02*
X0174437Y0052033D01*
X0174437Y0051034D02*
X0168933Y0051034D01*
X0169347Y0050036D02*
X0174437Y0050036D01*
X0174437Y0049037D02*
X0169637Y0049037D01*
X0169637Y0048039D02*
X0174437Y0048039D01*
X0179437Y0048039D02*
X0184229Y0048039D01*
X0185228Y0049037D02*
X0179437Y0049037D01*
X0179437Y0052033D02*
X0184557Y0052033D01*
X0183559Y0053032D02*
X0179437Y0053032D01*
X0179437Y0054030D02*
X0182560Y0054030D01*
X0182037Y0055029D02*
X0179437Y0055029D01*
X0179437Y0056027D02*
X0182037Y0056027D01*
X0182037Y0057026D02*
X0179998Y0057026D01*
X0174437Y0056027D02*
X0152437Y0056027D01*
X0152437Y0055029D02*
X0174437Y0055029D01*
X0163837Y0061600D02*
X0160373Y0061600D01*
X0159856Y0062116D01*
X0159153Y0062819D01*
X0158234Y0063200D01*
X0138484Y0063200D01*
X0138837Y0063553D01*
X0138837Y0067447D01*
X0136084Y0070200D01*
X0132190Y0070200D01*
X0129990Y0068000D01*
X0120173Y0068000D01*
X0113837Y0074336D01*
X0113837Y0077447D01*
X0113084Y0078200D01*
X0118837Y0078200D01*
X0118837Y0074553D01*
X0121590Y0071800D01*
X0125484Y0071800D01*
X0127684Y0074000D01*
X0131190Y0074000D01*
X0132190Y0073000D01*
X0136084Y0073000D01*
X0138837Y0075753D01*
X0138837Y0075800D01*
X0143590Y0075800D01*
X0145790Y0073600D01*
X0149684Y0073600D01*
X0152437Y0076353D01*
X0152437Y0080247D01*
X0149684Y0083000D01*
X0145790Y0083000D01*
X0143590Y0080800D01*
X0142637Y0080800D01*
X0142637Y0088353D01*
X0144390Y0086600D01*
X0147898Y0086600D01*
X0148140Y0086500D01*
X0158085Y0086500D01*
X0158153Y0086338D01*
X0159475Y0085016D01*
X0161202Y0084300D01*
X0162237Y0084300D01*
X0162237Y0075000D01*
X0161590Y0075000D01*
X0159390Y0072800D01*
X0149884Y0072800D01*
X0149684Y0073000D01*
X0145790Y0073000D01*
X0143037Y0070247D01*
X0143037Y0066353D01*
X0145790Y0063600D01*
X0149684Y0063600D01*
X0152437Y0066353D01*
X0152437Y0067800D01*
X0159390Y0067800D01*
X0161590Y0065600D01*
X0164690Y0065600D01*
X0163837Y0064747D01*
X0163837Y0061600D01*
X0163837Y0062018D02*
X0159954Y0062018D01*
X0159856Y0062116D02*
X0159856Y0062116D01*
X0158677Y0063017D02*
X0163837Y0063017D01*
X0163837Y0064015D02*
X0150099Y0064015D01*
X0151097Y0065014D02*
X0164104Y0065014D01*
X0161178Y0066012D02*
X0152096Y0066012D01*
X0152437Y0067011D02*
X0160180Y0067011D01*
X0167384Y0067500D02*
X0168237Y0068353D01*
X0168237Y0072247D01*
X0167237Y0073247D01*
X0167237Y0084300D01*
X0168272Y0084300D01*
X0169999Y0085016D01*
X0171321Y0086338D01*
X0171389Y0086500D01*
X0180801Y0086500D01*
X0171418Y0077116D01*
X0171037Y0076197D01*
X0171037Y0074447D01*
X0168837Y0072247D01*
X0168837Y0068353D01*
X0169690Y0067500D01*
X0167384Y0067500D01*
X0167893Y0068009D02*
X0169181Y0068009D01*
X0168837Y0069008D02*
X0168237Y0069008D01*
X0168237Y0070006D02*
X0168837Y0070006D01*
X0168837Y0071005D02*
X0168237Y0071005D01*
X0168237Y0072003D02*
X0168837Y0072003D01*
X0169592Y0073002D02*
X0167482Y0073002D01*
X0167237Y0074000D02*
X0170590Y0074000D01*
X0171037Y0074999D02*
X0167237Y0074999D01*
X0167237Y0075997D02*
X0171037Y0075997D01*
X0171368Y0076996D02*
X0167237Y0076996D01*
X0167237Y0077994D02*
X0172296Y0077994D01*
X0173294Y0078993D02*
X0167237Y0078993D01*
X0167237Y0079991D02*
X0174293Y0079991D01*
X0175291Y0080990D02*
X0167237Y0080990D01*
X0167237Y0081988D02*
X0176290Y0081988D01*
X0177288Y0082987D02*
X0167237Y0082987D01*
X0167237Y0083985D02*
X0178287Y0083985D01*
X0179285Y0084984D02*
X0169923Y0084984D01*
X0170966Y0085982D02*
X0180284Y0085982D01*
X0187863Y0087979D02*
X0189481Y0087979D01*
X0188862Y0088978D02*
X0190479Y0088978D01*
X0189860Y0089976D02*
X0191214Y0089976D01*
X0190837Y0090975D02*
X0190237Y0090975D01*
X0190237Y0091973D02*
X0190837Y0091973D01*
X0190837Y0092972D02*
X0190237Y0092972D01*
X0190237Y0093970D02*
X0190837Y0093970D01*
X0191559Y0094969D02*
X0189515Y0094969D01*
X0183556Y0096966D02*
X0149539Y0096966D01*
X0148540Y0095968D02*
X0182558Y0095968D01*
X0181559Y0094969D02*
X0149315Y0094969D01*
X0150313Y0093970D02*
X0180837Y0093970D01*
X0180837Y0092972D02*
X0170012Y0092972D01*
X0171010Y0091973D02*
X0180837Y0091973D01*
X0194555Y0085982D02*
X0198319Y0085982D01*
X0198389Y0084984D02*
X0199318Y0084984D01*
X0199078Y0083985D02*
X0200316Y0083985D01*
X0201315Y0082987D02*
X0199240Y0082987D01*
X0199258Y0081988D02*
X0202313Y0081988D01*
X0203312Y0080990D02*
X0199277Y0080990D01*
X0197321Y0086981D02*
X0195553Y0086981D01*
X0227437Y0080553D02*
X0227437Y0077647D01*
X0228437Y0078647D01*
X0228437Y0079553D01*
X0227437Y0080553D01*
X0227437Y0079991D02*
X0227999Y0079991D01*
X0228437Y0078993D02*
X0227437Y0078993D01*
X0227437Y0077994D02*
X0227785Y0077994D01*
X0268501Y0068009D02*
X0269511Y0068009D01*
X0269518Y0069008D02*
X0270509Y0069008D01*
X0270505Y0070006D02*
X0271508Y0070006D01*
X0270918Y0071005D02*
X0272506Y0071005D01*
X0273505Y0072003D02*
X0271332Y0072003D01*
X0271387Y0073002D02*
X0274503Y0073002D01*
X0291298Y0067011D02*
X0314176Y0067011D01*
X0313266Y0066012D02*
X0292208Y0066012D01*
X0293670Y0065014D02*
X0311804Y0065014D01*
X0311009Y0064015D02*
X0294465Y0064015D01*
X0294879Y0063017D02*
X0310595Y0063017D01*
X0310437Y0062018D02*
X0295037Y0062018D01*
X0295037Y0061020D02*
X0310437Y0061020D01*
X0310745Y0060021D02*
X0294729Y0060021D01*
X0294306Y0059023D02*
X0311168Y0059023D01*
X0312166Y0058024D02*
X0293308Y0058024D01*
X0291334Y0057026D02*
X0314140Y0057026D01*
X0315437Y0056027D02*
X0285600Y0056027D01*
X0284601Y0055029D02*
X0315437Y0055029D01*
X0315437Y0054030D02*
X0283603Y0054030D01*
X0282604Y0053032D02*
X0315437Y0053032D01*
X0315437Y0052033D02*
X0281606Y0052033D01*
X0280607Y0051034D02*
X0315437Y0051034D01*
X0315437Y0050036D02*
X0279609Y0050036D01*
X0278610Y0049037D02*
X0314201Y0049037D01*
X0313035Y0048039D02*
X0277612Y0048039D01*
X0276613Y0047040D02*
X0312037Y0047040D01*
X0311553Y0046042D02*
X0275614Y0046042D01*
X0274616Y0045043D02*
X0311140Y0045043D01*
X0310837Y0044045D02*
X0273617Y0044045D01*
X0272619Y0043046D02*
X0310837Y0043046D01*
X0310837Y0042048D02*
X0271620Y0042048D01*
X0269760Y0041049D02*
X0311019Y0041049D01*
X0311432Y0040051D02*
X0268761Y0040051D01*
X0267763Y0039052D02*
X0310554Y0039052D01*
X0309555Y0038054D02*
X0286830Y0038054D01*
X0287828Y0037055D02*
X0308557Y0037055D01*
X0311634Y0033061D02*
X0323237Y0033061D01*
X0323237Y0032063D02*
X0310635Y0032063D01*
X0312632Y0034060D02*
X0323237Y0034060D01*
X0323237Y0035058D02*
X0313631Y0035058D01*
X0314629Y0036057D02*
X0315905Y0036057D01*
X0319969Y0036057D02*
X0323237Y0036057D01*
X0323237Y0037055D02*
X0322133Y0037055D01*
X0323132Y0038054D02*
X0323237Y0038054D01*
X0323237Y0031064D02*
X0288148Y0031064D01*
X0287150Y0030066D02*
X0323237Y0030066D01*
X0323237Y0029067D02*
X0321811Y0029067D01*
X0322809Y0028069D02*
X0323237Y0028069D01*
X0314063Y0029067D02*
X0262751Y0029067D01*
X0263684Y0030000D02*
X0261484Y0027800D01*
X0257590Y0027800D01*
X0254837Y0030553D01*
X0254837Y0034447D01*
X0257590Y0037200D01*
X0261484Y0037200D01*
X0263684Y0035000D01*
X0269637Y0035000D01*
X0269637Y0035847D01*
X0272390Y0038600D01*
X0276284Y0038600D01*
X0279037Y0035847D01*
X0279037Y0031953D01*
X0276284Y0029200D01*
X0272390Y0029200D01*
X0271590Y0030000D01*
X0263684Y0030000D01*
X0261753Y0028069D02*
X0313065Y0028069D01*
X0312066Y0027070D02*
X0257702Y0027070D01*
X0257321Y0028069D02*
X0256704Y0028069D01*
X0256323Y0029067D02*
X0255705Y0029067D01*
X0255324Y0030066D02*
X0254707Y0030066D01*
X0254837Y0031064D02*
X0253708Y0031064D01*
X0252710Y0032063D02*
X0254837Y0032063D01*
X0254837Y0033061D02*
X0251711Y0033061D01*
X0250713Y0034060D02*
X0254837Y0034060D01*
X0255449Y0035058D02*
X0243625Y0035058D01*
X0242627Y0036057D02*
X0256447Y0036057D01*
X0257446Y0037055D02*
X0241628Y0037055D01*
X0237519Y0038054D02*
X0261910Y0038054D01*
X0261628Y0037055D02*
X0270846Y0037055D01*
X0271844Y0038054D02*
X0266764Y0038054D01*
X0269847Y0036057D02*
X0262627Y0036057D01*
X0263625Y0035058D02*
X0269637Y0035058D01*
X0276830Y0038054D02*
X0281844Y0038054D01*
X0280846Y0037055D02*
X0277828Y0037055D01*
X0278827Y0036057D02*
X0279847Y0036057D01*
X0279637Y0035058D02*
X0279037Y0035058D01*
X0279037Y0034060D02*
X0279637Y0034060D01*
X0279637Y0033061D02*
X0279037Y0033061D01*
X0279037Y0032063D02*
X0279637Y0032063D01*
X0280526Y0031064D02*
X0278148Y0031064D01*
X0277150Y0030066D02*
X0281524Y0030066D01*
X0288263Y0025073D02*
X0274011Y0025073D01*
X0275009Y0024075D02*
X0287265Y0024075D01*
X0286437Y0023076D02*
X0275837Y0023076D01*
X0275837Y0022078D02*
X0286437Y0022078D01*
X0286437Y0021079D02*
X0275837Y0021079D01*
X0275837Y0020081D02*
X0286437Y0020081D01*
X0286708Y0019082D02*
X0275566Y0019082D01*
X0274567Y0018084D02*
X0287707Y0018084D01*
X0288705Y0017085D02*
X0273569Y0017085D01*
X0268705Y0017085D02*
X0262369Y0017085D01*
X0263367Y0018084D02*
X0267707Y0018084D01*
X0257505Y0017085D02*
X0242369Y0017085D01*
X0243367Y0018084D02*
X0256507Y0018084D01*
X0255508Y0019082D02*
X0244366Y0019082D01*
X0244637Y0020081D02*
X0255237Y0020081D01*
X0255237Y0021079D02*
X0244637Y0021079D01*
X0244637Y0022078D02*
X0255237Y0022078D01*
X0254625Y0023076D02*
X0244637Y0023076D01*
X0243809Y0024075D02*
X0253627Y0024075D01*
X0252628Y0025073D02*
X0242811Y0025073D01*
X0241753Y0028069D02*
X0249633Y0028069D01*
X0250631Y0027070D02*
X0222237Y0027070D01*
X0222237Y0028069D02*
X0237321Y0028069D01*
X0236323Y0029067D02*
X0222237Y0029067D01*
X0222218Y0030066D02*
X0235324Y0030066D01*
X0234837Y0031064D02*
X0221220Y0031064D01*
X0220221Y0032063D02*
X0234837Y0032063D01*
X0234837Y0033061D02*
X0220037Y0033061D01*
X0220037Y0034060D02*
X0234442Y0034060D01*
X0233443Y0035058D02*
X0220037Y0035058D01*
X0221341Y0036057D02*
X0232445Y0036057D01*
X0228335Y0037055D02*
X0222339Y0037055D01*
X0223338Y0038054D02*
X0227336Y0038054D01*
X0226338Y0039052D02*
X0223437Y0039052D01*
X0223437Y0040051D02*
X0226037Y0040051D01*
X0226037Y0041049D02*
X0223437Y0041049D01*
X0223436Y0042048D02*
X0226037Y0042048D01*
X0226037Y0043046D02*
X0222437Y0043046D01*
X0221439Y0044045D02*
X0226835Y0044045D01*
X0233237Y0046042D02*
X0248060Y0046042D01*
X0249058Y0045043D02*
X0233640Y0045043D01*
X0234639Y0044045D02*
X0250057Y0044045D01*
X0251055Y0043046D02*
X0235437Y0043046D01*
X0235437Y0042048D02*
X0252054Y0042048D01*
X0258914Y0041049D02*
X0235437Y0041049D01*
X0235522Y0040051D02*
X0259913Y0040051D01*
X0260911Y0039052D02*
X0236520Y0039052D01*
X0233237Y0047040D02*
X0247061Y0047040D01*
X0246062Y0048039D02*
X0233237Y0048039D01*
X0233237Y0049037D02*
X0245064Y0049037D01*
X0250138Y0051034D02*
X0273536Y0051034D01*
X0272537Y0050036D02*
X0251137Y0050036D01*
X0252135Y0049037D02*
X0261201Y0049037D01*
X0260203Y0048039D02*
X0253134Y0048039D01*
X0254132Y0047040D02*
X0259204Y0047040D01*
X0267473Y0049037D02*
X0271539Y0049037D01*
X0270540Y0048039D02*
X0268471Y0048039D01*
X0269470Y0047040D02*
X0269542Y0047040D01*
X0274534Y0052033D02*
X0249140Y0052033D01*
X0248141Y0053032D02*
X0275533Y0053032D01*
X0276532Y0054030D02*
X0248037Y0054030D01*
X0248037Y0055029D02*
X0277530Y0055029D01*
X0278529Y0056027D02*
X0248037Y0056027D01*
X0247258Y0057026D02*
X0279527Y0057026D01*
X0280526Y0058024D02*
X0246260Y0058024D01*
X0240414Y0058024D02*
X0233260Y0058024D01*
X0234258Y0057026D02*
X0239416Y0057026D01*
X0239956Y0051034D02*
X0234118Y0051034D01*
X0233237Y0050036D02*
X0240954Y0050036D01*
X0226816Y0057026D02*
X0225347Y0057026D01*
X0224348Y0058024D02*
X0227814Y0058024D01*
X0213854Y0031064D02*
X0211220Y0031064D01*
X0212218Y0030066D02*
X0212856Y0030066D01*
X0212837Y0029067D02*
X0212237Y0029067D01*
X0212237Y0028069D02*
X0212837Y0028069D01*
X0212837Y0027070D02*
X0212237Y0027070D01*
X0212155Y0026072D02*
X0212918Y0026072D01*
X0208366Y0023076D02*
X0191808Y0023076D01*
X0192437Y0022078D02*
X0207837Y0022078D01*
X0207837Y0021079D02*
X0192437Y0021079D01*
X0192437Y0020081D02*
X0207837Y0020081D01*
X0207837Y0019082D02*
X0192437Y0019082D01*
X0191967Y0018084D02*
X0207425Y0018084D01*
X0206652Y0017085D02*
X0190969Y0017085D01*
X0189970Y0016087D02*
X0205878Y0016087D01*
X0210656Y0014090D02*
X0318791Y0014090D01*
X0318721Y0014019D02*
X0318721Y0014019D01*
X0319790Y0015088D02*
X0211430Y0015088D01*
X0214670Y0016087D02*
X0314709Y0016087D01*
X0313711Y0017085D02*
X0293569Y0017085D01*
X0294567Y0018084D02*
X0312712Y0018084D01*
X0311714Y0019082D02*
X0295566Y0019082D01*
X0295837Y0020081D02*
X0310837Y0020081D01*
X0311068Y0026072D02*
X0258701Y0026072D01*
X0262811Y0025073D02*
X0268263Y0025073D01*
X0267265Y0024075D02*
X0263809Y0024075D01*
X0251630Y0026072D02*
X0222156Y0026072D01*
X0221157Y0025073D02*
X0227863Y0025073D01*
X0226865Y0024075D02*
X0220158Y0024075D01*
X0216667Y0018084D02*
X0227307Y0018084D01*
X0228305Y0017085D02*
X0215669Y0017085D01*
X0204916Y0024075D02*
X0190809Y0024075D01*
X0189811Y0025073D02*
X0203917Y0025073D01*
X0184505Y0017085D02*
X0183515Y0017085D01*
X0183507Y0018084D02*
X0182637Y0018084D01*
X0183037Y0019082D02*
X0181760Y0019082D01*
X0180882Y0020081D02*
X0183037Y0020081D01*
X0183037Y0021079D02*
X0180005Y0021079D01*
X0179127Y0022078D02*
X0182624Y0022078D01*
X0181625Y0023076D02*
X0177208Y0023076D01*
X0177736Y0016087D02*
X0176170Y0016087D01*
X0178613Y0015088D02*
X0128084Y0015088D01*
X0129083Y0014090D02*
X0179491Y0014090D01*
X0184392Y0016087D02*
X0185504Y0016087D01*
X0233169Y0017085D02*
X0237505Y0017085D01*
X0236507Y0018084D02*
X0234167Y0018084D01*
X0234609Y0024075D02*
X0236065Y0024075D01*
X0237063Y0025073D02*
X0233611Y0025073D01*
X0242751Y0029067D02*
X0248634Y0029067D01*
X0320437Y0049549D02*
X0320437Y0057000D01*
X0321272Y0057000D01*
X0322999Y0057716D01*
X0323237Y0057953D01*
X0323237Y0047641D01*
X0321959Y0048919D01*
X0320437Y0049549D01*
X0320437Y0050036D02*
X0323237Y0050036D01*
X0323237Y0051034D02*
X0320437Y0051034D01*
X0320437Y0052033D02*
X0323237Y0052033D01*
X0323237Y0053032D02*
X0320437Y0053032D01*
X0320437Y0054030D02*
X0323237Y0054030D01*
X0323237Y0055029D02*
X0320437Y0055029D01*
X0320437Y0056027D02*
X0323237Y0056027D01*
X0323237Y0057026D02*
X0321334Y0057026D01*
X0321673Y0049037D02*
X0323237Y0049037D01*
X0323237Y0048039D02*
X0322839Y0048039D01*
X0323237Y0066012D02*
X0322208Y0066012D01*
X0322291Y0067011D02*
X0321298Y0067011D01*
X0312181Y0068009D02*
X0293293Y0068009D01*
X0294292Y0069008D02*
X0311182Y0069008D01*
X0310751Y0070006D02*
X0294723Y0070006D01*
X0295037Y0071005D02*
X0310437Y0071005D01*
X0310437Y0072003D02*
X0295037Y0072003D01*
X0294885Y0073002D02*
X0310589Y0073002D01*
X0311003Y0074000D02*
X0294471Y0074000D01*
X0297171Y0074999D02*
X0311789Y0074999D01*
X0323278Y0077994D02*
X0338537Y0077994D01*
X0338537Y0078993D02*
X0324277Y0078993D01*
X0324716Y0079991D02*
X0338537Y0079991D01*
X0338537Y0080990D02*
X0325037Y0080990D01*
X0325037Y0081988D02*
X0338537Y0081988D01*
X0338537Y0082987D02*
X0324891Y0082987D01*
X0324478Y0083985D02*
X0338537Y0083985D01*
X0338537Y0084984D02*
X0323700Y0084984D01*
X0322280Y0085982D02*
X0338537Y0085982D01*
X0312211Y0087979D02*
X0306437Y0087979D01*
X0306437Y0088978D02*
X0311212Y0088978D01*
X0310764Y0089976D02*
X0306437Y0089976D01*
X0306437Y0090975D02*
X0310437Y0090975D01*
X0310437Y0091973D02*
X0306437Y0091973D01*
X0306437Y0092972D02*
X0310577Y0092972D01*
X0310990Y0093970D02*
X0306437Y0093970D01*
X0306437Y0094969D02*
X0311759Y0094969D01*
X0300085Y0084984D02*
X0293700Y0084984D01*
X0294478Y0083985D02*
X0299087Y0083985D01*
X0298088Y0082987D02*
X0294891Y0082987D01*
X0295037Y0081988D02*
X0297090Y0081988D01*
X0296091Y0080990D02*
X0295037Y0080990D01*
X0295093Y0079991D02*
X0294716Y0079991D01*
X0281027Y0098963D02*
X0279247Y0098963D01*
X0259050Y0108948D02*
X0253624Y0108948D01*
X0254623Y0107950D02*
X0258051Y0107950D01*
X0256590Y0119200D02*
X0249284Y0119200D01*
X0250284Y0120200D01*
X0254834Y0120200D01*
X0255753Y0120581D01*
X0261037Y0125864D01*
X0261037Y0122253D01*
X0261890Y0121400D01*
X0258790Y0121400D01*
X0256590Y0119200D01*
X0257322Y0119932D02*
X0250016Y0119932D01*
X0256103Y0120930D02*
X0258321Y0120930D01*
X0257101Y0121929D02*
X0261361Y0121929D01*
X0261037Y0122927D02*
X0258100Y0122927D01*
X0259098Y0123926D02*
X0261037Y0123926D01*
X0261037Y0124924D02*
X0260097Y0124924D01*
X0256901Y0128800D02*
X0253301Y0125200D01*
X0250284Y0125200D01*
X0249284Y0126200D01*
X0253634Y0126200D01*
X0254553Y0126581D01*
X0255256Y0127284D01*
X0256773Y0128800D01*
X0256901Y0128800D01*
X0256021Y0127920D02*
X0255892Y0127920D01*
X0255023Y0126921D02*
X0254894Y0126921D01*
X0254024Y0125923D02*
X0249561Y0125923D01*
X0249072Y0131200D02*
X0253126Y0135000D01*
X0253237Y0135000D01*
X0253237Y0132336D01*
X0252101Y0131200D01*
X0249072Y0131200D01*
X0249834Y0131914D02*
X0252815Y0131914D01*
X0253237Y0132912D02*
X0250899Y0132912D01*
X0251964Y0133911D02*
X0253237Y0133911D01*
X0253237Y0134909D02*
X0253029Y0134909D01*
X0248914Y0137905D02*
X0240179Y0137905D01*
X0239884Y0138200D02*
X0236773Y0138200D01*
X0232656Y0142316D01*
X0231953Y0143019D01*
X0231034Y0143400D01*
X0223084Y0143400D01*
X0222684Y0143800D01*
X0259580Y0143800D01*
X0260437Y0143229D01*
X0260437Y0141153D01*
X0261590Y0140000D01*
X0252177Y0140000D01*
X0251721Y0140015D01*
X0251681Y0140000D01*
X0251640Y0140000D01*
X0251217Y0139825D01*
X0250790Y0139664D01*
X0250759Y0139635D01*
X0250721Y0139619D01*
X0250398Y0139296D01*
X0242637Y0132021D01*
X0242637Y0135447D01*
X0239884Y0138200D01*
X0241177Y0136906D02*
X0247849Y0136906D01*
X0246784Y0135908D02*
X0242176Y0135908D01*
X0242637Y0134909D02*
X0245718Y0134909D01*
X0244653Y0133911D02*
X0242637Y0133911D01*
X0242637Y0132912D02*
X0243588Y0132912D01*
X0249979Y0138903D02*
X0236069Y0138903D01*
X0235071Y0139902D02*
X0251403Y0139902D01*
X0260437Y0141899D02*
X0233073Y0141899D01*
X0232075Y0142898D02*
X0260437Y0142898D01*
X0260690Y0140901D02*
X0234072Y0140901D01*
X0230920Y0136981D02*
X0229501Y0138400D01*
X0223084Y0138400D01*
X0221971Y0137287D01*
X0230380Y0137000D01*
X0230834Y0137000D01*
X0230875Y0136983D01*
X0230919Y0136982D01*
X0230920Y0136981D01*
X0229996Y0137905D02*
X0222589Y0137905D01*
X0215688Y0137502D02*
X0211229Y0137655D01*
X0208884Y0140000D01*
X0200389Y0140000D01*
X0200321Y0140162D01*
X0198999Y0141484D01*
X0197272Y0142200D01*
X0190202Y0142200D01*
X0188475Y0141484D01*
X0187153Y0140162D01*
X0186437Y0138435D01*
X0186437Y0136565D01*
X0187153Y0134838D01*
X0188475Y0133516D01*
X0190202Y0132800D01*
X0197272Y0132800D01*
X0198999Y0133516D01*
X0200321Y0134838D01*
X0200389Y0135000D01*
X0202237Y0135000D01*
X0202237Y0133353D01*
X0204390Y0131200D01*
X0198293Y0131200D01*
X0197954Y0131242D01*
X0197800Y0131200D01*
X0197640Y0131200D01*
X0197324Y0131069D01*
X0196995Y0130979D01*
X0196869Y0130881D01*
X0196721Y0130819D01*
X0196493Y0130591D01*
X0196484Y0130600D01*
X0192590Y0130600D01*
X0189837Y0127847D01*
X0189837Y0123953D01*
X0192590Y0121200D01*
X0196484Y0121200D01*
X0199237Y0123953D01*
X0199237Y0126200D01*
X0205301Y0126200D01*
X0199901Y0120800D01*
X0170637Y0120800D01*
X0170637Y0143800D01*
X0215190Y0143800D01*
X0214237Y0142847D01*
X0214237Y0138953D01*
X0215688Y0137502D01*
X0215285Y0137905D02*
X0210979Y0137905D01*
X0209980Y0138903D02*
X0214287Y0138903D01*
X0214237Y0139902D02*
X0208982Y0139902D01*
X0214237Y0140901D02*
X0199583Y0140901D01*
X0197998Y0141899D02*
X0214237Y0141899D01*
X0214288Y0142898D02*
X0170637Y0142898D01*
X0170637Y0141899D02*
X0189476Y0141899D01*
X0187891Y0140901D02*
X0170637Y0140901D01*
X0170637Y0139902D02*
X0187045Y0139902D01*
X0186631Y0138903D02*
X0170637Y0138903D01*
X0170637Y0137905D02*
X0186437Y0137905D01*
X0186437Y0136906D02*
X0170637Y0136906D01*
X0170637Y0135908D02*
X0186709Y0135908D01*
X0187123Y0134909D02*
X0170637Y0134909D01*
X0170637Y0133911D02*
X0188079Y0133911D01*
X0189931Y0132912D02*
X0170637Y0132912D01*
X0170637Y0131914D02*
X0203676Y0131914D01*
X0202678Y0132912D02*
X0197543Y0132912D01*
X0196913Y0130915D02*
X0170637Y0130915D01*
X0170637Y0129917D02*
X0191907Y0129917D01*
X0190909Y0128918D02*
X0170637Y0128918D01*
X0170637Y0127920D02*
X0189910Y0127920D01*
X0189837Y0126921D02*
X0170637Y0126921D01*
X0170637Y0125923D02*
X0189837Y0125923D01*
X0189837Y0124924D02*
X0170637Y0124924D01*
X0170637Y0123926D02*
X0189864Y0123926D01*
X0190863Y0122927D02*
X0170637Y0122927D01*
X0170637Y0121929D02*
X0191861Y0121929D01*
X0197213Y0121929D02*
X0201030Y0121929D01*
X0200032Y0120930D02*
X0170637Y0120930D01*
X0165637Y0120930D02*
X0162842Y0120930D01*
X0163841Y0119932D02*
X0165637Y0119932D01*
X0165637Y0119200D02*
X0164573Y0119200D01*
X0160237Y0123536D01*
X0160237Y0126647D01*
X0158037Y0128847D01*
X0158037Y0133117D01*
X0158999Y0133516D01*
X0160321Y0134838D01*
X0161037Y0136565D01*
X0161037Y0138435D01*
X0160321Y0140162D01*
X0158999Y0141484D01*
X0157272Y0142200D01*
X0150773Y0142200D01*
X0165637Y0142200D01*
X0165637Y0119200D01*
X0165637Y0121929D02*
X0161844Y0121929D01*
X0160845Y0122927D02*
X0165637Y0122927D01*
X0165637Y0123926D02*
X0160237Y0123926D01*
X0160237Y0124924D02*
X0165637Y0124924D01*
X0165637Y0125923D02*
X0160237Y0125923D01*
X0159962Y0126921D02*
X0165637Y0126921D01*
X0165637Y0127920D02*
X0158964Y0127920D01*
X0158037Y0128918D02*
X0165637Y0128918D01*
X0165637Y0129917D02*
X0158037Y0129917D01*
X0158037Y0130915D02*
X0165637Y0130915D01*
X0165637Y0131914D02*
X0158037Y0131914D01*
X0158037Y0132912D02*
X0165637Y0132912D01*
X0165637Y0133911D02*
X0159395Y0133911D01*
X0160351Y0134909D02*
X0165637Y0134909D01*
X0165637Y0135908D02*
X0160765Y0135908D01*
X0161037Y0136906D02*
X0165637Y0136906D01*
X0165637Y0137905D02*
X0161037Y0137905D01*
X0160843Y0138903D02*
X0165637Y0138903D01*
X0165637Y0139902D02*
X0160429Y0139902D01*
X0159583Y0140901D02*
X0165637Y0140901D01*
X0165637Y0141899D02*
X0157998Y0141899D01*
X0150773Y0142200D02*
X0150773Y0142200D01*
X0143996Y0144895D02*
X0040937Y0144895D01*
X0040937Y0145893D02*
X0144995Y0145893D01*
X0145993Y0146892D02*
X0040937Y0146892D01*
X0040937Y0147890D02*
X0146992Y0147890D01*
X0142998Y0143896D02*
X0040937Y0143896D01*
X0040937Y0142898D02*
X0141999Y0142898D01*
X0141128Y0141899D02*
X0040937Y0141899D01*
X0040937Y0140901D02*
X0140837Y0140901D01*
X0140837Y0139902D02*
X0040937Y0139902D01*
X0040937Y0138903D02*
X0140837Y0138903D01*
X0140837Y0137905D02*
X0040937Y0137905D01*
X0040937Y0136906D02*
X0140837Y0136906D01*
X0140837Y0135908D02*
X0040937Y0135908D01*
X0040937Y0134909D02*
X0124538Y0134909D01*
X0123463Y0133911D02*
X0040937Y0133911D01*
X0040937Y0132912D02*
X0122565Y0132912D01*
X0121666Y0131914D02*
X0057747Y0131914D01*
X0059458Y0130915D02*
X0120767Y0130915D01*
X0119869Y0129917D02*
X0060456Y0129917D01*
X0061049Y0128918D02*
X0118970Y0128918D01*
X0118071Y0127920D02*
X0061463Y0127920D01*
X0061737Y0126921D02*
X0097367Y0126921D01*
X0096224Y0125923D02*
X0061737Y0125923D01*
X0061737Y0124924D02*
X0095226Y0124924D01*
X0094227Y0123926D02*
X0061411Y0123926D01*
X0060998Y0122927D02*
X0090118Y0122927D01*
X0089119Y0121929D02*
X0060332Y0121929D01*
X0059333Y0120930D02*
X0088121Y0120930D01*
X0087637Y0119932D02*
X0057447Y0119932D01*
X0053227Y0119932D02*
X0052819Y0119932D01*
X0051821Y0118933D02*
X0087637Y0118933D01*
X0087637Y0117935D02*
X0050822Y0117935D01*
X0050637Y0116936D02*
X0087637Y0116936D01*
X0088252Y0115938D02*
X0050637Y0115938D01*
X0050637Y0114939D02*
X0089251Y0114939D01*
X0090249Y0113941D02*
X0050637Y0113941D01*
X0045637Y0113941D02*
X0040937Y0113941D01*
X0040937Y0114939D02*
X0045637Y0114939D01*
X0045637Y0115938D02*
X0040937Y0115938D01*
X0040937Y0116936D02*
X0045637Y0116936D01*
X0045637Y0117935D02*
X0040937Y0117935D01*
X0040937Y0118933D02*
X0045637Y0118933D01*
X0045906Y0119932D02*
X0040937Y0119932D01*
X0040937Y0120930D02*
X0046747Y0120930D01*
X0047745Y0121929D02*
X0040937Y0121929D01*
X0040937Y0122927D02*
X0048744Y0122927D01*
X0049263Y0123926D02*
X0040937Y0123926D01*
X0040937Y0124924D02*
X0048937Y0124924D01*
X0048937Y0125923D02*
X0040937Y0125923D01*
X0040937Y0126921D02*
X0048937Y0126921D01*
X0049211Y0127920D02*
X0040937Y0127920D01*
X0040937Y0128918D02*
X0049625Y0128918D01*
X0050218Y0129917D02*
X0040937Y0129917D01*
X0040937Y0130915D02*
X0051216Y0130915D01*
X0052927Y0131914D02*
X0040937Y0131914D01*
X0040937Y0148889D02*
X0338537Y0148889D01*
X0338537Y0149887D02*
X0040937Y0149887D01*
X0040937Y0150886D02*
X0338537Y0150886D01*
X0338537Y0151884D02*
X0040937Y0151884D01*
X0040937Y0152883D02*
X0338537Y0152883D01*
X0281897Y0136906D02*
X0278666Y0136906D01*
X0279665Y0135908D02*
X0280898Y0135908D01*
X0230101Y0131200D02*
X0209484Y0131200D01*
X0210945Y0132662D01*
X0229266Y0132035D01*
X0230101Y0131200D01*
X0229388Y0131914D02*
X0210198Y0131914D01*
X0202237Y0133911D02*
X0199395Y0133911D01*
X0200351Y0134909D02*
X0202237Y0134909D01*
X0205024Y0125923D02*
X0199237Y0125923D01*
X0199237Y0124924D02*
X0204026Y0124924D01*
X0203027Y0123926D02*
X0199210Y0123926D01*
X0198211Y0122927D02*
X0202029Y0122927D01*
X0208952Y0119932D02*
X0214237Y0119932D01*
X0214237Y0120930D02*
X0209503Y0120930D01*
X0210501Y0121929D02*
X0214237Y0121929D01*
X0214257Y0118933D02*
X0209951Y0118933D01*
X0202237Y0113941D02*
X0150343Y0113941D01*
X0151037Y0112942D02*
X0202444Y0112942D01*
X0201445Y0111944D02*
X0151037Y0111944D01*
X0151037Y0110945D02*
X0200447Y0110945D01*
X0199547Y0109947D02*
X0197137Y0109947D01*
X0198136Y0108948D02*
X0199237Y0108948D01*
X0199237Y0107950D02*
X0199134Y0107950D01*
X0199237Y0106951D02*
X0199237Y0106951D01*
X0199237Y0105953D02*
X0199237Y0105953D01*
X0199237Y0104954D02*
X0199237Y0104954D01*
X0199237Y0103956D02*
X0199237Y0103956D01*
X0199237Y0102957D02*
X0198241Y0102957D01*
X0191937Y0109947D02*
X0151037Y0109947D01*
X0150632Y0108948D02*
X0190938Y0108948D01*
X0161762Y0114939D02*
X0149345Y0114939D01*
X0148346Y0115938D02*
X0160764Y0115938D01*
X0159765Y0116936D02*
X0144236Y0116936D01*
X0143238Y0117935D02*
X0158767Y0117935D01*
X0157768Y0118933D02*
X0142239Y0118933D01*
X0138752Y0119932D02*
X0156770Y0119932D01*
X0152660Y0120930D02*
X0138414Y0120930D01*
X0139413Y0121929D02*
X0151661Y0121929D01*
X0150837Y0122927D02*
X0140237Y0122927D01*
X0140237Y0123926D02*
X0150837Y0123926D01*
X0150837Y0124924D02*
X0140237Y0124924D01*
X0140237Y0125923D02*
X0150837Y0125923D01*
X0151112Y0126921D02*
X0139962Y0126921D01*
X0138964Y0127920D02*
X0152110Y0127920D01*
X0153037Y0128918D02*
X0143803Y0128918D01*
X0144656Y0129684D02*
X0144656Y0129684D01*
X0144889Y0129917D02*
X0153037Y0129917D01*
X0153037Y0130915D02*
X0145888Y0130915D01*
X0146886Y0131914D02*
X0153037Y0131914D01*
X0149931Y0132912D02*
X0147400Y0132912D01*
X0147437Y0133911D02*
X0148079Y0133911D01*
X0132790Y0128600D02*
X0130837Y0126647D01*
X0130837Y0125336D01*
X0127618Y0122116D01*
X0127237Y0121197D01*
X0127237Y0116647D01*
X0126037Y0117847D01*
X0126037Y0126264D01*
X0128373Y0128600D01*
X0132790Y0128600D01*
X0132110Y0127920D02*
X0127692Y0127920D01*
X0126694Y0126921D02*
X0131112Y0126921D01*
X0130837Y0125923D02*
X0126037Y0125923D01*
X0126037Y0124924D02*
X0130426Y0124924D01*
X0129427Y0123926D02*
X0126037Y0123926D01*
X0126037Y0122927D02*
X0128429Y0122927D01*
X0127540Y0121929D02*
X0126037Y0121929D01*
X0126037Y0120930D02*
X0127237Y0120930D01*
X0127237Y0119932D02*
X0126037Y0119932D01*
X0126037Y0118933D02*
X0127237Y0118933D01*
X0127237Y0117935D02*
X0126037Y0117935D01*
X0126948Y0116936D02*
X0127237Y0116936D01*
X0121037Y0119932D02*
X0097304Y0119932D01*
X0098303Y0120930D02*
X0121037Y0120930D01*
X0121037Y0121929D02*
X0099301Y0121929D01*
X0098837Y0111944D02*
X0058436Y0111944D01*
X0059743Y0110945D02*
X0099645Y0110945D01*
X0100644Y0109947D02*
X0060741Y0109947D01*
X0061167Y0108948D02*
X0100938Y0108948D01*
X0099940Y0107950D02*
X0061581Y0107950D01*
X0061737Y0106951D02*
X0099237Y0106951D01*
X0099237Y0105953D02*
X0061737Y0105953D01*
X0061707Y0104954D02*
X0099237Y0104954D01*
X0099237Y0103956D02*
X0061293Y0103956D01*
X0060880Y0102957D02*
X0090147Y0102957D01*
X0090390Y0103200D02*
X0087637Y0100447D01*
X0087637Y0096553D01*
X0089790Y0094400D01*
X0087837Y0092447D01*
X0087837Y0088553D01*
X0090590Y0085800D01*
X0094484Y0085800D01*
X0097237Y0088553D01*
X0097237Y0092447D01*
X0095084Y0094600D01*
X0097037Y0096553D01*
X0097037Y0100447D01*
X0094284Y0103200D01*
X0090390Y0103200D01*
X0089149Y0101959D02*
X0060047Y0101959D01*
X0059048Y0100960D02*
X0088150Y0100960D01*
X0087637Y0099962D02*
X0056759Y0099962D01*
X0053915Y0099962D02*
X0050637Y0099962D01*
X0050637Y0100960D02*
X0051626Y0100960D01*
X0050637Y0098963D02*
X0087637Y0098963D01*
X0087637Y0097965D02*
X0050637Y0097965D01*
X0050637Y0096966D02*
X0087637Y0096966D01*
X0088223Y0095968D02*
X0050637Y0095968D01*
X0050637Y0094969D02*
X0089221Y0094969D01*
X0089361Y0093970D02*
X0050637Y0093970D01*
X0050637Y0092972D02*
X0053960Y0092972D01*
X0051645Y0091973D02*
X0050637Y0091973D01*
X0050637Y0090975D02*
X0050646Y0090975D01*
X0056714Y0092972D02*
X0088362Y0092972D01*
X0087837Y0091973D02*
X0059029Y0091973D01*
X0060028Y0090975D02*
X0087837Y0090975D01*
X0087837Y0089976D02*
X0060872Y0089976D01*
X0061286Y0088978D02*
X0087837Y0088978D01*
X0088411Y0087979D02*
X0061699Y0087979D01*
X0061737Y0086981D02*
X0089409Y0086981D01*
X0090408Y0085982D02*
X0061737Y0085982D01*
X0061589Y0084984D02*
X0099237Y0084984D01*
X0099237Y0085982D02*
X0094666Y0085982D01*
X0095665Y0086981D02*
X0099237Y0086981D01*
X0099970Y0087979D02*
X0096663Y0087979D01*
X0097237Y0088978D02*
X0100968Y0088978D01*
X0101967Y0089976D02*
X0097237Y0089976D01*
X0097237Y0090975D02*
X0125276Y0090975D01*
X0126275Y0091973D02*
X0097237Y0091973D01*
X0096712Y0092972D02*
X0127273Y0092972D01*
X0128272Y0093970D02*
X0095713Y0093970D01*
X0095453Y0094969D02*
X0129270Y0094969D01*
X0130269Y0095968D02*
X0096451Y0095968D01*
X0097037Y0096966D02*
X0130437Y0096966D01*
X0130437Y0097965D02*
X0097037Y0097965D01*
X0097037Y0098963D02*
X0130338Y0098963D01*
X0129340Y0099962D02*
X0097037Y0099962D01*
X0096524Y0100960D02*
X0101630Y0100960D01*
X0100632Y0101959D02*
X0095525Y0101959D01*
X0094527Y0102957D02*
X0099633Y0102957D01*
X0106244Y0100960D02*
X0111630Y0100960D01*
X0110632Y0101959D02*
X0107242Y0101959D01*
X0108241Y0102957D02*
X0109633Y0102957D01*
X0109237Y0103956D02*
X0108637Y0103956D01*
X0108637Y0104954D02*
X0109237Y0104954D01*
X0109237Y0105953D02*
X0108637Y0105953D01*
X0108637Y0106951D02*
X0109237Y0106951D01*
X0109940Y0107950D02*
X0107934Y0107950D01*
X0106936Y0108948D02*
X0110938Y0108948D01*
X0111937Y0109947D02*
X0106437Y0109947D01*
X0116244Y0100960D02*
X0128341Y0100960D01*
X0127504Y0101959D02*
X0126442Y0101959D01*
X0132417Y0103956D02*
X0149457Y0103956D01*
X0150456Y0104954D02*
X0132237Y0104954D01*
X0142021Y0102957D02*
X0148459Y0102957D01*
X0147460Y0101959D02*
X0143122Y0101959D01*
X0143437Y0100960D02*
X0146462Y0100960D01*
X0145463Y0099962D02*
X0143437Y0099962D01*
X0143437Y0098963D02*
X0144465Y0098963D01*
X0143466Y0097965D02*
X0143437Y0097965D01*
X0152534Y0099962D02*
X0159605Y0099962D01*
X0158530Y0100960D02*
X0153533Y0100960D01*
X0151037Y0092972D02*
X0159462Y0092972D01*
X0158464Y0091973D02*
X0151037Y0091973D01*
X0144009Y0086981D02*
X0142637Y0086981D01*
X0142637Y0087979D02*
X0143011Y0087979D01*
X0142637Y0085982D02*
X0158508Y0085982D01*
X0159551Y0084984D02*
X0142637Y0084984D01*
X0142637Y0083985D02*
X0162237Y0083985D01*
X0162237Y0082987D02*
X0149697Y0082987D01*
X0150695Y0081988D02*
X0162237Y0081988D01*
X0162237Y0080990D02*
X0151694Y0080990D01*
X0152437Y0079991D02*
X0162237Y0079991D01*
X0162237Y0078993D02*
X0152437Y0078993D01*
X0152437Y0077994D02*
X0162237Y0077994D01*
X0162237Y0076996D02*
X0152437Y0076996D01*
X0152081Y0075997D02*
X0162237Y0075997D01*
X0161589Y0074999D02*
X0151083Y0074999D01*
X0150084Y0074000D02*
X0160590Y0074000D01*
X0159592Y0073002D02*
X0136086Y0073002D01*
X0137084Y0074000D02*
X0145390Y0074000D01*
X0144391Y0074999D02*
X0138083Y0074999D01*
X0132188Y0073002D02*
X0126686Y0073002D01*
X0125687Y0072003D02*
X0144793Y0072003D01*
X0143795Y0071005D02*
X0117168Y0071005D01*
X0116169Y0072003D02*
X0121387Y0072003D01*
X0120388Y0073002D02*
X0115171Y0073002D01*
X0114172Y0074000D02*
X0119390Y0074000D01*
X0118837Y0074999D02*
X0113837Y0074999D01*
X0113837Y0075997D02*
X0118837Y0075997D01*
X0118837Y0076996D02*
X0113837Y0076996D01*
X0113289Y0077994D02*
X0118837Y0077994D01*
X0127684Y0083200D02*
X0128237Y0083753D01*
X0128237Y0086864D01*
X0129437Y0088064D01*
X0129437Y0085753D01*
X0129946Y0085244D01*
X0129721Y0085019D01*
X0129018Y0084316D01*
X0128637Y0083397D01*
X0128637Y0083200D01*
X0127684Y0083200D01*
X0128237Y0083985D02*
X0128881Y0083985D01*
X0128237Y0084984D02*
X0129685Y0084984D01*
X0129721Y0085019D02*
X0129721Y0085019D01*
X0129437Y0085982D02*
X0128237Y0085982D01*
X0128353Y0086981D02*
X0129437Y0086981D01*
X0129437Y0087979D02*
X0129352Y0087979D01*
X0136084Y0083000D02*
X0137637Y0084553D01*
X0137637Y0080847D01*
X0136084Y0082400D01*
X0134173Y0082400D01*
X0134364Y0082592D01*
X0134379Y0082598D01*
X0134716Y0082943D01*
X0134773Y0083000D01*
X0136084Y0083000D01*
X0136495Y0081988D02*
X0137637Y0081988D01*
X0137637Y0080990D02*
X0137494Y0080990D01*
X0137637Y0082987D02*
X0134759Y0082987D01*
X0137069Y0083985D02*
X0137637Y0083985D01*
X0142637Y0082987D02*
X0145777Y0082987D01*
X0144779Y0081988D02*
X0142637Y0081988D01*
X0142637Y0080990D02*
X0143780Y0080990D01*
X0143037Y0070006D02*
X0136278Y0070006D01*
X0137276Y0069008D02*
X0143037Y0069008D01*
X0143037Y0068009D02*
X0138275Y0068009D01*
X0138837Y0067011D02*
X0143037Y0067011D01*
X0143378Y0066012D02*
X0138837Y0066012D01*
X0138837Y0065014D02*
X0144377Y0065014D01*
X0145375Y0064015D02*
X0138837Y0064015D01*
X0129999Y0068009D02*
X0120163Y0068009D01*
X0119165Y0069008D02*
X0130998Y0069008D01*
X0131996Y0070006D02*
X0118166Y0070006D01*
X0114091Y0067011D02*
X0105037Y0067011D01*
X0105037Y0068009D02*
X0113092Y0068009D01*
X0112094Y0069008D02*
X0105037Y0069008D01*
X0105037Y0070006D02*
X0111095Y0070006D01*
X0110301Y0070800D02*
X0117721Y0063381D01*
X0118640Y0063000D01*
X0126757Y0063000D01*
X0126321Y0062819D01*
X0125618Y0062116D01*
X0124701Y0061200D01*
X0121590Y0061200D01*
X0118837Y0058447D01*
X0118837Y0054553D01*
X0121290Y0052100D01*
X0119237Y0050047D01*
X0119237Y0046153D01*
X0121990Y0043400D01*
X0125884Y0043400D01*
X0128637Y0046153D01*
X0128637Y0050047D01*
X0126437Y0052247D01*
X0126437Y0052753D01*
X0128237Y0054553D01*
X0128237Y0057664D01*
X0128773Y0058200D01*
X0130190Y0058200D01*
X0129437Y0057447D01*
X0129437Y0053553D01*
X0131637Y0051353D01*
X0131637Y0048003D01*
X0132018Y0047084D01*
X0133837Y0045264D01*
X0133837Y0042153D01*
X0134390Y0041600D01*
X0114373Y0041600D01*
X0113637Y0042336D01*
X0113637Y0045447D01*
X0110884Y0048200D01*
X0107773Y0048200D01*
X0106332Y0049640D01*
X0107153Y0049981D01*
X0107856Y0050684D01*
X0107973Y0050800D01*
X0111084Y0050800D01*
X0113837Y0053553D01*
X0113837Y0057447D01*
X0111084Y0060200D01*
X0107190Y0060200D01*
X0104437Y0057447D01*
X0104437Y0054600D01*
X0101373Y0054600D01*
X0101073Y0054900D01*
X0104656Y0058484D01*
X0105037Y0059403D01*
X0105037Y0060397D01*
X0105037Y0072953D01*
X0107190Y0070800D01*
X0110301Y0070800D01*
X0106985Y0071005D02*
X0105037Y0071005D01*
X0105037Y0072003D02*
X0105987Y0072003D01*
X0100037Y0072003D02*
X0097237Y0072003D01*
X0097237Y0072447D02*
X0094484Y0075200D01*
X0090590Y0075200D01*
X0087837Y0072447D01*
X0087837Y0068553D01*
X0090590Y0065800D01*
X0094484Y0065800D01*
X0097237Y0068553D01*
X0097237Y0072447D01*
X0096682Y0073002D02*
X0100037Y0073002D01*
X0100037Y0074000D02*
X0095684Y0074000D01*
X0094685Y0074999D02*
X0100037Y0074999D01*
X0100037Y0075997D02*
X0050637Y0075997D01*
X0050637Y0074999D02*
X0090389Y0074999D01*
X0089390Y0074000D02*
X0050637Y0074000D01*
X0050637Y0073002D02*
X0088392Y0073002D01*
X0087837Y0072003D02*
X0050637Y0072003D01*
X0050637Y0071005D02*
X0087837Y0071005D01*
X0087837Y0070006D02*
X0050637Y0070006D01*
X0050637Y0069008D02*
X0087837Y0069008D01*
X0088381Y0068009D02*
X0050637Y0068009D01*
X0050637Y0067011D02*
X0089380Y0067011D01*
X0090378Y0066012D02*
X0050637Y0066012D01*
X0050637Y0065014D02*
X0100037Y0065014D01*
X0100037Y0066012D02*
X0094696Y0066012D01*
X0095694Y0067011D02*
X0100037Y0067011D01*
X0100037Y0068009D02*
X0096693Y0068009D01*
X0097237Y0069008D02*
X0100037Y0069008D01*
X0100037Y0070006D02*
X0097237Y0070006D01*
X0097237Y0071005D02*
X0100037Y0071005D01*
X0105037Y0066012D02*
X0115089Y0066012D01*
X0116088Y0065014D02*
X0105037Y0065014D01*
X0105037Y0064015D02*
X0117086Y0064015D01*
X0118600Y0063017D02*
X0105037Y0063017D01*
X0105037Y0062018D02*
X0125520Y0062018D01*
X0125618Y0062116D02*
X0125618Y0062116D01*
X0121410Y0061020D02*
X0105037Y0061020D01*
X0105037Y0060021D02*
X0107011Y0060021D01*
X0106013Y0059023D02*
X0104880Y0059023D01*
X0105014Y0058024D02*
X0104197Y0058024D01*
X0104437Y0057026D02*
X0103198Y0057026D01*
X0102200Y0056027D02*
X0104437Y0056027D01*
X0104437Y0055029D02*
X0101201Y0055029D01*
X0097126Y0058024D02*
X0050637Y0058024D01*
X0050637Y0057026D02*
X0073727Y0057026D01*
X0072729Y0056027D02*
X0050745Y0056027D01*
X0051744Y0055029D02*
X0071730Y0055029D01*
X0075806Y0052033D02*
X0082029Y0052033D01*
X0081550Y0051034D02*
X0074843Y0051034D01*
X0075037Y0050036D02*
X0081137Y0050036D01*
X0080837Y0049037D02*
X0075037Y0049037D01*
X0075037Y0048039D02*
X0080837Y0048039D01*
X0080837Y0047040D02*
X0075037Y0047040D01*
X0075037Y0046042D02*
X0081022Y0046042D01*
X0081435Y0045043D02*
X0075037Y0045043D01*
X0074123Y0044045D02*
X0081849Y0044045D01*
X0082750Y0043046D02*
X0073124Y0043046D01*
X0072126Y0042048D02*
X0083748Y0042048D01*
X0085437Y0041049D02*
X0071637Y0041049D01*
X0071637Y0040051D02*
X0085437Y0040051D01*
X0085665Y0039052D02*
X0071637Y0039052D01*
X0071637Y0038054D02*
X0086448Y0038054D01*
X0087446Y0037055D02*
X0071637Y0037055D01*
X0071637Y0036057D02*
X0088445Y0036057D01*
X0089443Y0035058D02*
X0071637Y0035058D01*
X0071637Y0034060D02*
X0090442Y0034060D01*
X0091440Y0033061D02*
X0071637Y0033061D01*
X0071637Y0032063D02*
X0092439Y0032063D01*
X0093885Y0031064D02*
X0071637Y0031064D01*
X0091522Y0040051D02*
X0105739Y0040051D01*
X0104741Y0041049D02*
X0090523Y0041049D01*
X0090437Y0041136D02*
X0090437Y0041251D01*
X0091959Y0041881D01*
X0093956Y0043878D01*
X0095037Y0046488D01*
X0095037Y0049312D01*
X0093956Y0051922D01*
X0093278Y0052600D01*
X0096301Y0052600D01*
X0098218Y0050684D01*
X0098921Y0049981D01*
X0104237Y0044664D01*
X0104237Y0041553D01*
X0106990Y0038800D01*
X0110101Y0038800D01*
X0110701Y0038200D01*
X0106990Y0038200D01*
X0104790Y0036000D01*
X0095573Y0036000D01*
X0090437Y0041136D01*
X0092126Y0042048D02*
X0104237Y0042048D01*
X0104237Y0043046D02*
X0093124Y0043046D01*
X0094025Y0044045D02*
X0104237Y0044045D01*
X0103858Y0045043D02*
X0094439Y0045043D01*
X0094852Y0046042D02*
X0102860Y0046042D01*
X0101861Y0047040D02*
X0095037Y0047040D01*
X0095037Y0048039D02*
X0100862Y0048039D01*
X0099864Y0049037D02*
X0095037Y0049037D01*
X0094737Y0050036D02*
X0098865Y0050036D01*
X0098921Y0049981D02*
X0098921Y0049981D01*
X0097867Y0051034D02*
X0094324Y0051034D01*
X0093845Y0052033D02*
X0096868Y0052033D01*
X0106935Y0049037D02*
X0119237Y0049037D01*
X0119237Y0048039D02*
X0111045Y0048039D01*
X0112043Y0047040D02*
X0119237Y0047040D01*
X0119348Y0046042D02*
X0113042Y0046042D01*
X0113637Y0045043D02*
X0120347Y0045043D01*
X0121345Y0044045D02*
X0113637Y0044045D01*
X0113637Y0043046D02*
X0133837Y0043046D01*
X0133837Y0044045D02*
X0126529Y0044045D01*
X0127527Y0045043D02*
X0133837Y0045043D01*
X0133060Y0046042D02*
X0128526Y0046042D01*
X0128637Y0047040D02*
X0132061Y0047040D01*
X0131637Y0048039D02*
X0128637Y0048039D01*
X0128637Y0049037D02*
X0131637Y0049037D01*
X0131637Y0050036D02*
X0128637Y0050036D01*
X0127649Y0051034D02*
X0131637Y0051034D01*
X0130957Y0052033D02*
X0126651Y0052033D01*
X0126715Y0053032D02*
X0129959Y0053032D01*
X0129437Y0054030D02*
X0127714Y0054030D01*
X0128237Y0055029D02*
X0129437Y0055029D01*
X0129437Y0056027D02*
X0128237Y0056027D01*
X0128237Y0057026D02*
X0129437Y0057026D01*
X0130014Y0058024D02*
X0128597Y0058024D01*
X0120411Y0060021D02*
X0111263Y0060021D01*
X0112261Y0059023D02*
X0119413Y0059023D01*
X0118837Y0058024D02*
X0113260Y0058024D01*
X0113837Y0057026D02*
X0118837Y0057026D01*
X0118837Y0056027D02*
X0113837Y0056027D01*
X0113837Y0055029D02*
X0118837Y0055029D01*
X0119360Y0054030D02*
X0113837Y0054030D01*
X0113315Y0053032D02*
X0120359Y0053032D01*
X0121223Y0052033D02*
X0112317Y0052033D01*
X0111318Y0051034D02*
X0120225Y0051034D01*
X0119237Y0050036D02*
X0107209Y0050036D01*
X0113925Y0042048D02*
X0133942Y0042048D01*
X0137135Y0049037D02*
X0145187Y0049037D01*
X0144189Y0050036D02*
X0136637Y0050036D01*
X0136637Y0051034D02*
X0143190Y0051034D01*
X0142625Y0056600D02*
X0138837Y0056600D01*
X0138837Y0057447D01*
X0138084Y0058200D01*
X0144225Y0058200D01*
X0142625Y0056600D01*
X0143050Y0057026D02*
X0138837Y0057026D01*
X0138260Y0058024D02*
X0144049Y0058024D01*
X0150625Y0058024D02*
X0156877Y0058024D01*
X0157876Y0057026D02*
X0151624Y0057026D01*
X0106738Y0039052D02*
X0092520Y0039052D01*
X0093519Y0038054D02*
X0106844Y0038054D01*
X0105846Y0037055D02*
X0094517Y0037055D01*
X0095516Y0036057D02*
X0104847Y0036057D01*
X0099608Y0023076D02*
X0112266Y0023076D01*
X0111268Y0022078D02*
X0100606Y0022078D01*
X0100637Y0021079D02*
X0111237Y0021079D01*
X0111237Y0020081D02*
X0100637Y0020081D01*
X0100637Y0019082D02*
X0111237Y0019082D01*
X0111307Y0018084D02*
X0100567Y0018084D01*
X0099569Y0017085D02*
X0112305Y0017085D01*
X0113304Y0016087D02*
X0098570Y0016087D01*
X0118570Y0016087D02*
X0120015Y0016087D01*
X0123010Y0013091D02*
X0040937Y0013091D01*
X0040937Y0012093D02*
X0124009Y0012093D01*
X0125007Y0011094D02*
X0040937Y0011094D01*
X0040937Y0010096D02*
X0126006Y0010096D01*
X0127405Y0009097D02*
X0040937Y0009097D01*
X0055738Y0051034D02*
X0061031Y0051034D01*
X0062029Y0052033D02*
X0054740Y0052033D01*
X0053741Y0053032D02*
X0063028Y0053032D01*
X0064026Y0054030D02*
X0052742Y0054030D01*
X0050637Y0059023D02*
X0098124Y0059023D01*
X0099123Y0060021D02*
X0050637Y0060021D01*
X0050637Y0061020D02*
X0100037Y0061020D01*
X0100037Y0062018D02*
X0050637Y0062018D01*
X0050637Y0063017D02*
X0100037Y0063017D01*
X0100037Y0064015D02*
X0050637Y0064015D01*
X0050637Y0076996D02*
X0100285Y0076996D01*
X0101096Y0077994D02*
X0050637Y0077994D01*
X0050637Y0078993D02*
X0102094Y0078993D01*
X0101121Y0078019D02*
X0101121Y0078019D01*
X0103093Y0079991D02*
X0050637Y0079991D01*
X0050637Y0080990D02*
X0052193Y0080990D01*
X0050913Y0081988D02*
X0050637Y0081988D01*
X0058481Y0080990D02*
X0101600Y0080990D01*
X0100602Y0081988D02*
X0059761Y0081988D01*
X0060760Y0082987D02*
X0099603Y0082987D01*
X0099237Y0083985D02*
X0061175Y0083985D01*
X0105907Y0089976D02*
X0111967Y0089976D01*
X0110968Y0088978D02*
X0106906Y0088978D01*
X0107904Y0087979D02*
X0109970Y0087979D01*
X0115907Y0089976D02*
X0121167Y0089976D01*
X0120168Y0088978D02*
X0116906Y0088978D01*
X0117904Y0087979D02*
X0119170Y0087979D01*
X0118837Y0086981D02*
X0118637Y0086981D01*
X0118637Y0085982D02*
X0118837Y0085982D01*
X0118837Y0084984D02*
X0118637Y0084984D01*
X0118637Y0083985D02*
X0118837Y0083985D01*
X0117242Y0101959D02*
X0120632Y0101959D01*
X0137826Y0112942D02*
X0141159Y0112942D01*
X0140161Y0113941D02*
X0138824Y0113941D01*
X0121037Y0122927D02*
X0120305Y0122927D01*
X0045637Y0112942D02*
X0040937Y0112942D01*
X0040937Y0111944D02*
X0045637Y0111944D01*
M02*
